<?xml version="1.0" encoding="utf-8"?>
<!-- Generator: Adobe Illustrator 27.9.0, SVG Export Plug-In . SVG Version: 6.00 Build 0)  -->
<svg version="1.1" id="Layer_1" xmlns="http://www.w3.org/2000/svg" xmlns:xlink="http://www.w3.org/1999/xlink" x="0px" y="0px"
	 viewBox="0 0 37.7 32" style="enable-background:new 0 0 37.7 32;" xml:space="preserve">
<style type="text/css">
	.st0{fill:#33A02C;}
	.st1{fill:#FFFFFF;}
</style>
<g id="XMLID_00000026148688287750866900000017234476357605402017_">
	<g>
		<polygon class="st0" points="0.8,31.6 18.7,1 18.8,0.9 36.9,31.6 		"/>
		<path class="st1" d="M18.8,1.8l17.3,29.3H1.6L18.8,1.8 M18.8,0l-0.4,0.8L0,32h37.7L18.8,0L18.8,0z"/>
	</g>
</g>
<g>
	<path class="st1" d="M23.7,27.3c-1.4,1.5-3,2-4.9,2c-1.9,0-3.4-0.6-4.7-1.9c-1.7-1.7-1.7-3.9-1.7-6.9s0-5.2,1.7-6.9
		c1.3-1.3,2.8-2,4.7-2c4,0,6,2.7,6.4,5.7h-3.3c-0.4-1.7-1.4-2.5-3.1-2.5c-0.9,0-1.7,0.4-2.2,0.9c-0.7,0.7-0.8,1.5-0.8,4.9
		c0,3.4,0.1,4.2,0.8,4.9c0.4,0.6,1.3,0.9,2.2,0.9s1.9-0.4,2.4-0.9c0.4-0.7,0.7-1.4,0.7-2.3v-0.7h-3.1v-2.8h6.4v2.5
		C25.3,24.5,24.9,26,23.7,27.3z"/>
</g>
</svg>
