<?xml version="1.0" encoding="utf-8"?>
<!-- Generator: Adobe Illustrator 27.5.0, SVG Export Plug-In . SVG Version: 6.00 Build 0)  -->
<svg version="1.1" id="Layer_1" xmlns="http://www.w3.org/2000/svg" xmlns:xlink="http://www.w3.org/1999/xlink" x="0px" y="0px"
	 viewBox="0 0 30 30" style="enable-background:new 0 0 30 30;" xml:space="preserve">
<style type="text/css">
	.st0{fill:#FF0000;}
</style>
<path class="st0" d="M10.6,26.3c-0.5,0-1-0.2-1.4-0.6s-0.6-0.9-0.6-1.4V21h4.1v-4.2c-0.8,0.1-1.7,0-2.5-0.3S8.6,15.7,8,15.1v-1.9
	H6.4L2.1,9c0.8-0.7,1.7-1.3,2.8-1.8s2.2-0.7,3.3-0.7c0.7,0,1.4,0.1,2.2,0.3s1.6,0.5,2.2,1V5.3h14.9v17.5c0,1-0.3,1.8-1,2.4
	s-1.5,1-2.4,1H10.6V26.3z M14.7,21.1h8v1.8c0,0.4,0.1,0.8,0.4,1.1s0.6,0.4,1.1,0.4s0.8-0.1,1.1-0.4s0.4-0.6,0.4-1.1V7.3h-11v1.9
	l7.9,7.9v1.4h-1.4L17,14.3L16.5,15c-0.3,0.3-0.6,0.6-0.9,0.8c-0.3,0.2-0.6,0.3-1,0.5L14.7,21.1L14.7,21.1z M7.2,11.3H10v2.9
	c0.4,0.2,0.7,0.4,1.1,0.5c0.4,0.1,0.7,0.2,1.1,0.2c0.5,0,1.1-0.1,1.7-0.4s1-0.6,1.2-0.9l0.6-0.7l-2.3-2.3C12.7,10,11.9,9.4,11,9
	S9.2,8.4,8.2,8.4c-0.6,0-1.1,0.1-1.6,0.2S5.7,9,5.1,9.2L7.2,11.3z M20.7,23H10.6v1.3h10.6c-0.1-0.1-0.2-0.3-0.3-0.5
	S20.7,23.3,20.7,23z M10.6,24.3V23V24.3z"/>
</svg>
