<?xml version="1.0" encoding="utf-8"?>
<!-- Generator: Adobe Illustrator 28.0.0, SVG Export Plug-In . SVG Version: 6.00 Build 0)  -->
<svg version="1.1" id="Layer_1" xmlns="http://www.w3.org/2000/svg" xmlns:xlink="http://www.w3.org/1999/xlink" x="0px" y="0px"
	 viewBox="0 0 14 14" style="enable-background:new 0 0 14 14;" xml:space="preserve">
<path d="M10,3.9C9.7,2.9,9.1,1.9,6.3,0.7c-4-1.8-5.8,2.6-4.9,5c-0.9,0.8-1.1,2.8-0.8,4.9c0.5,4.4,5.5,3.6,6.7,1.7
	c0.7,0.1,1.7,0.3,4.5-1.6C15.3,8.2,12.7,4.3,10,3.9z M1.2,8.5c0.4-0.8,0.9-1,0.9-1s0.6,1.2,1.8,2.3C2,10,1.3,8.7,1.2,8.5z M6.9,7.6
	C6.6,8,6.3,8.4,6.3,8.4S6,8.1,5.7,7.6c-0.3-0.4-0.5-1-0.5-1s0.5-0.1,1-0.1s1,0.1,1,0.1S7.2,7.1,6.9,7.6z M8.1,3.5c0,0-1.3,0-2.9,0.4
	C6,2.1,7.5,2.1,7.7,2.2C8.1,3,8.1,3.5,8.1,3.5z M9.9,11c-0.9,0-1.3-0.3-1.3-0.3s0.7-1.1,1.1-2.7C10.8,9.6,10,10.9,9.9,11z"/>
</svg>
