<?xml version="1.0" encoding="utf-8"?>
<!-- Generator: Adobe Illustrator 27.9.0, SVG Export Plug-In . SVG Version: 6.00 Build 0)  -->
<svg version="1.1" id="Layer_1" xmlns="http://www.w3.org/2000/svg" xmlns:xlink="http://www.w3.org/1999/xlink" x="0px" y="0px"
	 viewBox="0 0 14 14" style="enable-background:new 0 0 14 14;" xml:space="preserve">
<g id="Connect">
	<path d="M8,12.4c-0.2,0-0.3,0-0.5,0c-0.1,0-0.1,0-0.1,0C7,12.7,6.6,13,6.1,13.3c-0.5,0.3-1.1,0.5-1.7,0.5c-0.6,0.1-1.2,0-1.7-0.2
		c-0.4-0.2-0.8-0.4-1.2-0.7c-0.1-0.1-0.2-0.2-0.3-0.4c-0.4-0.5-0.6-1.2-0.7-1.8c-0.1-0.5-0.1-1-0.1-1.5c0-0.8,0.1-1.6,0.3-2.4
		C0.9,6.4,1.1,6,1.4,5.7c0,0,0-0.1,0-0.1C1.2,5,1.2,4.5,1.2,3.9c0-1,0.4-2,1.2-2.8c0.4-0.3,0.8-0.6,1.3-0.8c0.3-0.1,0.5-0.2,0.8-0.2
		c0.6,0,1.2,0.1,1.7,0.3c0.5,0.2,1,0.4,1.4,0.7c0.6,0.3,1.2,0.7,1.7,1.2C9.6,2.7,9.8,3.1,10,3.5c0,0.1,0.1,0.1,0.1,0.2
		c0,0,0,0.1,0.1,0.1c0.3,0.1,0.7,0.2,1,0.4C11.6,4.4,12,4.7,12.4,5c0.4,0.4,0.8,0.8,1,1.3c0.2,0.4,0.3,0.9,0.3,1.3
		c0,0.4,0,0.7-0.1,1.1c-0.1,0.3-0.2,0.5-0.3,0.8c-0.3,0.5-0.6,0.9-1.1,1.2c-0.4,0.3-0.8,0.6-1.2,0.8c-0.7,0.4-1.5,0.7-2.3,0.9
		C8.4,12.4,8.2,12.4,8,12.4z M7.8,3.4h0.3c0.1,0,0.1,0,0.1-0.1s0-0.1,0-0.1C8.2,2.9,8,2.5,7.8,2.2c0,0-0.1-0.1-0.1-0.1
		c-0.2,0-0.3,0-0.5,0C6.8,2.2,6.4,2.4,6.1,2.7C5.8,3,5.5,3.3,5.4,3.7c0,0,0,0,0,0.1c0,0,0,0,0.1,0l0.8-0.1C6.8,3.5,7.3,3.5,7.8,3.4z
		 M4.6,9.6L4.6,9.6C4.3,9.7,4.1,9.8,3.9,9.8c0,0-0.1,0-0.1,0C3.6,9.6,3.4,9.4,3.3,9.2c-0.4-0.5-0.8-1-1.1-1.6c-0.1-0.1,0-0.1-0.1,0
		C1.7,7.8,1.5,8.1,1.3,8.4c0,0.1,0,0.1,0,0.2C1.5,9,1.8,9.3,2.2,9.5c0.6,0.3,1.4,0.4,2.1,0.2C4.4,9.7,4.5,9.7,4.6,9.6z M9.2,7.5
		L9.2,7.5c0.2,0.2,0.4,0.4,0.6,0.6c0.1,0,0.1,0.1,0,0.2C9.7,8.5,9.6,8.7,9.6,8.9c-0.2,0.6-0.5,1.2-0.8,1.8c0,0.1,0,0.1,0,0.1
		c0.3,0.2,0.7,0.2,1.1,0.2c0.1,0,0.2,0,0.2-0.1c0.3-0.5,0.4-1.1,0.3-1.7C10.2,8.8,10,8.4,9.8,8.1C9.6,7.9,9.4,7.7,9.2,7.5z M6.2,6.5
		c-0.3,0-0.5,0-0.8,0.1c-0.1,0-0.1,0-0.1,0.1c0.1,0.3,0.2,0.5,0.4,0.8C5.8,7.7,6,8,6.2,8.3c0.1,0.2,0.1,0.2,0.3,0
		c0.4-0.5,0.7-1,0.9-1.6c0-0.1,0-0.1-0.1-0.1C7,6.5,6.6,6.5,6.2,6.5z"/>
</g>
</svg>
