<?xml version="1.0" encoding="utf-8"?>
<!-- Generator: Adobe Illustrator 27.5.0, SVG Export Plug-In . SVG Version: 6.00 Build 0)  -->
<svg version="1.1" id="Layer_1" xmlns="http://www.w3.org/2000/svg" xmlns:xlink="http://www.w3.org/1999/xlink" x="0px" y="0px"
	 viewBox="0 0 1160 16" style="enable-background:new 0 0 1160 16;" xml:space="preserve">
<style type="text/css">
	.st0{fill-rule:evenodd;clip-rule:evenodd;fill:#00FF00;}
	.st1{fill-rule:evenodd;clip-rule:evenodd;fill:#00FFFF;}
	.st2{fill-rule:evenodd;clip-rule:evenodd;fill:#0000FF;}
	.st3{fill-rule:evenodd;clip-rule:evenodd;fill:#FFFF00;}
	.st4{fill-rule:evenodd;clip-rule:evenodd;fill:#FF0000;}
</style>
<path class="st0" d="M767.09998,16H1053c-13-5.7-26.69995-11.1-41.09998-16H721.59998C740.59998,4.9,755.79999,10.3,767.09998,16z"
	/>
<path class="st1" d="M143.89999,16h623.19995c-11.29999-5.7-26.59998-11.1-45.5-16H162.3C157.2,4.8,151.10001,10.2,143.89999,16z"/>
<path class="st2" d="M143.89999,16H0V0h162.3C157.2,4.8,151.10001,10.2,143.89999,16z"/>
<path class="st3" d="M1044.40002,12.3C1034,8,1023.20001,3.9,1012,0h148v0.8L1044.40002,12.3z"/>
<g>
	<path class="st4" d="M1053.09998,16H1160V0.8l-115.59998,11.5C1044,12.1,1049.90002,14.6,1053.09998,16z"/>
</g>
</svg>
