<?xml version="1.0" encoding="utf-8"?>
<!-- Generator: Adobe Illustrator 27.9.0, SVG Export Plug-In . SVG Version: 6.00 Build 0)  -->
<svg version="1.1" id="Layer_1" xmlns="http://www.w3.org/2000/svg" xmlns:xlink="http://www.w3.org/1999/xlink" x="0px" y="0px"
	 viewBox="0 0 131.8 56.6" style="enable-background:new 0 0 131.8 56.6;" xml:space="preserve">
<style type="text/css">
	.st0{fill:#FFFFFF;}
</style>
<g>
	<path class="st0" d="M35.7,5.8V5.6C36.1,5.3,36,6.2,35.7,5.8"/>
	<path class="st0" d="M31.5,12c0,0.2-0.2,0.2-0.4,0.2C31.1,12,31.4,11.8,31.5,12"/>
	<path class="st0" d="M26.8,12.3c-0.2,0-0.5,0-0.5-0.2C26.6,12,26.9,11.9,26.8,12.3"/>
	<path class="st0" d="M28.3,12c0,0.2,0.1,0.2,0.1,0.3c-0.1,0.1-0.5-0.1-0.5-0.2C28,12,28,11.9,28.3,12"/>
	<path class="st0" d="M30,12.2c-0.2,0.2-0.5,0.1-0.5-0.2C29.7,12,30,11.9,30,12.2"/>
	<path class="st0" d="M33.2,12c0,0.2-0.2,0.3-0.3,0.3c-0.1-0.1-0.2-0.1-0.2-0.2C32.8,12,32.9,12,33.2,12"/>
	<path class="st0" d="M32.8,13.1c0.3,0.1,0.3,0.4,0.3,0.7c-0.5-0.2-0.9,0.3-1.1-0.3c0.2,0.1,0.2-0.2,0.3-0.2c0.2,0,0.3,0.2,0.5,0.2
		C33,13.4,32.6,13.2,32.8,13.1"/>
	<path class="st0" d="M29,13.2c0.2,0.1,0.2,0.3,0.2,0.5c-0.5-0.1-0.6-0.1-1.1,0c-0.1-0.2-0.2-0.2-0.2-0.5
		C28.2,13.4,29.1,13.7,29,13.2"/>
	<path class="st0" d="M37.5,39.4c-2.2,0.8-3.7,2.3-6.5,2.5c1.1-0.9,2.4-1.6,3.5-2.5H37.5z"/>
	<path class="st0" d="M39.6,7.3c-0.4,0.2,0.2,0.5,0.2,0.9c-0.2,0-0.2-0.2-0.5-0.2c-0.2-0.4,0.1-0.2,0.1-0.6
		c-0.5-0.2-0.9-0.4-0.8-1.1c-0.6,0.2-0.6,0.9-1,1.4c0.6-0.4,1.7,0.2,1.9,0.8c0.8,0,1,0.4,1.7,0.1c-0.2,0.8-0.5,1.5-1,2
		c-0.1,0.4,0.2,0.5,0.1,1c-0.2,0-0.2-0.2-0.2-0.3c-0.2,0.2,0.2,0.4,0,0.5c-0.2-0.1-0.2-0.5-0.3-0.6c-0.2,0.2,0.2,0.5,0.1,0.8
		c-0.3-0.3-0.4-0.9-0.3-1.5c-0.5,0.1,0.2,0.8-0.3,0.7c-0.1-0.3,0.1-0.5,0.1-0.7c-0.4-0.1-0.2,0.6-0.3,0.7c-0.3-1-0.5-2-0.8-2.8
		c-0.5,0-0.7,0.2-0.6,0.6c-1.1,0.8-1.7,2.1-2.5,3.2c0.8,0.2,1.3,1.4,0.5,1.9c-2.3,0.2-3.8-0.1-5.8,0.2c-1,0-2.2-0.2-3.4-0.2
		c-1.1,0.1-1.9,0.2-2-0.7c-0.1-0.7,0.3-0.8,0.7-1.2c-0.8-1.1-1.4-2.4-2.4-3.3c0.2-0.8-0.7-1.1-1-0.5c0.2,0.9,0,2.1-0.8,2.3
		c-0.1,0.5-0.2,1.1-0.5,1.3c0-0.5,0.5-0.5,0.3-1.1c-0.5-0.2-0.2,0.4-0.5,0.5c-0.2-0.1,0.1-0.2,0-0.3c-0.2,0-0.2,0.2-0.3,0.2
		c0.2-0.8-0.6-1.7-0.8-2.6c0.3-0.1,0.5,0.2,0.7,0c0.2,0,0-0.3,0.1-0.5C20,8.1,20.2,8.1,20.3,8c0.2,0.1-0.2,0.4,0.1,0.5
		C21,8,21.7,6.9,22.6,7.7c-0.3-0.5-0.8-1-1-1.7c-0.2,0.8-0.7,1.1-0.8,1.7c-0.3-0.2,0.2-0.3,0.1-0.6c-0.2,0.4-0.5,0.2-0.5,0.7
		c-0.1,0-0.1-0.2-0.1-0.3C20.1,7.8,20.1,8,19.7,8c0.4-0.8-0.6-1.5-0.7-2.3c0.5-0.1,0.5,0.3,0.8,0.3c0.2-0.2,0.3-0.6,0.5-1
		c1.2-0.5,1.5,0.6,1.8,1.4c0.2-0.2,0-0.7,0.1-1c-0.2-0.2-0.3-0.4-0.5-0.5c-0.2-1.1-1.2-1.4-1.5-2.4c1.1-0.5,1.7,0.6,1.7,1.7
		c0.1,0.2,0.2,0.2,0.3,0.3c0.2,0,0.1-0.2,0.2-0.2C22.2,4,22.2,3.8,22,3.6c0.2-1.4-0.7-1.5-1-2.3c0.5,0,0.8,0.1,1.1,0.3
		C22.5,2,22.2,3,22.6,3.3c0.2-0.1-0.1-0.3-0.1-0.5c0.5-1-0.2-1.6-0.2-2.3c1.1-0.1,0.8,1.2,0.8,2c0.7-0.6,0.2-1.7-0.1-2.3
		c0.9-0.3,0.8,1.1,0.8,1.7c0.8-0.3,0.2-1.2,0.4-1.9c0.8,0.2,0.5,0.8,0.4,1.4c0.6,0,0.5-0.8,0.5-1.4c0.9,0,0.1,0.9,0.3,1.3
		c0.5-0.2,0.3-1.1,1-1.1c0.2,0.4-0.2,0.5-0.3,0.8c0.1,0.2,0.6,0.2,0.5,0.5c-0.5,0.2-0.8,0.2-1.4,0.2c-4.5,0.9-2.3,8.1,0.1,9.9
		c0.4-1.1-0.7-2.2-1.1-3.1c-0.5,0.1-0.6,0.1-1-0.2c0.1-0.6-0.1-0.9-0.3-1.2c-0.2-1.4,0.7-2.3,1.4-3.1c0.8-0.2,1.2-0.5,2.1-0.5
		c0.7,0.4,1.7,0.4,2.3,1c0.3-0.2,0.5-0.5,0.5-1.1c-0.2-0.2-0.3,0.2-0.6,0.1v-1c0.5-0.1,0.5,0.2,0.8,0.2c0.1-0.4-0.2-0.5-0.2-0.8h1.5
		c0.1,0.3-0.1,0.4-0.2,0.5c0.2,0.2,0.5-0.1,0.6,0.1c-0.1,0.3-0.1,0.8-0.2,1.1c-0.3,0.1-0.4-0.2-0.6-0.2c-0.2,0.5,0.3,0.8,0.5,1.2
		c0.9-0.5,2-1,3.4-0.8c0.9,0.2,1.4,0.8,2.1,1.2c0.3,1.2,0.5,2.3,0,3.4c-0.2,0-0.4,0.2-0.7,0.2c-0.5,1-1.5,1.9-1.3,3.3
		c1.8-1.7,4.1-6.6,1.7-9.2c-0.8-0.8-2-0.8-3.2-1.3c0.1-0.2,0.4-0.2,0.5-0.4c0-0.4-0.5-0.8-0.1-1c0.6,0,0.1,1.2,0.7,1.2
		c0.5-0.2-0.5-1.3,0.4-1.3c0.2,0.5,0,1.2,0.4,1.4c0.6-0.2-0.2-1.1,0.2-1.6c0.2-0.1,0.2,0.1,0.4,0.1C35.2,1,35,1.7,35.5,2.1
		c0.2-0.6-0.1-1.7,0.9-1.6C36.5,1.1,36,1.3,36,1.7c0.2,0.4,0.2,1,0.5,1.1c0-0.7-0.2-1.9,0.8-1.9c-0.1,0.7-0.8,1.7-0.5,2.7
		c0.5,0,0.2-0.5,0.3-0.7c0.2-1,0.7-2,1.7-1.6c-0.5,0.8-1.4,1.4-1.4,2.7c-0.2,0.1-0.3,0.3-0.3,0.5c0.1,0.1,0.2,0.2,0.2,0.2
		c0.5-0.9,1.1-2.6,2.3-2C39,3.5,38,4,37.9,5.3c-0.3,0-0.2,0.3-0.5,0.4v0.8c0.5-0.6,1-2,2.1-1.2c0.2,0.2,0.2,0.5,0.4,0.7
		c0.2-0.1,0.5-0.4,0.6-0.2c-0.3,0.6-0.2,1.8-1,1.7c0,0.2,0.2,0.2,0.1,0.4C39.6,7.8,39.6,7.5,39.6,7.3 M35.8,6.3
		c0,0.4,0.1,0.6,0.4,0.5C36.8,6.6,36.3,5.8,35.8,6.3 M29.6,2.2c-0.2,0.7,1,0.7,0.8,0C29.9,2.2,29.9,2.2,29.6,2.2 M30.3,3.4
		c0.2,0.1,0.2,0.2,0.5,0.2c0.1-0.2,0.2-0.4,0-0.5C30.5,3,30.3,3.1,30.3,3.4 M28.9,3.5h0.4V3.2C29.1,2.9,28.7,3.3,28.9,3.5 M29.7,3.5
		c0.3,0,0.5-0.1,0.5-0.3c-0.1,0-0.1-0.1-0.1-0.2h-0.4C29.6,3.3,29.6,3.3,29.7,3.5 M29.7,4.1c0.5,0.1,0.6-0.5,0.1-0.4
		C29.7,3.8,29.7,3.9,29.7,4.1 M25.2,4.7c0.2,0.5,1.1,0.2,0.7-0.4C25.6,4.1,25.3,4.3,25.2,4.7 M26.2,4.7c0.2,0.2,0.8,0.2,0.8-0.2
		c-0.1,0-0.2-0.1-0.2-0.2C26.5,4.1,26.2,4.2,26.2,4.7 M33.2,5C34.3,3.8,32,4.4,33.2,5 M34.5,4.8c0.1-0.6-0.3-0.7-0.7-0.5
		C33.6,5,34.2,5.1,34.5,4.8 M29.3,4.7V5c0.5,0,0.5,0.3,0.7,0.4C30,5.2,30.1,5,30.5,5c0.2-0.5-0.6-0.2-0.5-0.7h-0.3
		C29.8,4.7,29.4,4.7,29.3,4.7 M27.1,4.7c0.2-0.2,0.5,0,0.3,0.2c0.2,0,0.3-0.2,0.3-0.3c-0.1,0-0.1-0.1-0.1-0.2
		C27.4,4.5,27.1,4.4,27.1,4.7 M31.9,5.1c0.2,0,0.2,0.1,0.2,0.2c0.4-0.1,0.6-0.4,0.4-0.8C32,4.4,31.8,4.6,31.9,5.1 M25.1,4.7
		c-0.2-0.2-0.5-0.2-0.8-0.1c0,0.2-0.1,0.5,0.1,0.6C24.9,5.3,25.2,5.2,25.1,4.7 M34.7,4.8c-0.1,0.4,0.2,0.5,0.2,0.6
		c0.2,0.1,0.5-0.2,0.5,0c-0.1,0.3,0,0.5,0.2,0.6H36c0.2-0.1,0.2-0.6,0.1-0.8c-0.3-0.2-0.5,0.1-0.6,0c0-0.3,0-0.5-0.1-0.6
		C35,4.5,34.7,4.6,34.7,4.8 M28,5.1c0.2,0.2,0.5-0.2,0.5,0.2c0.1-0.1,0.1-0.3,0.1-0.5C28.3,4.7,28,4.7,28,5.1 M31.2,5.4
		c0.2-0.3,0.3-0.1,0.1,0.2c0.4,0.1,0.4-0.2,0.5-0.4C31.7,5,31.5,4.9,31.2,5C31.1,5,31,5.4,31.2,5.4 M24.7,5.6
		c-0.5,0.5-1,2.4,0.1,2.7c0.2-0.5-0.2-1.1-0.1-1.6c0.4-1.5,2.9-1.3,3.9-0.5C28.1,4.9,25.7,4.8,24.7,5.6 M31.2,6.2
		c1.1,0.1,3-1.4,3.7,0c0.3,0.5-0.2,1.5,0.5,1.8C36.6,5.3,32.4,4.3,31.2,6.2 M23.7,5.9c0.5,0.3,0.9-0.2,0.6-0.6
		C23.9,5,23.5,5.4,23.7,5.9 M20.5,6.1c-0.2-0.1-0.2-0.3-0.3-0.3c-0.1,0.3-0.3,0.5-0.7,0.3c0,0.9,1.1,1.1,1.7,0.5
		c0-0.5-0.1-0.9-0.4-1.1C20.7,5.8,20.6,5.9,20.5,6.1 M29.3,8c0.2-0.2,0.5,0,0.8-0.2c0-0.2-0.1-0.2-0.1-0.3c-0.3-0.2-0.5,0.2-0.6,0
		c0.1-0.7-0.1-1.6-0.5-2h-0.2C28.9,6.4,29.1,7.1,29.3,8 M29.6,6.1c0.1-0.2,0.1-0.5-0.3-0.5C29.3,5.8,29.3,6,29.6,6.1 M30.2,6.1
		c0.3,0.1,0.3-0.3,0.4-0.5C30.2,5.6,30.2,5.7,30.2,6.1 M30.3,8c0.3-0.8,0.5-1.5,0.7-2.3C30.4,5.9,30.1,7.3,30.3,8 M39.3,6.1
		c-0.1-0.2-0.2-0.4-0.5-0.3c0,0.5-0.2,1,0.2,1.3H40c0.2-0.2,0.2-0.6,0.3-0.8c-0.2-0.2-0.2,0.2-0.5,0.1c-0.1-0.2-0.1-0.5-0.2-0.6
		C39.3,5.6,39.6,6,39.3,6.1 M25.3,6.5c1.3-0.1,1.8,0.5,3.3,0.2C28,5.9,25.9,5.4,25.3,6.5 M31.1,6.7c1.4,0.3,2.4-0.2,3.6-0.2
		C33.9,5.3,32,6.4,31.1,6.7 M23.4,7.6h0.5C23.9,7,23.8,6.8,24,6.2c-0.2-0.2-0.6-0.2-0.8,0c-0.1,0.4,0.2,0.4,0.2,0.6
		c-0.1,0.2-0.3,0.2-0.2,0.6c0.2,0,0.3-0.4,0.5-0.1C23.8,7.6,23.3,7.3,23.4,7.6 M29.6,6.7c0.2,0,0.5,0.2,0.5-0.1
		C29.9,6.5,29.5,6.5,29.6,6.7 M30,7.2C30,7,29.9,7,29.6,7C29.6,7.3,29.9,7.4,30,7.2 M36,7.8c0.3-0.1,0.5-0.2,0.5-0.5
		C36.2,6.8,35.5,7.4,36,7.8 M32.4,7.4C32,7.6,32.3,8.3,32,8.6c-0.2-0.1-0.3-0.3-0.7-0.2C31,8.6,31,9.3,31.4,9.6c0.2-0.7,2-0.8,2,0.2
		c0.5,0,0.5-0.6,0.3-1.1c-0.3-0.2-0.6,0.2-0.8,0C32.9,8.2,33,7.5,32.4,7.4 M27,8.7h-0.7c-0.2,0.2-0.2,0.7,0.1,0.9
		c0.5-0.5,1.8-0.8,2.2-0.2c0.2-0.2,0.2-0.8-0.1-1.1c-0.4-0.1-0.5,0.1-0.7,0.2C27.8,7.2,26.5,7.5,27,8.7 M23.9,8.6
		c0.4,0,0.4-0.4,0.2-0.6C23.5,7.7,23.4,8.6,23.9,8.6 M35.7,8.3c0.3-0.2,0.4,0.2,0.5,0c0.1-0.2-0.1-0.2-0.1-0.4
		C35.8,7.9,35.7,8,35.7,8.3 M37.5,8.3h0.4C37.9,7.9,37.5,8,37.5,8.3 M29.6,8.2c0.1,0.5,0.3,0.8,0.3,1.2c0.5-0.2,0.2-0.8,0.5-1.2
		C30.1,8.2,29.8,8,29.6,8.2 M35,8.9c0.3-0.1,0.3-0.4,0.4-0.6c-0.2,0-0.2-0.2-0.4-0.2C34.8,8.3,34.8,8.7,35,8.9 M20.3,8.9
		c-0.2-0.1-0.2-0.2-0.4-0.2c-0.1,0.1-0.1,0.4-0.1,0.5h-0.5c0.2,0.3,0.2,0.8,0.4,1.1c0.4-0.1,0.8-0.1,1.4-0.1
		c0.3-0.3,0.2-0.8,0.2-1.4c-0.2,0-0.2,0.2-0.5,0.2c0-0.2,0.1-0.5-0.2-0.5C20.5,8.6,20.4,8.8,20.3,8.9 M24.7,8.6c0,0.4,0,0.7,0.4,0.6
		c0.3-0.1,0.2-0.5,0.2-0.8C25,8.3,24.9,8.6,24.7,8.6 M33.9,9.6c0.4,0,0.5-0.2,0.7-0.3c0-0.5-0.2-0.6-0.5-0.7C34,8.8,34,9.2,33.9,9.6
		 M38.7,8.9c0.1,0.5,0.1,1,0.2,1.4c0.7,0.1,2.2-0.1,1.7-1.2c-0.2,0.1-0.3,0.2-0.5,0.3c0-0.2,0-0.5-0.1-0.5c-0.4,0-0.2,0.5-0.5,0.4
		c-0.2-0.2-0.1-0.6-0.4-0.7C39,8.6,39,9.2,38.7,8.9 M30.3,9.3c0.2,0,0.2,0.2,0.5,0.1c0.1-0.2,0.2-0.5,0-0.6
		C30.5,8.7,30.2,8.9,30.3,9.3 M29,9.3c0.7,0.2,0.7-0.6,0.1-0.5C29,8.9,29.1,9.2,29,9.3 M25.4,9.3c0,0.3,0.5,0.5,0.6,0.3
		c-0.1-0.3-0.1-0.6-0.3-0.8C25.7,9.1,25.5,9.1,25.4,9.3 M27.1,9.6c0.1,0.1,0.5,0.2,0.5-0.1C27.6,9.4,27.3,9.5,27.1,9.6 M26.3,10.5
		c-0.4-0.2-0.6-0.4-1-0.5c-0.2,0.7,0.6,1.1,1.5,0.9c0.6-1.3,2.2,0.2,2.8-1c0.5,0.2,1.7,0.8,2.4,0.2c0.2,0,0.3,0.2,0.5,0.1
		c0.5,1.4,2.2,0.6,2.2-0.6c-0.6,0.2-0.5,1.1-1.5,0.9c-0.3-0.2-0.3-0.5-0.6-0.5c-0.8-0.1-1.3,0.5-1.9,0.3c-0.4-0.1-0.5-0.8-1.1-0.5
		C29,10.8,27.2,9.4,26.3,10.5 M30.6,11c-0.4,0.1-1.4,0.2-1.6-0.1c-0.2-0.2,0.4-0.4,0-0.4c-0.5,0.2-0.8-0.2-1.2-0.2
		c-0.2,0.4-0.7,0-0.7,0.5c0.5,0.1,0.4-0.2,0.8-0.2c0,0.2,0.2,0.2,0.2,0.4c-0.2,0.3-0.6,0.4-1,0.2C27,11,27,11,27.1,10.8
		c-0.3,0.3-0.8,0.4-1.4,0.3c-0.1,0.5,0.5,0.5,0.8,0.5c0.6,0,1.6-0.2,2.4-0.2c0.8,0,1.7-0.1,2.4-0.1c0.9,0,2.3,0.5,2.6-0.2
		c-0.7,0.1-1-0.2-1.4-0.5c0.1,0.2,0.1,0.2,0,0.5c-0.3,0.2-0.8,0.2-1-0.2c0-0.2-0.1-0.5,0.2-0.5c0.5-0.1,0.4,0.2,0.8,0.2
		c-0.4-0.8-1.2,0-1.8-0.1s-1.1-0.8-1.5-0.1C29.9,10.8,30.6,10,30.6,11 M30.3,11.9c-0.2,0-0.2-0.2-0.5-0.1c0-0.1,0-0.1-0.1-0.1
		c-1.1,0.5-3.7-0.5-4.1,0.5c1.1,0.4,2.8,0.2,3.9,0.1c1.3,0.2,3.3,0.3,4.5-0.2C33.8,11.4,31.1,11.8,30.3,11.9 M27.7,12.8
		c-0.1,1.2,1.3,1.5,2.1,1.1c-0.2-0.5-0.4-0.9-0.8-1.2C28.4,12.9,28.1,12.6,27.7,12.8 M33.6,14c-0.1-0.5-0.4-0.8-0.6-1.2
		c-0.6,0.1-1.1-0.1-1.6-0.1C31.4,14,32.6,14.1,33.6,14 M24.6,13.3c0.1,0.1,0.2,0.1,0.2,0.2c0.2-0.2,0.9-0.2,0.8,0.3
		c-0.4-0.4-0.5,0-1,0c0.2,0.5,0.8,0.3,1.4,0.3c-0.1-0.5-0.3-0.9-0.5-1.3C25,12.8,24.7,12.9,24.6,13.3 M27,13.8
		c0-0.5-0.2-0.8-0.5-0.8C26.5,13.3,26.7,13.6,27,13.8 M34.6,13.9c-0.1-0.5-0.2-0.9-0.6-1.1C34,13.4,34.1,13.8,34.6,13.9"/>
	<path class="st0" d="M46.4,8.1c0.5-0.5,0.5-1.4,1.3-1.7c0.8,0.8,0.2,1.9,0.1,2.9c0,0.4,0,0.8,0,1.3c-0.1,1.1-0.5,1.9-0.5,3
		c0.1,1.2,0.6,2.3,0.5,3.5c-0.1,0.5-0.2,1-0.2,1.4c0.1,0.8,0.6,1.8,0.9,2.8c0.3,1,0.6,2,0.8,2.8c0.4,1.1,1.1,2,1.2,3.6
		c0.1,1.8-0.2,4-0.2,6.1c0,1.7-0.1,4.7,0.7,5.7c1.4,1.7,5.4,0.6,7.5,1.5c0.2,0.4,0.4,0.6,0.4,1.1c-2,0.7-4.3,0.6-6.6,0.8
		c-1.1,0.1-2.1,0.4-3.2,0.5c-1.7,0.2-3.5,0-5.3,0.2c-2.6,0.2-6,0.5-8.8,0.3c-0.8-0.1-1.5,0.2-2.2,0.1c-1.3-0.1-2.5-0.4-3.7-0.2
		c-2.5,0.3-5.6,0.5-8.4,0.3c-1.9-0.1-3.8,0-5.6-0.2c-1.1-0.1-2-0.2-3.4-0.3c-2-0.2-4.1-1-6.4-0.8c-1.6,0.2-3.5,0.3-5-0.4
		c0.2-1.6,2.9-1.2,4.7-1.4C7,41,8.2,40.6,9,39.7c0.5-3.1,0.6-6.3,0.3-9.1c-0.2-2.3,0.2-4.2,0.8-5.8c0.2-0.7,0.3-1.5,0.5-2
		c0.2-0.6,0.6-1.1,0.8-1.7c0.1-0.4,0.1-0.8,0.2-1.1c0.2-0.4,0.5-0.8,0.5-1.2c0.2-0.8-0.2-1.8-0.1-2.8c0.1-0.8,0.4-1.7,0.3-2.3
		c-0.1-1.1-0.4-2.3-0.5-3.4c0-0.4,0.1-0.7,0-1.1c0.1-0.8-0.6-1.7,0.1-2.6c0.9,0.2,1.1,0.9,1.4,1.6c0.8-0.2,0.7-1.3,1.3-1.7
		c0.8,0.5,0.5,2-0.2,2.3C14.6,9,15.2,9,15.5,9.3c0.2,0.2,0.2,0.5,0.1,0.7c0.4,0.5,1.2,0.7,0.8,1.6c-0.3,0.3-0.8,0.3-1.3,0.5
		c0,1.4,0.8,2,1.5,2.8c0.5-1.1,2-1.6,3.3-2.2c0.9-0.4,2-1.1,2.8-0.5c-0.4,0.7-1.3,1.1-2.2,1.7c-1.1,0.7-2.7,1.2-1.9,2.9
		c1.1,0.2,1.6-0.8,2.2-1.4c0.7-0.2,1.4,0.2,1.8,0.7c5.1,0,9.8,0,14.8,0c0.3-0.3,0.6-0.5,1-0.7c1,0.1,1.7,0.3,2,1.2
		c0.4-0.1,0.5,0.1,0.8,0.1c1.4-2.5-3.2-3-4.1-4.3c0.4-0.8,1.7-0.2,2.7,0.2c1.5,0.6,2.9,1.2,3.4,2.6c0.8-0.7,1.7-1.7,1.7-2.9
		c-0.5-0.5-1.4-0.2-1.6-0.7c-0.4-0.8,1.4-0.8,1-2C44.7,9.3,45,9.1,45.3,9c-0.2-0.8-0.6-2.2,0.2-2.6C45.9,6.6,45.8,7.7,46.4,8.1
		 M45.5,7.1c0-0.2-0.1-0.5-0.2-0.5C45.2,6.8,45.3,7,45.5,7.1 M11.9,8c0.3,0,0.2-0.5,0.5-0.5c0.2,0.3,0.2,0.8,0.5,0.8
		c-0.2-0.7-0.3-1.4-1-1.6C11.8,7.1,11.6,7.7,11.9,8 M13.8,8.3c0.3-0.4,0.5-0.8,0.6-1.4c0-0.1-0.1-0.1-0.2-0.1
		C14.2,7.4,13.8,7.7,13.8,8.3 M46.7,8.4h0.4C47.1,8.2,47,8,47.2,8c0.4-0.1,0.4,0.3,0.5,0.1c0.1-0.5,0.1-0.8-0.1-1.2
		C46.9,7,47.1,8,46.7,8.4 M45.9,8.1C46,8,45.8,7.5,45.6,7.5C45.6,7.7,45.7,8,45.9,8.1 M45.5,8.6c0-0.2-0.1-0.3-0.2-0.4
		C45.3,8.4,45.3,8.6,45.5,8.6 M47.5,9.6c-0.1-0.2,0.2-0.5-0.2-0.5C47.2,9.3,47.5,9.4,47.5,9.6 M12.2,9.8c0.1-0.1,0.4-0.5,0-0.5
		C12.2,9.3,12,9.6,12.2,9.8 M44.7,10.5c-0.1-0.2,0.2-0.3,0-0.4c-0.2,0.3-0.8,0.2-0.8,0.6c0.2,0.2,0.6,0,0.5,0.5
		c-0.2,0.1-0.5-0.1-0.5,0.1c0.5,0.1,0.9,0.5,1.4,0.2c0-0.3-0.2-0.5-0.2-0.8c0.4-0.2,0.8-0.3,1.2-0.4c0.2-0.2-0.2-0.2-0.1-0.5
		c0.2,0,0.2,0.1,0.3,0.1C45.8,8.9,45.7,10.8,44.7,10.5 M13.7,10.2c-0.3,0-0.2-0.3-0.4-0.3C13.2,10.2,13.6,10.3,13.7,10.2 M15.4,10.7
		c-0.2,0-0.3-0.3-0.5-0.3c0,0.5,0.2,0.9,0.5,1.1c0.1-0.3,0.4-0.5,0.5-0.8c-0.1-0.2-0.3-0.5-0.5-0.3C15.4,10.4,15.5,10.7,15.4,10.7
		 M45.2,11.9c0.2,2.3-2.3,2.9-2.3,4.7c-0.1,0.7,0.2,1.4,0.3,2.2c0.5-0.1,0.8-0.2,1.2-0.3c0.2-0.3,0.2-0.8,0.3-1.1
		c0.2,0,0.4,0,0.5-0.1c0.5-1.5,0.3-3.4,0.7-4.6c-0.2,0-0.4,0.3-0.5,0c0.2-0.5,1-1.4,0.2-1.6C45.7,11.7,45.3,11.7,45.2,11.9
		 M14.7,11.7h0.5c-0.1-0.2-0.2-0.3-0.5-0.3V11.7z M13.1,12c0.2-0.1,0.5,0.1,0.5-0.3c-0.3,0.2-0.3,0-0.5-0.1
		C13.1,11.7,13.2,11.7,13.1,12 M14.6,15.5c-0.2-0.3-0.2-0.7-0.6-0.8c0.1,0.8,0.5,1.3,0.6,2c-0.6-0.2-0.2,1.2-1.2,1
		c-0.5,1.7,2,1.1,3.1,1.7c0,0.2-0.2,0.1-0.2,0.2c1.1-0.1,2.6,0.2,3.5,0.3c-0.4-0.3,0.4-0.5,0.2-0.6c-0.3-0.1-0.4,0.2-0.7,0.1
		c0-0.2-0.2-0.3-0.1-0.6c-1.3,0.7-3.4,0.1-4.8-0.5c0.1-0.2-0.1-0.5,0.1-0.5c0.2,0.4,0.5,0.6,1.1,0.6c0.2-0.2,0-0.5,0.2-0.6
		c0.5,0.2,0.6,0.8,1.1,1c0.7-3.2-1.6-4.2-2.3-6.3C14.5,13.5,14.8,14.4,14.6,15.5 M41.9,16.2c0.5-0.6,0.2-2-0.5-2
		C42,14.6,42.1,15.7,41.9,16.2 M18.2,17.1c-0.6-0.8-0.2-2.3,0.1-2.8C17.5,14.7,17.5,16.6,18.2,17.1 M38,16.6
		c-2.1-0.3-5.1-0.2-8.1-0.2c-2.6,0-5.3-0.2-7.4,0c-0.8,0.1-1.4,0.6-2.1,0.2c-0.3,0.5-0.1,1.5-0.2,2.3c0.2,0.1,0.4,0.2,0.5,0.3
		c0,0.6-0.1,0.9,0,1.5c-0.3,0.1-0.4,0.3-0.5,0.5c-0.3,3.8-0.2,8,1.4,10.4c0.7-0.5,1.4-0.9,2.4-1.1c0.4-1.8,1.2-3.4,1.7-5.1
		c0.5-1.7,1.5-3.3,1.4-5.2c-0.9,0.1-1.9,0.1-2.6,0.1c0.7-0.4,1.2-1.4,1.9-1.8c1-0.5,1.7,0.3,1.8,1.1c0.7,3.1-2.8,7.6-1.8,10.8
		c2-0.3,2.4-2.2,3.7-3.2c0.4-0.3,0.8-0.5,1.4-0.7c0.2-0.2,0.2-0.4,0.5-0.4c0.3,0,0.2,0.4,0.5,0.3c0.4,0,0.3-0.5,0.6-0.5
		c0.4,0.3,0.4,0.5,1,0.3c0.2,0.2,0.2,0.5,0.3,0.8c0.6-0.2,0.5,0.5,0.9,0.8c1.2-0.2,1.5,1,2.7,1c0.4,0.9-0.7,1-0.5,2
		c0.5,0.3,1,0.5,1.4,0.9c1-2.9,1.1-6.9,1.2-10.4c-0.6-0.4-0.8-1.6-0.5-2.3c0.2,0,0.4,0,0.5-0.1C40.2,17.1,39.3,16.1,38,16.6
		 M45.5,18.4c-1,0.6-3.2,1-4.3,0.6c0.1,0,0.2,0.1,0.2,0.2c-0.1,0.2-0.5,0-0.5,0.2c0.2,0,0.4,0,0.4,0.2c-0.1,0.2-0.5,0.3-0.3,0.5
		c1.9-0.5,4.4,0,6.2-0.5c0.1-0.4,0.3-1.1,0.1-1.6c0.2,1.2-1.2,1.4-2.3,1.1c1.5,0.1,1.4-1.9,0.7-2.7C45.6,17.1,45.6,17.8,45.5,18.4
		 M18.9,17.2c0.2,0.3,0.8-0.1,0.8-0.5C19.5,16.9,19.1,16.9,18.9,17.2 M40.4,17.1c0.2,0,0.7,0.2,0.6-0.1c-0.2-0.2-0.3-0.2-0.6-0.2
		V17.1z M42.3,17.8h0.4c0-0.3,0.1-0.7-0.2-0.8C42.4,17.4,42.2,17.5,42.3,17.8 M17.3,18.2c0.3,0,0.5-0.1,0.5-0.3
		c-0.2-0.1-0.2-0.5-0.5-0.5V18.2z M19.2,17.7c0,0.4,0.1,0.6,0.5,0.6c0.1-0.2,0.2-0.6,0-0.8C19.4,17.5,19.5,17.8,19.2,17.7
		 M40.5,18.5c0.2-0.3,0.3-0.5,0.3-1h-0.5C40.4,17.8,40.2,18.4,40.5,18.5 M41.7,18.8c0.4,0.2,0.7,0.2,1.1,0
		C42.9,18,41.4,17.8,41.7,18.8 M17.5,18.8c0.2,0,0.6,0.1,0.6-0.2c-0.1,0-0.1-0.1-0.1-0.2C17.7,18.4,17.6,18.6,17.5,18.8 M26.5,19.3
		V19h-0.4C26.1,19.3,26.3,19.3,26.5,19.3 M13,19.6c0.9-0.1,2.2,0.2,2.9-0.2c-0.9-0.5-2,0.4-2.9-0.3V19.6z M15.7,27.4
		c0.6,2.3-0.5,4.4-0.6,6.8c-0.2,1.8,0.1,3.5,0.1,5c0.6,0.1,1.6-0.2,2,0.2c-0.2,0.2-1.2,0-1.2,0.2c1.6,0.1,3,0.3,4.6,0.2
		c-0.5-0.6-1.6-0.7-2.6-0.8c-0.7-0.1-1.4-0.1-2-0.2c-0.6-1.1-0.1-2.9,0.1-4.5c0.1-0.9,0-2,0.2-2.8c0.2-0.8,0.7-1.3,0.8-1.9
		c0.3-1.4,0.1-3.2-0.4-4.1c-0.3-0.2-0.2,0.4-0.4,0.1c0-0.6,0.1-1.4,0.2-2c0.2-1.3,0.8-2.8,0-3.5c-0.6,1.2-0.4,2.9-1.7,3.5
		c-0.2,0.8,0.9,1.1,0.2,1.7c-0.6,0-1.3-0.8-1.8-0.3C14.5,25,15.3,26.1,15.7,27.4 M17.1,20.1c0,1.5-0.2,3.4-0.3,5.1
		c0.6,1.1,0.9,2.2,0.8,3.4c-0.2,1.4-1.1,2.7-1.3,4.1c-0.2,2-0.1,3.7-0.2,5.6c1,0.3,2,0.5,3.1,0.5c0.6,0.1,1.2-0.1,1.7,0
		c0.6,0.1,1.1,0.5,1.7,0.6c1.2,0.2,2.3-0.2,3.5,0.2c0.6,0.9,1.7,1.2,2.3,2.1c-1.8-0.6-3.5-1.3-5.3-2c-0.3,0-0.5,0.4-0.9,0.4
		c-0.2,0-0.5-0.2-0.7-0.2c-2-0.2-5-0.1-7.2-0.2c1.7,1.2,5.9-0.5,6.6,1.7c-0.5,0.4-1.4,0.1-2.1,0c-1.7-0.1-3.7-0.2-5,0
		c-2.1-0.5-4.1,0.3-6.2,0.5c-2.2,0.2-4.4,0.1-6.5,0c0.5,0.8,1.9,0.5,3,0.5c0.9-0.1,1.9-0.3,2.7-0.1C7.1,42.3,7,42,7.2,42
		c0.6,0.5,1.7,0,2.5,0.1c0.2,0,0.4,0.2,0.6,0.2c0.8,0.1,1.6-0.1,2.3,0c0.7,0.1,1.3,0.2,1.9,0.2c1.7,0,3.4-0.2,4.8,0.2
		c0.2,0-0.1-0.5,0.3-0.3c0.6,0,1,0.2,1.5,0.2c0.5-0.5,1.4-0.1,2.2-0.1c1.5,0,3.5-0.4,4.8-0.2c0.5,0.1,0.9,0.5,1.5,0.5
		c0.8,0.2,1.7-0.2,2.6-0.2c0.2,0,0.3,0.1,0.5,0.1c0.6-0.1,1.1-0.3,1.7-0.3c0.1,0.2-0.2,0.2-0.2,0.4c0.8,0,1.4-0.5,2.3-0.6
		c1.1-0.2,2.2,0.3,3.3,0.3c0.8,0,2-0.2,2.8-0.3c1-0.1,1.8,0.2,2.6,0c0.8,0.5,1.6-0.2,2.4-0.2c0.3-0.1,0.1,0.5,0.5,0.3
		c0.6-0.1,1.2-0.2,1.8-0.3c0.6,0.5,1.7,0.2,2.3-0.1c0.9,0.4,2.1,0,3.2,0c1.1,0,2.1,0.2,2.9-0.3c-2,0-3.7,0.1-5.6,0
		c-1.7-0.1-3.4-0.7-5.1-0.6c-0.6,0-1.4,0.2-2,0.2c-2,0.1-3.3,0.2-5,0.4c-0.6-0.4-1.4,0.2-1.7-0.4c0.8-2,4.7-0.5,6.6-1.5
		c-0.4-0.4-1.5-0.2-2.2-0.2c-1.8,0.2-4.2,0.7-5.7,0.1c0.2-0.3,0.5-0.6,0.8-0.7c1.5-0.6,3.7-0.2,5.4-0.6c0.5-0.6,0.3-1,0.2-1.8
		c-0.2-1.6-0.1-3.5-0.5-4.8c-0.2-0.6-0.5-1.1-0.7-1.6c-0.5-1.4-0.6-2.8-0.1-4.2c0.2-0.5,0.6-0.8,0.6-1.4c0-0.5-0.3-1.1-0.3-1.7
		c-0.1-1,0.1-2-0.3-2.8c-0.8-0.4-1.7,0.2-2.3,0.4c-0.4,6.3-0.5,11.1-3.5,15.4c-0.8,1.2-1.9,2.2-3.2,3.4c-0.6,0.6-2.9,2.6-3.8,2.7
		c-0.9,0-2.9-1.9-3.6-2.6c-4.4-4.3-7.8-9.8-6.8-18.7C18.9,20.4,18.3,19.9,17.1,20.1 M43.4,20.2c0,2,0.4,3.5,0.8,5.1
		c-0.2-0.2-0.2-0.2-0.5-0.1c-0.6,1.1-1,2.5-0.6,4c0.2,0.8,0.7,1.4,0.9,2.3c0.4,1.4,0.5,3.5,0.5,4.9c0.1,0.6,0.2,1.2,0.2,1.7
		c-0.3,1.4-4,0.6-5,1.4c-0.1,0.7,0.7,0.3,1.1,0.3c0.6,0,1.4-0.1,1.7-0.2c0.5-0.5,1.7-0.2,2.3-0.5c0.5-2-0.2-4.5-0.2-6.4
		c0.2,0,0,0.4,0.3,0.2c-1.1-2.7-1.1-6.3,1-8.1c0-0.8,0.5-1.1,0.4-1.9c-0.3-0.2-0.4,0.3-0.8,0.2c-0.5-0.5,0-1.6,0.1-2.2
		C45,20.5,44.6,19.9,43.4,20.2 M45.6,36.1c0.2,1.4,0.2,3,0.2,4.1c-1.1,0.5-3.2,0.1-4.6,0.5c0,0.4,0.2,0.5,0.2,0.7
		c1.5-0.4,3.6-0.2,5.1-0.6c0.1-0.8-0.2-1.7,0.2-2.3c0.1,0.9,0.5,2,0,2.7c0.5,0.1,0.7-0.2,1-0.3c-0.2-0.4-0.2-1.1-0.3-1.3
		c0.1,0.8-0.2,1-0.3,0.2c-0.1-1.1-0.2-1.5-0.3-2.5c-0.1-0.5-0.1-1.1-0.2-1.7c-0.2-1.2-1.1-1.7-0.7-2.9c0.5-0.1,0.4,0.3,0.6,0.4
		c0.1-0.5,0.4-0.8,0.6-1.2c-0.3-0.4-0.2-1.3-1.1-1.2c-0.2,0.3,0.2,0.4,0.2,0.8c-0.2,0.1-0.2-0.2-0.4-0.2c0.1,0.3,0.5,0.8,0.1,1.1
		c-0.8-1.1-1.3-2.3-1.3-4.1c0.2,0,0.5,0.1,0.4-0.2c0.1-1.1,0.5-1.9,1.2-2.4c0-0.1,0-0.2-0.2-0.2C43,27.8,45.2,32,45.6,36.1
		 M14.8,29.7c0.1,0.2,0.2-0.2,0.3,0.1c-0.1,1.3-0.7,2-0.5,3.4c-1.1,1.7-1.3,4.2-1.4,6.8c0.1,0.3,0.4,0.7,0.1,0.8
		c-0.5-0.2-0.1-1.3-0.3-1.7c-0.2,0.2,0,0.5-0.2,0.6c-0.1-0.5,0.2-1.1,0-1.4c0,1-0.8,2.3-0.2,2.9c1.8-0.5,4.1-0.1,6.2-0.2
		c-0.5-0.8-2.1-0.4-3.2-0.5c-0.8-0.1-1.4-0.5-1.8-0.5c-0.4-0.5,0.5-0.8,0.5-1.2c0.1-0.3,0-0.8,0-1.1c0.1-1.4,0.3-3,0.5-4.4
		c0.2-1.2,0.7-2.5,0.8-3.7c0.2-1.7-0.5-3.2-1.6-4C14.9,26.3,15.4,28.2,14.8,29.7 M33.5,27.2c0.1-0.2,0.5-0.4,0.2-0.5
		C33.5,26.9,33.2,27.1,33.5,27.2 M31.6,27.3c-1.5,0.2-2.3,1.9-3.3,2.7c0.9-0.3,1.2-1.5,2.2-1.4c-0.2-0.5,0.2-0.5,0.6-0.5
		c0-0.2-0.2-0.4,0.1-0.4c0.4-0.1,0.4,0.2,0.6,0.2c0-0.5,0.4-0.5,0.7-0.3c-0.1-0.4,0.3-0.2,0.5-0.4c-0.1,0.2,0.2,0.2,0.2,0.3
		c0-0.2-0.2-0.3-0.1-0.6C32.6,27.2,32.2,27.2,31.6,27.3 M33.7,28.2c0.3,0.1,0.3-0.4,0.1-0.4C33.8,27.9,33.5,28,33.7,28.2 M33.2,28.3
		v-0.4h-0.2C33,28.1,32.9,28.4,33.2,28.3 M32.4,28.5c0.1-0.2,0.1-0.3-0.2-0.4C32.2,28.3,32.2,28.6,32.4,28.5 M36.4,29.1
		c0-0.2,0.2-0.5-0.1-0.5C36.3,28.7,36.2,29,36.4,29.1 M30.3,29.8c-0.1-0.2,0-0.5-0.3-0.5C30,29.6,30.1,29.7,30.3,29.8 M33,30.1
		c-0.4,0.1-0.9,0.8-1.6,0.4c0.5,0.6,1.5-0.1,2.2,0.2c0-0.6,1.3,0.1,1.4-0.5C34.2,30.3,33.5,30,33,30.1 M34.6,30.9
		c0.2,0.2,0.3,0.5,0.5,0.5c0.2,0,0.3-0.2,0.3-0.3C35.3,30.8,34.8,30.6,34.6,30.9 M27.7,31.5c-1.1,0.1-2.1-0.5-3.4-0.3
		c2,1.3,4.8-0.1,7.1,0.2C30.2,30.7,29,31.5,27.7,31.5 M37.7,31.3c-0.3,0-0.7-0.3-1-0.1C37,31.2,37.5,31.5,37.7,31.3 M33.3,31.8
		c0.9,0.5,2.6-0.2,3.4-0.5C35.5,31.4,34.7,31.8,33.3,31.8 M12.8,32.5c0.2-0.1,0.4-0.2,0.4-0.5c-0.6,0.2-0.5-0.5-1.1-0.3
		C12.3,32.1,12.6,32.3,12.8,32.5 M49.2,39.6c1.1,2.3,4.4,2.1,7.5,2.2c0.7,0,1.4,0.1,1.8-0.4c-2.5-0.4-5.9,0.2-7.4-0.9
		c-1.7-1.1-1.2-3.8-1.4-5.9c0-0.4-0.1-1-0.5-1.2c0.3,1,0.2,2.4,0.3,3.7c0.1,0.8,0.4,1.4,0.2,2c-0.6-2.3-0.1-5.6-1.6-7
		C49,34,48.8,37.1,49.2,39.6 M47.7,32.4c-0.3,0.2-0.7,0.5-0.7,1c-0.1,1.6,0.5,4.5,0.6,5.9c0.4,0.2,0.8,0.2,1.4,0.2
		C48.4,37.3,48.9,33.9,47.7,32.4C47.8,32.4,47.7,32.4,47.7,32.4z M13.1,32.7c-0.1,0.4,0.2,0.7,0.2,1.2c0,0.5-0.4,0.9-0.1,1.4
		c-0.2-1.1,1.1-1.8,0.5-2.6C13.5,32.7,13.2,32.6,13.1,32.7 M12.7,34c0.4-0.4,0-1.1-0.2-1.4h-0.2c-1.2,1.6-0.8,4.8-1.4,6.9
		c0.4,0.2,0.9,0,1.3-0.1C12.4,37.9,13.2,35.7,12.7,34 M10.5,37.9c0-1.8,0.5-3.2,0.5-4.9c-1.1,1.7-0.2,5.1-1.2,6.9
		c-1.1,2.2-5,1.1-7.6,1.9c2.6,0.2,5,0,7.2-0.5c1.7-1.2,1.5-4.8,2-7.1c0.1-0.3,0.3-0.8,0.1-0.8C10.9,34.6,11,36.5,10.5,37.9
		 M33.8,33.6c-1,0.2-1.8-0.2-3.1-0.3c-1.4-0.2-2.8,0.5-4.1,0.5c-1.4-0.1-2.8-0.9-4.1-0.1c0.2,0.8,0.6,1.1,1,1.7
		c1.4-0.7,2.6,0.4,4.1,0.2c0.5-0.1,1.1-0.4,1.7-0.5c1.5-0.2,3,0.5,4.3,0.3c1.4-0.2,2.5-0.6,3.4,0.2c0.3-0.5,0.8-0.8,0.8-1.6
		C36.6,33,35,33.4,33.8,33.6 M47.3,39.2c-0.2-2-0.4-3.8-0.7-5.7c0-0.1-0.1-0.1-0.2-0.1C46.8,35.3,46.8,37.6,47.3,39.2 M47.8,40.5
		c0.6,0.1,1.1,0.2,1.7,0.2c0-0.4-0.3-0.5-0.4-0.8h-1.5C47.6,40.2,47.8,40.3,47.8,40.5 M10.3,40.8c0.6,0,1.1-0.2,1.7-0.2v-0.5
		C11.2,40.1,10.4,40.1,10.3,40.8 M19.6,41.3c-0.3,0.1-0.6-0.2-0.8,0C19.2,41.3,19.5,41.6,19.6,41.3"/>
	<path class="st0" d="M9.3,48v-0.6h1.6v1.4c-0.2,0.2-0.4,0.3-0.7,0.4c-0.3,0.1-0.6,0.2-0.9,0.2c-0.4,0-0.7-0.1-1-0.2
		C8,49,7.8,48.8,7.7,48.5c-0.2-0.3-0.2-0.6-0.2-1c0-0.4,0.1-0.7,0.2-1c0.2-0.3,0.4-0.5,0.7-0.7c0.2-0.2,0.5-0.2,0.9-0.2
		c0.5,0,0.8,0.1,1.1,0.3c0.2,0.2,0.5,0.5,0.5,0.8l-0.8,0.2c-0.1-0.2-0.2-0.3-0.3-0.5c-0.2-0.1-0.3-0.2-0.5-0.2
		c-0.3,0-0.6,0.1-0.8,0.3c-0.2,0.2-0.3,0.5-0.3,0.9c0,0.5,0.1,0.8,0.3,1c0.2,0.2,0.5,0.3,0.8,0.3c0.2,0,0.3,0,0.5-0.1
		c0.2-0.1,0.3-0.2,0.4-0.2V48C10.1,48,9.3,48,9.3,48z"/>
	<path class="st0" d="M11.4,47.6c0-0.4,0.1-0.7,0.2-0.9c0.1-0.2,0.2-0.4,0.3-0.5c0.2-0.2,0.3-0.2,0.5-0.3c0.2-0.1,0.5-0.2,0.8-0.2
		c0.5,0,1,0.2,1.3,0.5c0.3,0.3,0.5,0.8,0.5,1.4c0,0.6-0.2,1.1-0.5,1.4c-0.3,0.3-0.8,0.5-1.3,0.5c-0.5,0-1-0.2-1.3-0.5
		C11.6,48.6,11.4,48.2,11.4,47.6 M12.2,47.6c0,0.4,0.1,0.8,0.3,0.9c0.2,0.2,0.5,0.3,0.8,0.3s0.5-0.1,0.8-0.3c0.2-0.2,0.3-0.5,0.3-1
		c0-0.5-0.1-0.8-0.3-0.9c-0.2-0.2-0.5-0.3-0.8-0.3s-0.5,0.1-0.8,0.3C12.2,46.8,12.2,47.1,12.2,47.6"/>
	<polygon class="st0" points="16.5,49.4 15.1,45.8 15.9,45.8 16.8,48.5 17.7,45.8 18.5,45.8 17.2,49.4 	"/>
	<polygon class="st0" points="18.9,49.4 18.9,45.8 21.6,45.8 21.6,46.4 19.6,46.4 19.6,47.2 21.4,47.2 21.4,47.8 19.6,47.8 
		19.6,48.8 21.6,48.8 21.6,49.4 	"/>
	<path class="st0" d="M22.2,49.4v-3.6h1.6c0.4,0,0.7,0,0.8,0.1c0.2,0.1,0.3,0.2,0.5,0.4c0.1,0.2,0.2,0.4,0.2,0.6
		c0,0.3-0.1,0.5-0.2,0.7c-0.2,0.2-0.4,0.3-0.8,0.3c0.2,0.1,0.3,0.2,0.4,0.3c0.1,0.1,0.2,0.3,0.5,0.6l0.5,0.7h-0.9l-0.5-0.8
		c-0.2-0.3-0.3-0.5-0.4-0.5c-0.1-0.1-0.2-0.2-0.2-0.2c-0.1,0-0.2-0.1-0.4-0.1H23v1.5L22.2,49.4L22.2,49.4z M23,47.3h0.5
		c0.4,0,0.6,0,0.7-0.1c0.1,0,0.2-0.1,0.2-0.2c0.1-0.1,0.1-0.2,0.1-0.3c0-0.2,0-0.2-0.1-0.3c-0.1-0.1-0.2-0.2-0.3-0.2
		c-0.1,0-0.2,0-0.5,0H23V47.3z"/>
	<polygon class="st0" points="25.9,49.4 25.9,45.8 26.7,45.8 28.1,48.2 28.1,45.8 28.8,45.8 28.8,49.4 28.1,49.4 26.6,47 26.6,49.4 
			"/>
	<polygon class="st0" points="29.6,49.4 29.6,45.8 30.7,45.8 31.4,48.3 32,45.8 33.1,45.8 33.1,49.4 32.4,49.4 32.4,46.5 31.7,49.4 
		31,49.4 30.3,46.5 30.3,49.4 	"/>
	<polygon class="st0" points="33.8,49.4 33.8,45.8 36.6,45.8 36.6,46.4 34.6,46.4 34.6,47.2 36.4,47.2 36.4,47.8 34.6,47.8 
		34.6,48.8 36.6,48.8 36.6,49.4 	"/>
	<polygon class="st0" points="37.2,49.4 37.2,45.8 38,45.8 39.4,48.2 39.4,45.8 40.1,45.8 40.1,49.4 39.4,49.4 37.9,47 37.9,49.4 	
		"/>
	<polygon class="st0" points="41.7,49.4 41.7,46.4 40.6,46.4 40.6,45.8 43.6,45.8 43.6,46.4 42.4,46.4 42.4,49.4 	"/>
	<path class="st0" d="M45.3,47.6c0-0.4,0.1-0.7,0.2-0.9c0.1-0.2,0.2-0.4,0.3-0.5c0.2-0.2,0.3-0.2,0.5-0.3c0.2-0.1,0.5-0.2,0.8-0.2
		c0.5,0,1,0.2,1.3,0.5c0.3,0.3,0.5,0.8,0.5,1.4c0,0.6-0.2,1.1-0.5,1.4s-0.8,0.5-1.3,0.5s-1-0.2-1.3-0.5
		C45.4,48.6,45.3,48.2,45.3,47.6 M46,47.6c0,0.4,0.1,0.8,0.3,0.9c0.2,0.2,0.5,0.3,0.8,0.3s0.5-0.1,0.8-0.3c0.2-0.2,0.3-0.5,0.3-1
		c0-0.5-0.1-0.8-0.3-0.9c-0.2-0.2-0.5-0.3-0.8-0.3s-0.5,0.1-0.8,0.3C46.1,46.8,46,47.1,46,47.6"/>
	<polygon class="st0" points="49.4,49.4 49.4,45.8 51.8,45.8 51.8,46.4 50.1,46.4 50.1,47.2 51.6,47.2 51.6,47.9 50.1,47.9 
		50.1,49.4 	"/>
	<polygon class="st0" points="2.7,55.5 1.8,51.9 2.5,51.9 3.1,54.4 3.7,51.9 4.6,51.9 5.3,54.4 5.8,51.9 6.6,51.9 5.7,55.5 
		4.9,55.5 4.2,52.8 3.4,55.5 	"/>
	<polygon class="st0" points="7,55.5 7,51.9 9.7,51.9 9.7,52.5 7.6,52.5 7.6,53.3 9.5,53.3 9.5,53.9 7.6,53.9 7.6,54.9 9.7,54.9 
		9.7,55.5 	"/>
	<path class="st0" d="M10.1,54.3l0.7-0.1c0.1,0.2,0.2,0.5,0.2,0.5c0.2,0.1,0.3,0.2,0.5,0.2c0.2,0,0.5-0.1,0.5-0.2
		c0.2-0.1,0.2-0.2,0.2-0.4c0-0.1,0-0.2-0.1-0.2c-0.1-0.1-0.2-0.1-0.3-0.2c-0.1,0-0.3-0.1-0.6-0.2c-0.4-0.1-0.7-0.2-0.8-0.4
		c-0.2-0.2-0.3-0.5-0.3-0.8c0-0.2,0.1-0.4,0.2-0.5s0.2-0.3,0.5-0.4c0.2-0.1,0.5-0.2,0.7-0.2c0.5,0,0.8,0.1,1.1,0.3
		c0.2,0.2,0.4,0.5,0.4,0.8h-0.8c0-0.2-0.1-0.3-0.2-0.4c-0.1-0.1-0.2-0.2-0.5-0.2c-0.2,0-0.4,0.1-0.5,0.2c-0.1,0.1-0.2,0.2-0.2,0.2
		c0,0.1,0,0.2,0.1,0.2c0.1,0.1,0.3,0.2,0.7,0.2c0.4,0.1,0.6,0.2,0.8,0.2c0.2,0.1,0.3,0.2,0.4,0.4c0.1,0.2,0.2,0.4,0.2,0.6
		c0,0.2-0.1,0.4-0.2,0.6c-0.2,0.2-0.3,0.3-0.5,0.4s-0.5,0.2-0.8,0.2c-0.5,0-0.8-0.1-1.1-0.3C10.4,55,10.2,54.7,10.1,54.3"/>
	<polygon class="st0" points="14.6,55.5 14.6,52.5 13.4,52.5 13.4,51.9 16.4,51.9 16.4,52.5 15.2,52.5 15.2,55.5 	"/>
	<polygon class="st0" points="16.8,55.5 16.8,51.9 19.5,51.9 19.5,52.5 17.6,52.5 17.6,53.3 19.4,53.3 19.4,53.9 17.6,53.9 
		17.6,54.9 19.6,54.9 19.6,55.5 	"/>
	<path class="st0" d="M20.2,55.5v-3.6h1.6c0.4,0,0.7,0,0.8,0.1c0.2,0.1,0.3,0.2,0.5,0.4c0.1,0.2,0.2,0.4,0.2,0.6
		c0,0.3-0.1,0.5-0.2,0.7c-0.2,0.2-0.4,0.3-0.8,0.3c0.2,0.1,0.3,0.2,0.4,0.3c0.1,0.1,0.2,0.3,0.5,0.6l0.5,0.7h-0.9l-0.5-0.8
		c-0.2-0.3-0.3-0.5-0.4-0.5c-0.1-0.1-0.2-0.2-0.2-0.2c-0.1,0-0.2-0.1-0.4-0.1H21v1.5H20.2z M21,53.4h0.5c0.4,0,0.6,0,0.7-0.1
		c0.1,0,0.2-0.1,0.2-0.2c0.1-0.1,0.1-0.2,0.1-0.3s0-0.2-0.1-0.3c-0.1-0.1-0.2-0.2-0.3-0.2c-0.1,0-0.2,0-0.5,0H21V53.4z"/>
	<polygon class="st0" points="23.9,55.5 23.9,51.9 24.6,51.9 26.1,54.3 26.1,51.9 26.8,51.9 26.8,55.5 26,55.5 24.6,53.1 24.6,55.5 
			"/>
	<path class="st0" d="M32,55.5h-0.8l-0.3-0.8h-1.4l-0.3,0.8h-0.8l1.4-3.6h0.8L32,55.5z M30.7,54.1l-0.5-1.4l-0.5,1.4H30.7z"/>
	<path class="st0" d="M32.4,51.9h0.8v2c0,0.3,0,0.5,0,0.6c0,0.2,0.1,0.3,0.2,0.4c0.2,0.1,0.3,0.2,0.5,0.2c0.2,0,0.4-0.1,0.5-0.2
		c0.1-0.1,0.2-0.2,0.2-0.3c0-0.2,0-0.3,0-0.6v-2h0.8v1.9c0,0.5,0,0.8-0.1,0.9c-0.1,0.2-0.1,0.3-0.2,0.5c-0.1,0.2-0.2,0.2-0.5,0.3
		c-0.2,0.1-0.4,0.1-0.7,0.1c-0.4,0-0.6-0.1-0.8-0.2s-0.3-0.2-0.5-0.3c-0.1-0.2-0.2-0.2-0.2-0.4c-0.1-0.2-0.1-0.5-0.1-0.9L32.4,51.9
		L32.4,51.9z"/>
	<path class="st0" d="M35.9,54.3l0.7-0.1c0.1,0.2,0.2,0.5,0.2,0.5c0.2,0.1,0.3,0.2,0.5,0.2c0.2,0,0.5-0.1,0.5-0.2
		c0.2-0.1,0.2-0.2,0.2-0.4c0-0.1,0-0.2-0.1-0.2c-0.1-0.1-0.2-0.1-0.2-0.2c-0.1,0-0.3-0.1-0.6-0.2c-0.4-0.1-0.7-0.2-0.8-0.4
		C36,53.2,36,53,36,52.7c0-0.2,0.1-0.4,0.2-0.5s0.2-0.3,0.5-0.4c0.2-0.1,0.5-0.2,0.7-0.2c0.5,0,0.8,0.1,1.1,0.3
		c0.2,0.2,0.4,0.5,0.4,0.8h-0.8c0-0.2-0.1-0.3-0.2-0.4c-0.1-0.1-0.2-0.2-0.5-0.2c-0.2,0-0.4,0.1-0.5,0.2c-0.1,0.1-0.2,0.2-0.2,0.2
		c0,0.1,0,0.2,0.1,0.2c0.1,0.1,0.3,0.2,0.7,0.2c0.4,0.1,0.6,0.2,0.8,0.2c0.2,0.1,0.3,0.2,0.4,0.4c0.1,0.2,0.2,0.4,0.2,0.6
		c0,0.2-0.1,0.4-0.2,0.6c-0.2,0.2-0.3,0.3-0.5,0.4c-0.2,0.1-0.5,0.2-0.8,0.2c-0.5,0-0.8-0.1-1.1-0.3C36.1,55,36,54.7,35.9,54.3"/>
	<polygon class="st0" points="40.3,55.5 40.3,52.5 39.2,52.5 39.2,51.9 42.1,51.9 42.1,52.5 41.1,52.5 41.1,55.5 	"/>
	<path class="st0" d="M42.6,55.5v-3.6h1.6c0.4,0,0.7,0,0.8,0.1s0.3,0.2,0.5,0.4c0.1,0.2,0.2,0.4,0.2,0.6c0,0.3-0.1,0.5-0.2,0.7
		c-0.2,0.2-0.4,0.3-0.8,0.3c0.2,0.1,0.3,0.2,0.4,0.3c0.1,0.1,0.2,0.3,0.5,0.6l0.5,0.7H45l-0.5-0.8c-0.2-0.3-0.3-0.5-0.4-0.5
		c-0.1-0.1-0.2-0.2-0.2-0.2S43.6,54,43.5,54h-0.2v1.5C43.3,55.5,42.6,55.5,42.6,55.5z M43.3,53.4h0.5c0.4,0,0.6,0,0.7-0.1
		c0.1,0,0.2-0.1,0.2-0.2c0.1-0.1,0.1-0.2,0.1-0.3s0-0.2-0.1-0.3c-0.1-0.1-0.2-0.2-0.3-0.2c-0.1,0-0.2,0-0.5,0h-0.6V53.4z"/>
	<path class="st0" d="M49.5,55.5h-0.8l-0.3-0.8h-1.4l-0.3,0.8h-0.8l1.4-3.6h0.8L49.5,55.5z M48.1,54.1l-0.5-1.4l-0.5,1.4H48.1z"/>
	<polygon class="st0" points="50,55.5 50,51.9 50.7,51.9 50.7,54.9 52.5,54.9 52.5,55.5 	"/>
	<rect x="53" y="51.9" class="st0" width="0.8" height="3.6"/>
	<path class="st0" d="M57.7,55.5h-0.8l-0.3-0.8h-1.4l-0.3,0.8h-0.8l1.4-3.6h0.8L57.7,55.5z M56.4,54.1l-0.5-1.4l-0.5,1.4H56.4z"/>
	<path class="st0" d="M62.5,14.2V6.5h2.6c0.6,0,1.1,0,1.4,0.1c0.5,0.1,0.8,0.3,1.1,0.5c0.4,0.4,0.7,0.8,0.9,1.3
		c0.2,0.5,0.3,1.1,0.3,1.8c0,0.6-0.1,1.1-0.2,1.6s-0.3,0.8-0.5,1.1c-0.2,0.3-0.5,0.5-0.7,0.7c-0.2,0.2-0.5,0.3-0.9,0.4
		c-0.4,0.1-0.8,0.2-1.2,0.2L62.5,14.2C62.5,14.1,62.5,14.2,62.5,14.2z M63.5,13.3h1.7c0.5,0,0.9-0.1,1.2-0.2s0.5-0.2,0.7-0.4
		c0.2-0.2,0.5-0.6,0.5-1c0.2-0.4,0.2-0.9,0.2-1.5c0-0.8-0.2-1.4-0.4-1.9c-0.3-0.5-0.6-0.8-1-0.9c-0.3-0.1-0.7-0.2-1.3-0.2h-1.6
		L63.5,13.3L63.5,13.3z"/>
	<path class="st0" d="M74,12.4l1,0.2c-0.2,0.6-0.5,1-0.8,1.4c-0.5,0.3-1,0.5-1.6,0.5c-0.8,0-1.4-0.2-2-0.8c-0.5-0.5-0.8-1.2-0.8-2.1
		c0-0.9,0.2-1.7,0.8-2.2c0.5-0.5,1.1-0.8,1.9-0.8c0.8,0,1.4,0.2,1.8,0.8c0.5,0.5,0.7,1.2,0.7,2.1c0,0.1,0,0.2,0,0.2h-4.1
		c0,0.6,0.2,1.1,0.5,1.4c0.3,0.3,0.7,0.5,1.1,0.5c0.4,0,0.7-0.1,0.9-0.3C73.6,13.1,73.8,12.8,74,12.4 M70.9,10.9H74
		c-0.1-0.5-0.2-0.8-0.4-1.1c-0.3-0.4-0.7-0.5-1.2-0.5c-0.5,0-0.8,0.2-1.1,0.5C71,10,70.9,10.4,70.9,10.9"/>
	<path class="st0" d="M76.1,16.3V8.6h0.8v0.8c0.2-0.3,0.5-0.5,0.7-0.6c0.2-0.2,0.5-0.2,0.9-0.2c0.5,0,0.9,0.2,1.3,0.4
		s0.6,0.6,0.8,1.1c0.2,0.5,0.3,0.9,0.3,1.4c0,0.6-0.1,1.1-0.3,1.5s-0.5,0.8-0.9,1.1c-0.4,0.2-0.8,0.4-1.2,0.4
		c-0.3,0-0.6-0.1-0.8-0.2c-0.2-0.2-0.5-0.3-0.6-0.5v2.7H76.1z M77,11.4c0,0.8,0.2,1.3,0.5,1.6c0.3,0.4,0.7,0.5,1.1,0.5
		c0.5,0,0.8-0.2,1.1-0.5c0.3-0.4,0.5-0.9,0.5-1.7c0-0.7-0.2-1.2-0.5-1.6c-0.3-0.4-0.6-0.5-1.1-0.5c-0.4,0-0.8,0.2-1.1,0.5
		C77.1,10.2,77,10.8,77,11.4"/>
	<path class="st0" d="M85.7,13.5c-0.4,0.3-0.7,0.5-1,0.6c-0.3,0.2-0.7,0.2-1.1,0.2c-0.6,0-1.1-0.2-1.4-0.5c-0.3-0.3-0.5-0.7-0.5-1.1
		c0-0.3,0.1-0.5,0.2-0.8c0.2-0.2,0.3-0.4,0.5-0.5c0.2-0.2,0.5-0.2,0.7-0.3c0.2-0.1,0.5-0.1,0.8-0.2c0.8-0.1,1.4-0.2,1.7-0.3
		c0-0.2,0-0.2,0-0.2c0-0.4-0.1-0.7-0.3-0.8c-0.2-0.2-0.6-0.3-1.1-0.3c-0.5,0-0.8,0.1-1,0.2c-0.2,0.2-0.4,0.5-0.5,0.8l-0.9-0.2
		c0.1-0.4,0.2-0.7,0.4-1C82.4,9,82.6,8.7,83,8.6c0.4-0.2,0.8-0.2,1.3-0.2c0.5,0,0.8,0.1,1.1,0.2s0.5,0.2,0.7,0.5
		c0.2,0.2,0.2,0.4,0.3,0.7c0,0.2,0.1,0.5,0.1,0.9v1.3c0,0.9,0,1.4,0.1,1.7c0.1,0.2,0.2,0.5,0.2,0.7h-1C85.8,14,85.7,13.8,85.7,13.5
		 M85.6,11.4c-0.4,0.2-0.8,0.2-1.5,0.4c-0.4,0.1-0.7,0.2-0.8,0.2s-0.3,0.2-0.4,0.3c-0.1,0.2-0.2,0.3-0.2,0.5c0,0.2,0.1,0.5,0.3,0.6
		c0.2,0.2,0.5,0.2,0.8,0.2s0.7-0.1,1-0.2c0.3-0.2,0.5-0.4,0.6-0.7c0.1-0.2,0.2-0.5,0.2-1C85.6,11.7,85.6,11.4,85.6,11.4z"/>
	<path class="st0" d="M88.1,14.2V8.6h0.8v0.8c0.2-0.4,0.5-0.7,0.6-0.8c0.2-0.2,0.4-0.2,0.6-0.2c0.3,0,0.7,0.1,1,0.3l-0.3,0.9
		c-0.2-0.2-0.5-0.2-0.7-0.2c-0.2,0-0.4,0.1-0.5,0.2c-0.2,0.2-0.3,0.3-0.4,0.5c-0.1,0.3-0.2,0.7-0.2,1.1v2.9
		C89,14.2,88.1,14.2,88.1,14.2z"/>
	<path class="st0" d="M93.7,13.3l0.2,0.8c-0.3,0.1-0.5,0.1-0.7,0.1c-0.4,0-0.6-0.1-0.8-0.2C92.1,14,92,13.8,92,13.6
		c-0.1-0.2-0.2-0.5-0.2-1.1V9.3h-0.7V8.5h0.7V7.1l0.9-0.6v2h1v0.8h-1v3.2c0,0.3,0,0.5,0.1,0.5c0,0.1,0.1,0.2,0.2,0.2
		c0.1,0.1,0.2,0.1,0.3,0.1C93.4,13.4,93.6,13.4,93.7,13.3"/>
	<path class="st0" d="M94.6,14.2V8.6h0.8v0.8c0.2-0.3,0.4-0.5,0.7-0.7c0.3-0.2,0.6-0.2,1-0.2c0.4,0,0.8,0.1,1,0.2
		c0.3,0.2,0.5,0.4,0.5,0.8c0.5-0.7,1-1,1.7-1c0.5,0,1,0.2,1.3,0.5c0.3,0.3,0.5,0.8,0.5,1.4v3.8h-0.9v-3.5c0-0.4,0-0.7-0.1-0.8
		c-0.1-0.2-0.2-0.3-0.3-0.4c-0.2-0.1-0.4-0.2-0.6-0.2c-0.4,0-0.8,0.2-1,0.4c-0.2,0.2-0.4,0.7-0.4,1.3v3.2h-1v-3.6
		c0-0.5-0.1-0.8-0.2-1c-0.2-0.2-0.4-0.3-0.8-0.3c-0.3,0-0.5,0.1-0.8,0.2s-0.4,0.4-0.5,0.6c-0.1,0.3-0.2,0.7-0.2,1.1v2.9L94.6,14.2
		L94.6,14.2z"/>
	<path class="st0" d="M107.3,12.4l1,0.2c-0.2,0.6-0.5,1-0.8,1.4c-0.5,0.3-1,0.5-1.6,0.5c-0.8,0-1.4-0.2-2-0.8
		c-0.5-0.5-0.7-1.2-0.7-2.1c0-0.9,0.2-1.7,0.8-2.2c0.5-0.5,1.1-0.8,1.9-0.8c0.8,0,1.4,0.2,1.8,0.8c0.5,0.5,0.7,1.2,0.7,2.1
		c0,0.1,0,0.2,0,0.2h-4.1c0,0.6,0.2,1.1,0.5,1.4c0.3,0.3,0.7,0.5,1.1,0.5c0.4,0,0.7-0.1,0.9-0.3C107,13.1,107.2,12.8,107.3,12.4
		 M104.2,10.9h3.1c-0.1-0.5-0.2-0.8-0.4-1.1c-0.3-0.4-0.7-0.5-1.2-0.5c-0.5,0-0.8,0.2-1.1,0.5C104.5,10,104.3,10.4,104.2,10.9"/>
	<path class="st0" d="M109.5,14.2V8.6h0.8v0.8c0.4-0.6,1-0.9,1.8-0.9c0.3,0,0.7,0.1,0.9,0.2c0.3,0.2,0.5,0.3,0.6,0.5
		c0.2,0.2,0.2,0.5,0.3,0.7c0,0.2,0.1,0.5,0.1,0.9v3.4h-1v-3.4c0-0.4,0-0.7-0.1-0.8c-0.1-0.2-0.2-0.4-0.4-0.5
		c-0.2-0.1-0.4-0.2-0.7-0.2c-0.4,0-0.8,0.2-1.1,0.4c-0.3,0.2-0.5,0.8-0.5,1.4v3L109.5,14.2L109.5,14.2z"/>
	<path class="st0" d="M117.6,13.3l0.2,0.8c-0.3,0.1-0.5,0.1-0.7,0.1c-0.4,0-0.6-0.1-0.8-0.2c-0.2-0.1-0.3-0.2-0.4-0.5
		c-0.1-0.2-0.2-0.5-0.2-1.1V9.3h-0.8V8.5h0.7V7.1l0.9-0.6v2h1v0.8h-1v3.2c0,0.3,0,0.5,0.1,0.5c0,0.1,0.1,0.2,0.2,0.2
		c0.1,0.1,0.2,0.1,0.3,0.1C117.2,13.4,117.3,13.4,117.6,13.3"/>
	<path class="st0" d="M121.1,11.4c0-1.1,0.3-1.8,0.8-2.3c0.5-0.4,1.1-0.6,1.7-0.6c0.8,0,1.4,0.2,1.9,0.8c0.5,0.5,0.8,1.2,0.8,2.1
		c0,0.8-0.1,1.3-0.3,1.7c-0.2,0.4-0.5,0.8-0.9,1c-0.4,0.2-0.8,0.4-1.4,0.4c-0.8,0-1.4-0.2-1.9-0.8C121.3,13.1,121.1,12.3,121.1,11.4
		 M122.1,11.4c0,0.7,0.2,1.3,0.5,1.6c0.3,0.4,0.7,0.5,1.2,0.5c0.5,0,0.8-0.2,1.2-0.5c0.3-0.4,0.5-0.9,0.5-1.7c0-0.7-0.2-1.2-0.5-1.6
		s-0.7-0.5-1.1-0.5c-0.5,0-0.8,0.2-1.2,0.5C122.2,10.2,122.1,10.7,122.1,11.4"/>
	<path class="st0" d="M127.7,14.2V9.4h-0.8V8.6h0.8V8c0-0.4,0-0.7,0.1-0.8c0.1-0.2,0.2-0.5,0.5-0.6c0.2-0.2,0.5-0.2,1-0.2
		c0.3,0,0.5,0,0.9,0.1l-0.2,0.8c-0.2,0-0.4-0.1-0.5-0.1c-0.3,0-0.5,0.1-0.6,0.2c-0.2,0.2-0.2,0.4-0.2,0.7v0.5h1.1v0.8h-1.1v4.8
		L127.7,14.2L127.7,14.2L127.7,14.2z"/>
	<polygon class="st0" points="62.5,27.1 62.5,19.4 68.2,19.4 68.2,20.7 64,20.7 64,22.4 67.9,22.4 67.9,23.7 64,23.7 64,25.7 
		68.3,25.7 68.3,27.1 	"/>
	<path class="st0" d="M74.7,27.1h-1.4v-0.8c-0.2,0.3-0.5,0.5-0.8,0.7s-0.6,0.2-0.9,0.2c-0.6,0-1.2-0.2-1.7-0.8
		c-0.5-0.5-0.7-1.2-0.7-2.2c0-1,0.2-1.7,0.7-2.2c0.5-0.5,1-0.8,1.7-0.8c0.6,0,1.1,0.2,1.6,0.8v-2.8h1.5V27.1z M70.8,24.2
		c0,0.6,0.1,1.1,0.2,1.3c0.2,0.4,0.6,0.6,1,0.6s0.6-0.2,0.8-0.5c0.2-0.3,0.4-0.8,0.4-1.3c0-0.6-0.2-1.1-0.4-1.4
		c-0.2-0.3-0.5-0.5-0.9-0.5c-0.4,0-0.7,0.2-0.9,0.5C70.9,23.2,70.8,23.6,70.8,24.2"/>
	<path class="st0" d="M79.8,27.1v-0.8c-0.2,0.3-0.5,0.5-0.8,0.7c-0.3,0.2-0.7,0.2-1.1,0.2c-0.4,0-0.7-0.1-1-0.2s-0.5-0.4-0.7-0.7
		c-0.2-0.3-0.2-0.7-0.2-1.2v-3.5h1.5v2.6c0,0.8,0,1.3,0.1,1.4s0.2,0.3,0.3,0.5c0.2,0.1,0.3,0.2,0.5,0.2c0.2,0,0.5-0.1,0.7-0.2
		s0.3-0.3,0.4-0.5s0.1-0.7,0.1-1.5v-2.3h1.5v5.6C81.1,27.1,79.8,27.1,79.8,27.1z"/>
	<path class="st0" d="M87.6,23.2l-1.4,0.2c-0.1-0.3-0.2-0.5-0.3-0.7s-0.4-0.2-0.7-0.2c-0.4,0-0.7,0.2-0.9,0.4
		c-0.2,0.2-0.3,0.7-0.3,1.3c0,0.7,0.1,1.1,0.3,1.4c0.2,0.3,0.5,0.4,0.9,0.4c0.3,0,0.5-0.1,0.7-0.2c0.2-0.2,0.3-0.5,0.4-0.8l1.4,0.2
		c-0.2,0.7-0.5,1.1-0.8,1.5c-0.5,0.4-1,0.5-1.7,0.5c-0.8,0-1.4-0.2-2-0.8c-0.5-0.5-0.8-1.2-0.8-2.1s0.2-1.7,0.8-2.1
		c0.5-0.5,1.1-0.8,2-0.8c0.7,0,1.2,0.2,1.6,0.5C87.2,22.1,87.4,22.6,87.6,23.2"/>
	<path class="st0" d="M89.8,23.2L88.4,23c0.2-0.5,0.4-0.9,0.8-1.2c0.4-0.2,0.9-0.4,1.7-0.4c0.7,0,1.1,0.1,1.4,0.2s0.5,0.4,0.7,0.6
		s0.2,0.7,0.2,1.4v1.7c0,0.5,0,0.8,0.1,1.1c0.1,0.2,0.2,0.5,0.3,0.8h-1.4C92,27,92,26.9,92,26.6c0-0.1-0.1-0.2-0.1-0.2
		c-0.2,0.2-0.5,0.5-0.8,0.5c-0.3,0.2-0.6,0.2-0.9,0.2c-0.6,0-1.1-0.2-1.4-0.5c-0.3-0.3-0.5-0.7-0.5-1.2c0-0.3,0.1-0.6,0.2-0.8
		c0.2-0.2,0.4-0.5,0.6-0.6c0.3-0.2,0.7-0.2,1.2-0.4c0.7-0.2,1.1-0.2,1.4-0.4v-0.2c0-0.3-0.1-0.5-0.2-0.6s-0.4-0.2-0.8-0.2
		c-0.2,0-0.5,0.1-0.6,0.2C90,22.7,89.9,23,89.8,23.2 M91.7,24.4c-0.2,0.1-0.5,0.2-0.9,0.2c-0.4,0.1-0.7,0.2-0.8,0.2
		c-0.2,0.2-0.3,0.3-0.3,0.5s0.1,0.4,0.2,0.5s0.4,0.2,0.6,0.2c0.3,0,0.5-0.1,0.8-0.2c0.2-0.2,0.3-0.3,0.4-0.5
		c0.1-0.2,0.1-0.4,0.1-0.8C91.7,24.7,91.7,24.4,91.7,24.4z"/>
	<path class="st0" d="M97.2,21.5v1.2h-1V25c0,0.5,0,0.8,0,0.8c0,0.1,0.1,0.2,0.2,0.2c0.1,0.1,0.2,0.1,0.2,0.1c0.2,0,0.3-0.1,0.6-0.2
		l0.2,1.1c-0.4,0.2-0.8,0.2-1.1,0.2c-0.3,0-0.5-0.1-0.8-0.2c-0.2-0.1-0.4-0.2-0.5-0.4c-0.1-0.2-0.2-0.3-0.2-0.6
		c0-0.2-0.1-0.5-0.1-1.1v-2.4h-0.7v-1.2h0.7v-1.1l1.5-0.8v2L97.2,21.5L97.2,21.5L97.2,21.5z"/>
	<path class="st0" d="M98.2,19.4h1.5v1.4h-1.5V19.4z M98.2,21.5h1.5v5.6h-1.5V21.5z"/>
	<path class="st0" d="M100.9,24.2c0-0.5,0.2-1,0.4-1.4c0.2-0.5,0.6-0.8,1.1-1.1c0.5-0.2,0.9-0.4,1.5-0.4c0.8,0,1.5,0.3,2.1,0.8
		c0.5,0.5,0.8,1.2,0.8,2.1c0,0.8-0.3,1.5-0.8,2.1c-0.5,0.5-1.2,0.8-2,0.8c-0.5,0-1-0.2-1.4-0.4c-0.5-0.2-0.8-0.6-1.1-1
		C101,25.4,100.9,24.8,100.9,24.2 M102.4,24.3c0,0.5,0.2,1,0.4,1.3c0.2,0.3,0.6,0.5,1,0.5c0.4,0,0.7-0.2,1-0.5
		c0.2-0.3,0.4-0.8,0.4-1.3s-0.2-1-0.4-1.3c-0.2-0.3-0.6-0.5-1-0.5c-0.4,0-0.7,0.2-1,0.5C102.5,23.3,102.4,23.7,102.4,24.3"/>
	<path class="st0" d="M112.8,27.1h-1.5v-2.9c0-0.6,0-1-0.1-1.1c-0.1-0.2-0.2-0.3-0.3-0.4c-0.2-0.1-0.3-0.2-0.5-0.2
		c-0.2,0-0.5,0.1-0.7,0.2c-0.2,0.2-0.4,0.3-0.5,0.5c-0.1,0.2-0.2,0.7-0.2,1.3v2.5h-1.5v-5.6h1.4v0.8c0.5-0.6,1.1-1,1.8-1
		c0.3,0,0.6,0.1,0.9,0.2c0.3,0.2,0.5,0.3,0.6,0.5c0.2,0.2,0.2,0.4,0.3,0.6c0.1,0.2,0.1,0.5,0.1,1v3.5H112.8z"/>
</g>
</svg>
