<?xml version="1.0" encoding="utf-8"?>
<!-- Generator: Adobe Illustrator 27.9.0, SVG Export Plug-In . SVG Version: 6.00 Build 0)  -->
<svg version="1.1" id="Layer_1" xmlns="http://www.w3.org/2000/svg" xmlns:xlink="http://www.w3.org/1999/xlink" x="0px" y="0px"
	 viewBox="0 0 149 64" style="enable-background:new 0 0 149 64;" xml:space="preserve">
<style type="text/css">
	.st0{fill:#FFFFFF;}
</style>
<g>
	<path class="st0" d="M41.3,7.1V6.9C41.7,6.5,41.6,7.5,41.3,7.1"/>
	<path class="st0" d="M36.5,14.1c0,0.2-0.2,0.2-0.5,0.2C36.1,14.1,36.4,13.9,36.5,14.1"/>
	<path class="st0" d="M31.2,14.4c-0.2,0-0.6,0-0.6-0.2C31,14.1,31.3,14,31.2,14.4"/>
	<path class="st0" d="M32.9,14.1c0,0.2,0.1,0.2,0.1,0.3c-0.1,0.1-0.6-0.1-0.6-0.2C32.6,14.1,32.6,14,32.9,14.1"/>
	<path class="st0" d="M34.8,14.3c-0.2,0.2-0.6,0.1-0.6-0.2C34.5,14.1,34.8,14,34.8,14.3"/>
	<path class="st0" d="M38.5,14.1c0,0.2-0.2,0.3-0.3,0.3c-0.1-0.1-0.2-0.1-0.2-0.2C38,14.1,38.1,14.1,38.5,14.1"/>
	<path class="st0" d="M38,15.3c0.3,0.1,0.3,0.5,0.3,0.8c-0.6-0.2-1,0.3-1.2-0.3c0.2,0.1,0.2-0.2,0.3-0.2c0.2,0,0.3,0.2,0.6,0.2
		C38.2,15.7,37.8,15.5,38,15.3"/>
	<path class="st0" d="M33.7,15.5c0.2,0.1,0.2,0.3,0.2,0.6c-0.6-0.1-0.7-0.1-1.2,0c-0.1-0.2-0.2-0.2-0.2-0.6
		C32.8,15.7,33.8,16,33.7,15.5"/>
	<path class="st0" d="M43.3,45.1c-2.5,0.9-4.2,2.6-7.3,2.8c1.2-1,2.7-1.8,4-2.8H43.3z"/>
	<path class="st0" d="M45.7,8.8c-0.5,0.2,0.2,0.6,0.2,1c-0.2,0-0.2-0.2-0.6-0.2c-0.2-0.5,0.1-0.2,0.1-0.7c-0.6-0.2-1-0.5-0.9-1.2
		c-0.7,0.2-0.7,1-1.1,1.6c0.7-0.5,1.9,0.2,2.1,0.9c0.9,0,1.1,0.5,1.9,0.1c-0.2,0.9-0.6,1.7-1.1,2.3c-0.1,0.5,0.2,0.6,0.1,1.1
		c-0.2,0-0.2-0.2-0.2-0.3c-0.2,0.2,0.2,0.5,0,0.6c-0.2-0.1-0.2-0.6-0.3-0.7c-0.2,0.2,0.2,0.6,0.1,0.9c-0.3-0.3-0.5-1-0.3-1.7
		c-0.6,0.1,0.2,0.9-0.3,0.8c-0.1-0.3,0.1-0.6,0.1-0.8c-0.5-0.1-0.2,0.7-0.3,0.8c-0.3-1.1-0.6-2.3-0.9-3.2c-0.6,0-0.8,0.2-0.7,0.7
		c-1.2,0.9-1.9,2.4-2.8,3.6c0.9,0.2,1.5,1.6,0.6,2.1c-2.6,0.2-4.3-0.1-6.6,0.2c-1.1,0-2.5-0.2-3.8-0.2c-1.2,0.1-2.1,0.2-2.3-0.8
		c-0.1-0.8,0.3-0.9,0.8-1.4c-0.9-1.2-1.6-2.7-2.7-3.7c0.2-0.9-0.8-1.2-1.1-0.6c0.2,1,0,2.4-0.9,2.6c-0.1,0.6-0.2,1.2-0.6,1.5
		c0-0.6,0.6-0.6,0.3-1.2c-0.6-0.2-0.2,0.5-0.6,0.6c-0.2-0.1,0.1-0.2,0-0.3c-0.2,0-0.2,0.2-0.3,0.2c0.2-0.9-0.7-1.9-0.9-2.9
		c0.3-0.1,0.6,0.2,0.8,0c0.2,0,0-0.3,0.1-0.6c0-0.1,0.2-0.1,0.3-0.2c0.2,0.1-0.2,0.5,0.1,0.6c0.7-0.6,1.5-1.8,2.5-0.9
		c-0.3-0.6-0.9-1.1-1.1-1.9c-0.2,0.9-0.8,1.2-0.9,1.9c-0.3-0.2,0.2-0.3,0.1-0.7C24.3,9,24,8.8,24,9.4c-0.1,0-0.1-0.2-0.1-0.3
		c-0.2,0.3-0.2,0.6-0.7,0.6c0.5-0.9-0.7-1.7-0.8-2.6C23,6.9,23,7.3,23.3,7.3c0.2-0.2,0.3-0.7,0.6-1.1c1.4-0.6,1.7,0.7,2,1.6
		c0.2-0.2,0-0.8,0.1-1.1c-0.2-0.2-0.3-0.5-0.6-0.6c-0.2-1.2-1.4-1.6-1.7-2.7C25,2.8,25.7,4,25.7,5.3c0.1,0.2,0.2,0.2,0.3,0.3
		c0.2,0,0.1-0.2,0.2-0.2C26,5.1,26,4.8,25.8,4.6C26,3,25,2.9,24.7,2c0.6,0,0.9,0.1,1.2,0.3c0.5,0.5,0.1,1.6,0.6,1.9
		c0.2-0.1-0.1-0.3-0.1-0.6c0.6-1.1-0.2-1.8-0.2-2.6C27.4,1,27,2.5,27,3.4c0.8-0.7,0.2-1.9-0.1-2.6c1-0.3,0.9,1.2,0.9,1.9
		c0.9-0.3,0.2-1.4,0.5-2.1c0.9,0.2,0.6,0.9,0.5,1.6c0.7,0,0.6-0.9,0.6-1.6c1,0,0.1,1,0.3,1.5c0.6-0.2,0.3-1.2,1.1-1.2
		c0.2,0.5-0.2,0.6-0.3,0.9c0.1,0.2,0.7,0.2,0.6,0.6c-0.6,0.2-0.9,0.2-1.6,0.2c-5.1,1-2.6,9.2,0.1,11.2c0.5-1.2-0.8-2.5-1.2-3.5
		c-0.6,0.1-0.7,0.1-1.1-0.2c0.1-0.7-0.1-1-0.3-1.4C26.6,7,27.6,6,28.4,5.1c0.9-0.2,1.4-0.6,2.4-0.6c0.8,0.5,1.9,0.5,2.6,1.1
		c0.3-0.2,0.6-0.6,0.6-1.2c-0.2-0.2-0.3,0.2-0.7,0.1V3.4c0.6-0.1,0.6,0.2,0.9,0.2c0.1-0.5-0.2-0.6-0.2-0.9h1.7
		c0.1,0.3-0.1,0.5-0.2,0.6c0.2,0.2,0.6-0.1,0.7,0.1C36,3.7,36,4.3,35.9,4.6c-0.3,0.1-0.5-0.2-0.7-0.2c-0.2,0.6,0.3,0.9,0.6,1.4
		c1-0.6,2.3-1.1,3.8-0.9c1,0.2,1.6,0.9,2.4,1.4c0.3,1.4,0.6,2.6,0,3.8c-0.2,0-0.5,0.2-0.8,0.2c-0.6,1.1-1.7,2.1-1.5,3.7
		c2-1.9,4.6-7.5,1.9-10.4c-0.9-0.9-2.3-0.9-3.6-1.5c0.1-0.2,0.5-0.2,0.6-0.5c0-0.5-0.6-0.9-0.1-1.1c0.7,0,0.1,1.4,0.8,1.4
		c0.6-0.2-0.6-1.5,0.5-1.5c0.2,0.6,0,1.4,0.5,1.6c0.7-0.2-0.2-1.2,0.2-1.8c0.2-0.1,0.2,0.1,0.5,0.1c-0.1,1.4-0.3,2.1,0.2,2.6
		c0.2-0.7-0.1-1.9,1-1.8c0.1,0.7-0.5,0.9-0.5,1.4c0.2,0.5,0.2,1.1,0.6,1.2c0-0.8-0.2-2.1,0.9-2.1c-0.1,0.8-0.9,1.9-0.6,3.1
		c0.6,0,0.2-0.6,0.3-0.8c0.2-1.1,0.8-2.3,1.9-1.8c-0.6,0.9-1.6,1.6-1.6,3.1c-0.2,0.1-0.3,0.3-0.3,0.6c0.1,0.1,0.2,0.2,0.2,0.2
		c0.6-1,1.2-2.9,2.6-2.3c-0.7,0.9-1.8,1.5-1.9,2.9c-0.3,0-0.2,0.3-0.6,0.5v0.9c0.6-0.7,1.1-2.3,2.4-1.4c0.2,0.2,0.2,0.6,0.5,0.8
		c0.2-0.1,0.6-0.5,0.7-0.2c-0.3,0.7-0.2,2-1.1,1.9c0,0.2,0.2,0.2,0.1,0.5C45.7,9.4,45.7,9,45.7,8.8 M41.4,7.7c0,0.5,0.1,0.7,0.5,0.6
		C42.5,8,42,7.1,41.4,7.7 M34.4,3c-0.2,0.8,1.1,0.8,0.9,0C34.7,3,34.7,3,34.4,3 M35.2,4.4c0.2,0.1,0.2,0.2,0.6,0.2
		c0.1-0.2,0.2-0.5,0-0.6C35.4,3.9,35.2,4,35.2,4.4 M33.6,4.5h0.5V4.2C33.8,3.8,33.4,4.3,33.6,4.5 M34.5,4.5c0.3,0,0.6-0.1,0.6-0.3
		C35,4.2,35,4,35,3.9h-0.5C34.4,4.3,34.4,4.3,34.5,4.5 M34.5,5.2c0.6,0.1,0.7-0.6,0.1-0.5C34.5,4.8,34.5,4.9,34.5,5.2 M29.4,5.9
		c0.2,0.6,1.2,0.2,0.8-0.5C29.9,5.2,29.5,5.4,29.4,5.9 M30.5,5.9c0.2,0.2,0.9,0.2,0.9-0.2c-0.1,0-0.2-0.1-0.2-0.2
		C30.9,5.2,30.5,5.3,30.5,5.9 M38.5,6.2C39.7,4.8,37.1,5.5,38.5,6.2 M39.9,6c0.1-0.7-0.3-0.8-0.8-0.6C38.9,6.2,39.6,6.3,39.9,6
		 M34.1,5.9v0.3c0.6,0,0.6,0.3,0.8,0.5c0-0.2,0.1-0.5,0.6-0.5c0.2-0.6-0.7-0.2-0.6-0.8h-0.3C34.6,5.9,34.2,5.9,34.1,5.9 M31.6,5.9
		c0.2-0.2,0.6,0,0.3,0.2c0.2,0,0.3-0.2,0.3-0.3c-0.1,0-0.1-0.1-0.1-0.2C31.9,5.6,31.6,5.5,31.6,5.9 M37,6.3c0.2,0,0.2,0.1,0.2,0.2
		c0.5-0.1,0.7-0.5,0.5-0.9C37.1,5.5,36.9,5.7,37,6.3 M29.3,5.9c-0.2-0.2-0.6-0.2-0.9-0.1c0,0.2-0.1,0.6,0.1,0.7
		C29.1,6.5,29.4,6.4,29.3,5.9 M40.2,6c-0.1,0.5,0.2,0.6,0.2,0.7c0.2,0.1,0.6-0.2,0.6,0c-0.1,0.3,0,0.6,0.2,0.7h0.5
		c0.2-0.1,0.2-0.7,0.1-0.9c-0.3-0.2-0.6,0.1-0.7,0c0-0.3,0-0.6-0.1-0.7C40.5,5.6,40.2,5.7,40.2,6 M32.6,6.3c0.2,0.2,0.6-0.2,0.6,0.2
		c0.1-0.1,0.1-0.3,0.1-0.6C32.9,5.9,32.6,5.9,32.6,6.3 M36.2,6.6c0.2-0.3,0.3-0.1,0.1,0.2c0.5,0.1,0.5-0.2,0.6-0.5
		c-0.1-0.2-0.3-0.3-0.7-0.2C36.1,6.2,36,6.6,36.2,6.6 M28.9,6.9c-0.6,0.6-1.1,2.7,0.1,3.1c0.2-0.6-0.2-1.2-0.1-1.8
		c0.5-1.7,3.3-1.5,4.4-0.6C32.7,6.1,30,6,28.9,6.9 M36.2,7.5c1.2,0.1,3.4-1.6,4.2,0c0.3,0.6-0.2,1.7,0.6,2
		C42.3,6.5,37.6,5.4,36.2,7.5 M27.7,7.2c0.6,0.3,1-0.2,0.7-0.7C27.9,6.2,27.5,6.6,27.7,7.2 M24.1,7.4c-0.2-0.1-0.2-0.3-0.3-0.3
		c-0.1,0.3-0.3,0.6-0.8,0.3c0,1,1.2,1.2,1.9,0.6c0-0.6-0.1-1-0.5-1.2C24.3,7.1,24.2,7.2,24.1,7.4 M34.1,9.6c0.2-0.2,0.6,0,0.9-0.2
		c0-0.2-0.1-0.2-0.1-0.3c-0.3-0.2-0.6,0.2-0.7,0c0.1-0.8-0.1-1.8-0.6-2.3h-0.2C33.6,7.8,33.8,8.6,34.1,9.6 M34.4,7.4
		c0.1-0.2,0.1-0.6-0.3-0.6C34.1,7.1,34.1,7.3,34.4,7.4 M35.1,7.4c0.3,0.1,0.3-0.3,0.5-0.6C35.1,6.9,35.1,7,35.1,7.4 M35.2,9.6
		C35.5,8.7,35.7,7.9,36,7C35.3,7.2,35,8.8,35.2,9.6 M45.4,7.4c-0.1-0.2-0.2-0.5-0.6-0.3c0,0.6-0.2,1.1,0.2,1.5h1.1
		c0.2-0.2,0.2-0.7,0.3-0.9c-0.2-0.2-0.2,0.2-0.6,0.1c-0.1-0.2-0.1-0.6-0.2-0.7C45.4,6.9,45.7,7.3,45.4,7.4 M29.5,7.9
		c1.5-0.1,2,0.6,3.7,0.2C32.6,7.2,30.2,6.6,29.5,7.9 M36.1,8.1c1.6,0.3,2.7-0.2,4.1-0.2C39.3,6.5,37.1,7.8,36.1,8.1 M27.4,9.1h0.6
		c0-0.7-0.1-0.9,0.1-1.6c-0.2-0.2-0.7-0.2-0.9,0C27,8,27.4,8,27.4,8.2c-0.1,0.2-0.3,0.2-0.2,0.7c0.2,0,0.3-0.5,0.6-0.1
		C27.8,9.1,27.3,8.8,27.4,9.1 M34.4,8.1C34.6,8.1,35,8.3,35,8C34.7,7.9,34.3,7.9,34.4,8.1 M34.8,8.7c0-0.2-0.1-0.2-0.5-0.2
		C34.4,8.8,34.7,8.9,34.8,8.7 M41.6,9.4c0.3-0.1,0.6-0.2,0.6-0.6C41.9,8.2,41.1,8.9,41.6,9.4 M37.6,8.9c-0.5,0.2-0.1,1-0.5,1.4
		c-0.2-0.1-0.3-0.3-0.8-0.2c-0.3,0.2-0.3,1,0.1,1.4c0.2-0.8,2.3-0.9,2.3,0.2c0.6,0,0.6-0.7,0.3-1.2c-0.3-0.2-0.7,0.2-0.9,0
		C38.1,9.8,38.2,9,37.6,8.9 M31.5,10.4h-0.8c-0.2,0.2-0.2,0.8,0.1,1c0.6-0.6,2-0.9,2.5-0.2c0.2-0.2,0.2-0.9-0.1-1.2
		c-0.5-0.1-0.6,0.1-0.8,0.2C32.4,8.7,30.9,9,31.5,10.4 M27.9,10.3c0.5,0,0.5-0.5,0.2-0.7C27.5,9.2,27.4,10.3,27.9,10.3 M41.3,9.9
		c0.3-0.2,0.5,0.2,0.6,0c0.1-0.2-0.1-0.2-0.1-0.5C41.4,9.5,41.3,9.6,41.3,9.9 M43.3,9.9h0.5C43.8,9.5,43.3,9.6,43.3,9.9 M34.4,9.8
		c0.1,0.6,0.3,0.9,0.3,1.4c0.6-0.2,0.2-0.9,0.6-1.4C35,9.8,34.6,9.6,34.4,9.8 M40.5,10.6c0.3-0.1,0.3-0.5,0.5-0.7
		c-0.2,0-0.2-0.2-0.5-0.2C40.3,9.9,40.3,10.4,40.5,10.6 M23.9,10.6c-0.2-0.1-0.2-0.2-0.5-0.2c-0.1,0.1-0.1,0.5-0.1,0.6h-0.6
		c0.2,0.3,0.2,0.9,0.5,1.2c0.5-0.1,0.9-0.1,1.6-0.1c0.3-0.3,0.2-0.9,0.2-1.6c-0.2,0-0.2,0.2-0.6,0.2c0-0.2,0.1-0.6-0.2-0.6
		C24.1,10.3,24,10.5,23.9,10.6 M28.9,10.3c0,0.5,0,0.8,0.5,0.7c0.3-0.1,0.2-0.6,0.2-0.9C29.2,9.9,29.1,10.3,28.9,10.3 M39.3,11.4
		c0.5,0,0.6-0.2,0.8-0.3c0-0.6-0.2-0.7-0.6-0.8C39.4,10.5,39.4,10.9,39.3,11.4 M44.7,10.6c0.1,0.6,0.1,1.1,0.2,1.6
		c0.8,0.1,2.5-0.1,1.9-1.4c-0.2,0.1-0.3,0.2-0.6,0.3c0-0.2,0-0.6-0.1-0.6c-0.5,0-0.2,0.6-0.6,0.5c-0.2-0.2-0.1-0.7-0.5-0.8
		C45,10.3,45,10.9,44.7,10.6 M35.2,11.1c0.2,0,0.2,0.2,0.6,0.1c0.1-0.2,0.2-0.6,0-0.7C35.4,10.4,35.1,10.6,35.2,11.1 M33.7,11.1
		c0.8,0.2,0.8-0.7,0.1-0.6C33.7,10.6,33.8,10.9,33.7,11.1 M29.6,11.1c0,0.3,0.6,0.6,0.7,0.3c-0.1-0.3-0.1-0.7-0.3-0.9
		C30,10.8,29.8,10.8,29.6,11.1 M31.6,11.4c0.1,0.1,0.6,0.2,0.6-0.1C32.1,11.2,31.8,11.3,31.6,11.4 M30.7,12.4
		c-0.5-0.2-0.7-0.5-1.1-0.6c-0.2,0.8,0.7,1.2,1.7,1c0.7-1.5,2.5,0.2,3.2-1.1c0.6,0.2,1.9,0.9,2.7,0.2c0.2,0,0.3,0.2,0.6,0.1
		c0.6,1.6,2.5,0.7,2.5-0.7c-0.7,0.2-0.6,1.2-1.7,1c-0.3-0.2-0.3-0.6-0.7-0.6c-0.9-0.1-1.5,0.6-2.1,0.3c-0.5-0.1-0.6-0.9-1.2-0.6
		C33.7,12.7,31.7,11.2,30.7,12.4 M35.5,13c-0.5,0.1-1.6,0.2-1.8-0.1c-0.2-0.2,0.5-0.5,0-0.5c-0.6,0.2-0.9-0.2-1.4-0.2
		c-0.2,0.5-0.8,0-0.8,0.6c0.6,0.1,0.5-0.2,0.9-0.2c0,0.2,0.2,0.2,0.2,0.5c-0.2,0.3-0.7,0.5-1.1,0.2c-0.1-0.2-0.1-0.2,0-0.5
		c-0.3,0.3-0.9,0.5-1.6,0.3c-0.1,0.6,0.6,0.6,0.9,0.6c0.7,0,1.8-0.2,2.7-0.2s1.9-0.1,2.7-0.1c1,0,2.6,0.6,2.9-0.2
		c-0.8,0.1-1.1-0.2-1.6-0.6c0.1,0.2,0.1,0.2,0,0.6c-0.3,0.2-0.9,0.2-1.1-0.2c0-0.2-0.1-0.6,0.2-0.6c0.6-0.1,0.5,0.2,0.9,0.2
		c-0.5-0.9-1.4,0-2-0.1c-0.7-0.1-1.2-0.9-1.7-0.1C34.7,12.7,35.5,11.8,35.5,13 M35.2,14c-0.2,0-0.2-0.2-0.6-0.1c0-0.1,0-0.1-0.1-0.1
		c-1.2,0.6-4.2-0.6-4.6,0.6c1.2,0.5,3.2,0.2,4.4,0.1c1.5,0.2,3.7,0.3,5.1-0.2C39.1,13.4,36.1,13.9,35.2,14 M32.2,15
		c-0.1,1.4,1.5,1.7,2.4,1.2c-0.2-0.6-0.5-1-0.9-1.4C33,15.1,32.7,14.8,32.2,15 M38.9,16.4c-0.1-0.6-0.5-0.9-0.7-1.4
		c-0.7,0.1-1.2-0.1-1.8-0.1C36.4,16.4,37.8,16.5,38.9,16.4 M28.7,15.6c0.1,0.1,0.2,0.1,0.2,0.2c0.2-0.2,1-0.2,0.9,0.3
		c-0.5-0.5-0.6,0-1.1,0c0.2,0.6,0.9,0.3,1.6,0.3c-0.1-0.6-0.3-1-0.6-1.5C29.2,15,28.9,15.1,28.7,15.6 M31.5,16.1
		c0-0.6-0.2-0.9-0.6-0.9C30.9,15.6,31.1,15.9,31.5,16.1 M40,16.3c-0.1-0.6-0.2-1-0.7-1.2C39.4,15.7,39.5,16.1,40,16.3"/>
	<path class="st0" d="M53.4,9.7c0.6-0.6,0.6-1.6,1.5-1.9c0.9,0.9,0.2,2.1,0.1,3.3c0,0.5,0,0.9,0,1.5c-0.1,1.2-0.6,2.1-0.6,3.4
		c0.1,1.4,0.7,2.6,0.6,4c-0.1,0.6-0.2,1.1-0.2,1.6c0.1,0.9,0.7,2,1,3.2c0.3,1.1,0.7,2.3,0.9,3.2c0.5,1.2,1.2,2.3,1.4,4.1
		c0.1,2-0.2,4.5-0.2,6.9c0,1.9-0.1,5.3,0.8,6.4c1.6,1.9,6.1,0.7,8.5,1.7c0.2,0.5,0.5,0.7,0.5,1.2c-2.3,0.8-4.9,0.7-7.5,0.9
		c-1.2,0.1-2.4,0.5-3.6,0.6c-1.9,0.2-4,0-6,0.2c-2.9,0.2-6.8,0.6-9.9,0.3c-0.9-0.1-1.7,0.2-2.5,0.1c-1.5-0.1-2.8-0.5-4.2-0.2
		c-2.8,0.3-6.3,0.6-9.5,0.3c-2.1-0.1-4.3,0-6.3-0.2c-1.2-0.1-2.3-0.2-3.8-0.3c-2.3-0.2-4.6-1.1-7.2-0.9c-1.8,0.2-4,0.3-5.7-0.5
		c0.2-1.8,3.3-1.4,5.3-1.6c2.3,0,3.6-0.5,4.5-1.5c0.6-3.5,0.7-7.1,0.3-10.3c-0.2-2.6,0.2-4.7,0.9-6.6c0.2-0.8,0.3-1.7,0.6-2.3
		c0.2-0.7,0.7-1.2,0.9-1.9c0.1-0.5,0.1-0.9,0.2-1.2c0.2-0.5,0.6-0.9,0.6-1.4c0.2-0.9-0.2-2-0.1-3.2c0.1-0.9,0.5-1.9,0.3-2.6
		c-0.1-1.2-0.5-2.6-0.6-3.8c0-0.5,0.1-0.8,0-1.2C14.4,10,13.6,9,14.4,8c1,0.2,1.2,1,1.6,1.8c0.9-0.2,0.8-1.5,1.5-1.9
		c0.9,0.6,0.6,2.3-0.2,2.6c0.2,0.2,0.9,0.2,1.2,0.6c0.2,0.2,0.2,0.6,0.1,0.8c0.5,0.6,1.4,0.8,0.9,1.8C19.1,14,18.6,14,18,14.2
		c0,1.6,0.9,2.3,1.7,3.2c0.6-1.2,2.3-1.8,3.7-2.5c1-0.5,2.3-1.2,3.2-0.6c-0.5,0.8-1.5,1.2-2.5,1.9C22.9,17,21,17.6,22,19.5
		c1.2,0.2,1.8-0.9,2.5-1.6c0.8-0.2,1.6,0.2,2,0.8c5.8,0,11.1,0,16.7,0c0.3-0.3,0.7-0.6,1.1-0.8c1.1,0.1,1.9,0.3,2.3,1.4
		c0.5-0.1,0.6,0.1,0.9,0.1c1.6-2.8-3.6-3.4-4.6-4.9c0.5-0.9,1.9-0.2,3.1,0.2c1.7,0.7,3.3,1.4,3.8,2.9c0.9-0.8,1.9-1.9,1.9-3.3
		c-0.6-0.6-1.6-0.2-1.8-0.8c-0.5-0.9,1.6-0.9,1.1-2.3c0.5-0.3,0.8-0.6,1.1-0.7c-0.2-0.9-0.7-2.5,0.2-2.9C52.8,8,52.7,9.2,53.4,9.7
		 M52.4,8.6c0-0.2-0.1-0.6-0.2-0.6C52,8.2,52.1,8.5,52.4,8.6 M14.4,9.6c0.3,0,0.2-0.6,0.6-0.6c0.2,0.3,0.2,0.9,0.6,0.9
		c-0.2-0.8-0.3-1.6-1.1-1.8C14.3,8.6,14,9.2,14.4,9.6 M16.5,9.9c0.3-0.5,0.6-0.9,0.7-1.6c0-0.1-0.1-0.1-0.2-0.1
		C17,8.9,16.5,9.2,16.5,9.9 M53.7,10h0.5c0-0.2-0.1-0.5,0.1-0.5c0.5-0.1,0.5,0.3,0.6,0.1C55,9.1,55,8.8,54.7,8.3
		C53.9,8.5,54.2,9.6,53.7,10 M52.8,9.7C52.9,9.6,52.7,9,52.5,9C52.5,9.2,52.6,9.6,52.8,9.7 M52.4,10.3c0-0.2-0.1-0.3-0.2-0.5
		C52.1,10,52.1,10.3,52.4,10.3 M54.6,11.4c-0.1-0.2,0.2-0.6-0.2-0.6C54.3,11.1,54.6,11.2,54.6,11.4 M14.7,11.6
		c0.1-0.1,0.5-0.6,0-0.6C14.7,11.1,14.5,11.4,14.7,11.6 M51.5,12.4c-0.1-0.2,0.2-0.3,0-0.5c-0.2,0.3-0.9,0.2-0.9,0.7
		c0.2,0.2,0.7,0,0.6,0.6c-0.2,0.1-0.6-0.1-0.6,0.1c0.6,0.1,1,0.6,1.6,0.2c0-0.3-0.2-0.6-0.2-0.9c0.5-0.2,0.9-0.3,1.4-0.5
		c0.2-0.2-0.2-0.2-0.1-0.6c0.2,0,0.2,0.1,0.3,0.1C52.7,10.6,52.6,12.7,51.5,12.4 M16.4,12.1c-0.3,0-0.2-0.3-0.5-0.3
		C15.8,12.1,16.3,12.2,16.4,12.1 M18.3,12.6c-0.2,0-0.3-0.3-0.6-0.3c0,0.6,0.2,1,0.6,1.2c0.1-0.3,0.5-0.6,0.6-0.9
		c-0.1-0.2-0.3-0.6-0.6-0.3C18.3,12.3,18.4,12.6,18.3,12.6 M52,14c0.2,2.6-2.6,3.3-2.6,5.3c-0.1,0.8,0.2,1.6,0.3,2.5
		c0.6-0.1,0.9-0.2,1.4-0.3c0.2-0.3,0.2-0.9,0.3-1.2c0.2,0,0.5,0,0.6-0.1c0.6-1.7,0.3-3.8,0.8-5.2c-0.2,0-0.5,0.3-0.6,0
		c0.2-0.6,1.1-1.6,0.2-1.8C52.6,13.8,52.1,13.8,52,14 M17.5,13.8h0.6c-0.1-0.2-0.2-0.3-0.6-0.3V13.8z M15.7,14.1
		c0.2-0.1,0.6,0.1,0.6-0.3c-0.3,0.2-0.3,0-0.6-0.1C15.7,13.8,15.8,13.8,15.7,14.1 M17.4,18.1c-0.2-0.3-0.2-0.8-0.7-0.9
		c0.1,0.9,0.6,1.5,0.7,2.3c-0.7-0.2-0.2,1.4-1.4,1.1c-0.6,1.9,2.3,1.2,3.5,1.9c0,0.2-0.2,0.1-0.2,0.2c1.2-0.1,2.9,0.2,4,0.3
		c-0.5-0.3,0.5-0.6,0.2-0.7c-0.3-0.1-0.5,0.2-0.8,0.1c0-0.2-0.2-0.3-0.1-0.7c-1.5,0.8-3.8,0.1-5.4-0.6c0.1-0.2-0.1-0.6,0.1-0.6
		c0.2,0.5,0.6,0.7,1.2,0.7c0.2-0.2,0-0.6,0.2-0.7c0.6,0.2,0.7,0.9,1.2,1.1c0.8-3.6-1.8-4.7-2.6-7.1C17.3,15.8,17.7,16.8,17.4,18.1
		 M48.3,18.9c0.6-0.7,0.2-2.3-0.6-2.3C48.4,17,48.5,18.3,48.3,18.9 M21.5,19.9c-0.7-0.9-0.2-2.6,0.1-3.2
		C20.7,17.2,20.7,19.3,21.5,19.9 M43.9,19.3c-2.4-0.3-5.8-0.2-9.2-0.2c-2.9,0-6-0.2-8.4,0c-0.9,0.1-1.6,0.7-2.4,0.2
		c-0.3,0.6-0.1,1.7-0.2,2.6c0.2,0.1,0.5,0.2,0.6,0.3c0,0.7-0.1,1,0,1.7c-0.3,0.1-0.5,0.3-0.6,0.6c-0.3,4.3-0.2,9,1.6,11.8
		c0.8-0.6,1.6-1,2.7-1.2c0.5-2,1.4-3.8,1.9-5.8s1.7-3.7,1.6-5.9c-1,0.1-2.1,0.1-2.9,0.1c0.8-0.5,1.4-1.6,2.1-2
		c1.1-0.6,1.9,0.3,2,1.2c0.8,3.5-3.2,8.6-2,12.2c2.3-0.3,2.7-2.5,4.2-3.6c0.5-0.3,0.9-0.6,1.6-0.8c0.2-0.2,0.2-0.5,0.6-0.5
		c0.3,0,0.2,0.5,0.6,0.3c0.5,0,0.3-0.6,0.7-0.6c0.5,0.3,0.5,0.6,1.1,0.3c0.2,0.2,0.2,0.6,0.3,0.9c0.7-0.2,0.6,0.6,1,0.9
		c1.4-0.2,1.7,1.1,3.1,1.1c0.5,1-0.8,1.1-0.6,2.3c0.6,0.3,1.1,0.6,1.6,1c1.1-3.3,1.2-7.8,1.4-11.8c-0.7-0.5-0.9-1.8-0.6-2.6
		c0.2,0,0.5,0,0.6-0.1C46.4,19.9,45.4,18.7,43.9,19.3 M52.4,21.3c-1.1,0.7-3.6,1.1-4.9,0.7c0.1,0,0.2,0.1,0.2,0.2
		c-0.1,0.2-0.6,0-0.6,0.2c0.2,0,0.5,0,0.5,0.2c-0.1,0.2-0.6,0.3-0.3,0.6c2.1-0.6,5,0,7-0.6c0.1-0.5,0.3-1.2,0.1-1.8
		c0.2,1.4-1.4,1.6-2.6,1.2c1.7,0.1,1.6-2.1,0.8-3.1C52.5,19.9,52.5,20.7,52.4,21.3 M22.3,20c0.2,0.3,0.9-0.1,0.9-0.6
		C23,19.6,22.5,19.6,22.3,20 M46.6,19.9c0.2,0,0.8,0.2,0.7-0.1c-0.2-0.2-0.3-0.2-0.7-0.2V19.9z M48.7,20.7h0.5
		c0-0.3,0.1-0.8-0.2-0.9C48.9,20.2,48.6,20.3,48.7,20.7 M20.5,21.1c0.3,0,0.6-0.1,0.6-0.3c-0.2-0.1-0.2-0.6-0.6-0.6V21.1z
		 M22.6,20.5c0,0.5,0.1,0.7,0.6,0.7c0.1-0.2,0.2-0.7,0-0.9C22.9,20.3,23,20.7,22.6,20.5 M46.7,21.5c0.2-0.3,0.3-0.6,0.3-1.1h-0.6
		C46.6,20.7,46.4,21.3,46.7,21.5 M48.1,21.8c0.5,0.2,0.8,0.2,1.2,0C49.4,20.9,47.7,20.7,48.1,21.8 M20.7,21.8c0.2,0,0.7,0.1,0.7-0.2
		c-0.1,0-0.1-0.1-0.1-0.2C20.9,21.3,20.8,21.6,20.7,21.8 M30.9,22.4V22h-0.5C30.4,22.4,30.7,22.4,30.9,22.4 M15.6,22.7
		c1-0.1,2.5,0.2,3.3-0.2c-1-0.6-2.3,0.5-3.3-0.3V22.7z M18.7,31.5c0.7,2.6-0.6,5-0.7,7.7c-0.2,2,0.1,4,0.1,5.7
		c0.7,0.1,1.8-0.2,2.3,0.2c-0.2,0.2-1.4,0-1.4,0.2c1.8,0.1,3.4,0.3,5.2,0.2c-0.6-0.7-1.8-0.8-2.9-0.9c-0.8-0.1-1.6-0.1-2.3-0.2
		c-0.7-1.2-0.1-3.3,0.1-5.1c0.1-1,0-2.3,0.2-3.2c0.2-0.9,0.8-1.5,0.9-2.1c0.3-1.6,0.1-3.6-0.5-4.6c-0.3-0.2-0.2,0.5-0.5,0.1
		c0-0.7,0.1-1.6,0.2-2.3c0.2-1.5,0.9-3.2,0-4c-0.7,1.4-0.5,3.3-1.9,4c-0.2,0.9,1,1.2,0.2,1.9c-0.7,0-1.5-0.9-2-0.3
		C17.3,28.8,18.2,30,18.7,31.5 M20.3,23.3c0,1.7-0.2,3.8-0.3,5.8c0.7,1.2,1,2.5,0.9,3.8c-0.2,1.6-1.2,3.1-1.5,4.6
		c-0.2,2.3-0.1,4.2-0.2,6.3c1.1,0.3,2.3,0.6,3.5,0.6c0.7,0.1,1.4-0.1,1.9,0c0.7,0.1,1.2,0.6,1.9,0.7c1.4,0.2,2.6-0.2,4,0.2
		c0.7,1,1.9,1.4,2.6,2.4c-2-0.7-4-1.5-6-2.3c-0.3,0-0.6,0.5-1,0.5c-0.2,0-0.6-0.2-0.8-0.2c-2.3-0.2-5.7-0.1-8.1-0.2
		c1.9,1.4,6.7-0.6,7.5,1.9c-0.6,0.5-1.6,0.1-2.4,0c-1.9-0.1-4.2-0.2-5.7,0c-2.4-0.6-4.6,0.3-7,0.6c-2.5,0.2-5,0.1-7.3,0
		c0.6,0.9,2.1,0.6,3.4,0.6c1-0.1,2.1-0.3,3.1-0.1C9,48.4,8.8,48,9.1,48c0.7,0.6,1.9,0,2.8,0.1c0.2,0,0.5,0.2,0.7,0.2
		c0.9,0.1,1.8-0.1,2.6,0s1.5,0.2,2.1,0.2c1.9,0,3.8-0.2,5.4,0.2c0.2,0-0.1-0.6,0.3-0.3c0.7,0,1.1,0.2,1.7,0.2
		c0.6-0.6,1.6-0.1,2.5-0.1c1.7,0,4-0.5,5.4-0.2c0.6,0.1,1,0.6,1.7,0.6c0.9,0.2,1.9-0.2,2.9-0.2c0.2,0,0.3,0.1,0.6,0.1
		c0.7-0.1,1.2-0.3,1.9-0.3c0.1,0.2-0.2,0.2-0.2,0.5c0.9,0,1.6-0.6,2.6-0.7c1.2-0.2,2.5,0.3,3.7,0.3c0.9,0,2.3-0.2,3.2-0.3
		c1.1-0.1,2,0.2,2.9,0c0.9,0.6,1.8-0.2,2.7-0.2c0.3-0.1,0.1,0.6,0.6,0.3c0.7-0.1,1.4-0.2,2-0.3c0.7,0.6,1.9,0.2,2.6-0.1
		c1,0.5,2.4,0,3.6,0c1.2,0,2.4,0.2,3.3-0.3c-2.3,0-4.2,0.1-6.3,0c-1.9-0.1-3.8-0.8-5.8-0.7c-0.7,0-1.6,0.2-2.3,0.2
		c-2.3,0.1-3.7,0.2-5.7,0.5c-0.7-0.5-1.6,0.2-1.9-0.5c0.9-2.3,5.3-0.6,7.5-1.7c-0.5-0.5-1.7-0.2-2.5-0.2c-2,0.2-4.7,0.8-6.4,0.1
		c0.2-0.3,0.6-0.7,0.9-0.8c1.7-0.7,4.2-0.2,6.1-0.7c0.6-0.7,0.3-1.1,0.2-2c-0.2-1.8-0.1-4-0.6-5.4c-0.2-0.7-0.6-1.2-0.8-1.8
		c-0.6-1.6-0.7-3.2-0.1-4.7c0.2-0.6,0.7-0.9,0.7-1.6c0-0.6-0.3-1.2-0.3-1.9c-0.1-1.1,0.1-2.3-0.3-3.2c-0.9-0.5-1.9,0.2-2.6,0.5
		c-0.5,7.1-0.6,12.5-4,17.4c-0.9,1.4-2.1,2.5-3.6,3.8c-0.7,0.7-3.3,2.9-4.3,3.1c-1,0-3.3-2.1-4.1-2.9c-5-4.9-8.8-11.1-7.7-21.1
		C22.3,23.6,21.6,23,20.3,23.3 M50,23.4c0,2.3,0.5,4,0.9,5.8c-0.2-0.2-0.2-0.2-0.6-0.1c-0.7,1.2-1.1,2.8-0.7,4.5
		c0.2,0.9,0.8,1.6,1,2.6c0.5,1.6,0.6,4,0.6,5.5c0.1,0.7,0.2,1.4,0.2,1.9c-0.3,1.6-4.5,0.7-5.7,1.6c-0.1,0.8,0.8,0.3,1.2,0.3
		c0.7,0,1.6-0.1,1.9-0.2c0.6-0.6,1.9-0.2,2.6-0.6c0.6-2.3-0.2-5.1-0.2-7.2c0.2,0,0,0.5,0.3,0.2c-1.2-3.1-1.2-7.1,1.1-9.2
		c0-0.9,0.6-1.2,0.5-2.1c-0.3-0.2-0.5,0.3-0.9,0.2c-0.6-0.6,0-1.8,0.1-2.5C51.8,23.7,51.3,23,50,23.4 M52.5,41.4
		c0.2,1.6,0.2,3.4,0.2,4.6c-1.2,0.6-3.6,0.1-5.2,0.6c0,0.5,0.2,0.6,0.2,0.8c1.7-0.5,4.1-0.2,5.8-0.7c0.1-0.9-0.2-1.9,0.2-2.6
		c0.1,1,0.6,2.3,0,3.1c0.6,0.1,0.8-0.2,1.1-0.3c-0.2-0.5-0.2-1.2-0.3-1.5c0.1,0.9-0.2,1.1-0.3,0.2c-0.1-1.2-0.2-1.7-0.3-2.8
		c-0.1-0.6-0.1-1.2-0.2-1.9c-0.2-1.4-1.2-1.9-0.8-3.3c0.6-0.1,0.5,0.3,0.7,0.5c0.1-0.6,0.5-0.9,0.7-1.4c-0.3-0.5-0.2-1.5-1.2-1.4
		c-0.2,0.3,0.2,0.5,0.2,0.9c-0.2,0.1-0.2-0.2-0.5-0.2c0.1,0.3,0.6,0.9,0.1,1.2c-0.9-1.2-1.5-2.6-1.5-4.6c0.2,0,0.6,0.1,0.5-0.2
		c0.1-1.2,0.6-2.1,1.4-2.7c0-0.1,0-0.2-0.2-0.2C49.5,32,52,36.7,52.5,41.4 M17.7,34.1c0.1,0.2,0.2-0.2,0.3,0.1
		c-0.1,1.5-0.8,2.3-0.6,3.8c-1.2,1.9-1.5,4.7-1.6,7.7c0.1,0.3,0.5,0.8,0.1,0.9c-0.6-0.2-0.1-1.5-0.3-1.9c-0.2,0.2,0,0.6-0.2,0.7
		c-0.1-0.6,0.2-1.2,0-1.6c0,1.1-0.9,2.6-0.2,3.3c2-0.6,4.6-0.1,7-0.2c-0.6-0.9-2.4-0.5-3.6-0.6c-0.9-0.1-1.6-0.6-2-0.6
		c-0.5-0.6,0.6-0.9,0.6-1.4c0.1-0.3,0-0.9,0-1.2c0.1-1.6,0.3-3.4,0.6-5c0.2-1.4,0.8-2.8,0.9-4.2c0.2-1.9-0.6-3.6-1.8-4.5
		C17.8,30.3,18.3,32.4,17.7,34.1 M38.8,31.3c0.1-0.2,0.6-0.5,0.2-0.6C38.8,30.9,38.5,31.2,38.8,31.3 M36.7,31.4
		c-1.7,0.2-2.6,2.1-3.7,3.1c1-0.3,1.4-1.7,2.5-1.6c-0.2-0.6,0.2-0.6,0.7-0.6c0-0.2-0.2-0.5,0.1-0.5c0.5-0.1,0.5,0.2,0.7,0.2
		c0-0.6,0.5-0.6,0.8-0.3c-0.1-0.5,0.3-0.2,0.6-0.5c-0.1,0.2,0.2,0.2,0.2,0.3c0-0.2-0.2-0.3-0.1-0.7C37.8,31.3,37.3,31.3,36.7,31.4
		 M39,32.4c0.3,0.1,0.3-0.5,0.1-0.5C39.1,32.1,38.8,32.2,39,32.4 M38.5,32.5v-0.5h-0.2C38.2,32.3,38.1,32.6,38.5,32.5 M37.6,32.8
		c0.1-0.2,0.1-0.3-0.2-0.5C37.3,32.5,37.3,32.9,37.6,32.8 M42.1,33.4c0-0.2,0.2-0.6-0.1-0.6C42,33,41.9,33.3,42.1,33.4 M35.2,34.2
		c-0.1-0.2,0-0.6-0.3-0.6C34.8,34,35,34.1,35.2,34.2 M38.2,34.6c-0.5,0.1-1,0.9-1.8,0.5c0.6,0.7,1.7-0.1,2.5,0.2
		c0-0.7,1.5,0.1,1.6-0.6C39.6,34.8,38.8,34.5,38.2,34.6 M40,35.5c0.2,0.2,0.3,0.6,0.6,0.6s0.3-0.2,0.3-0.3
		C40.8,35.4,40.3,35.1,40,35.5 M32.2,36.1c-1.2,0.1-2.4-0.6-3.8-0.3c2.3,1.5,5.4-0.1,8,0.2C35.1,35.2,33.7,36.1,32.2,36.1
		 M43.5,35.9c-0.3,0-0.8-0.3-1.1-0.1C42.8,35.8,43.3,36.1,43.5,35.9 M38.6,36.5c1,0.6,2.9-0.2,3.8-0.6C41.1,36,40.2,36.5,38.6,36.5
		 M15.4,37.3c0.2-0.1,0.5-0.2,0.5-0.6c-0.7,0.2-0.6-0.6-1.2-0.3C14.8,36.8,15.2,37.1,15.4,37.3 M56.6,45.3c1.2,2.6,5,2.4,8.5,2.5
		c0.8,0,1.6,0.1,2-0.5c-2.8-0.5-6.7,0.2-8.4-1c-1.9-1.2-1.4-4.3-1.6-6.7c0-0.5-0.1-1.1-0.6-1.4c0.3,1.1,0.2,2.7,0.3,4.2
		c0.1,0.9,0.5,1.6,0.2,2.3c-0.7-2.6-0.1-6.3-1.8-7.9C56.3,39,56.1,42.5,56.6,45.3 M54.9,37.2c-0.3,0.2-0.8,0.6-0.8,1.1
		c-0.1,1.8,0.6,5.1,0.7,6.7c0.5,0.2,0.9,0.2,1.6,0.2C55.6,42.7,56.2,38.9,54.9,37.2C55,37.2,54.9,37.2,54.9,37.2z M15.7,37.5
		C15.6,38,16,38.3,16,38.9c0,0.6-0.5,1-0.1,1.6c-0.2-1.2,1.2-2,0.6-2.9C16.2,37.5,15.8,37.4,15.7,37.5 M15.3,39
		c0.5-0.5,0-1.2-0.2-1.6h-0.2c-1.4,1.8-0.9,5.4-1.6,7.8c0.5,0.2,1,0,1.5-0.1C14.9,43.4,15.8,40.9,15.3,39 M12.8,43.4
		c0-2,0.6-3.6,0.6-5.5c-1.2,1.9-0.2,5.8-1.4,7.8c-1.2,2.5-5.7,1.2-8.6,2.1c2.9,0.2,5.7,0,8.1-0.6c1.9-1.4,1.7-5.4,2.3-8
		c0.1-0.3,0.3-0.9,0.1-0.9C13.2,39.7,13.4,41.8,12.8,43.4 M39.1,38.5c-1.1,0.2-2-0.2-3.5-0.3c-1.6-0.2-3.2,0.6-4.6,0.6
		c-1.6-0.1-3.2-1-4.6-0.1c0.2,0.9,0.7,1.2,1.1,1.9c1.6-0.8,2.9,0.5,4.6,0.2c0.6-0.1,1.2-0.5,1.9-0.6c1.7-0.2,3.4,0.6,4.9,0.3
		c1.6-0.2,2.8-0.7,3.8,0.2c0.3-0.6,0.9-0.9,0.9-1.8C42.3,37.8,40.5,38.3,39.1,38.5 M54.4,44.9c-0.2-2.3-0.5-4.3-0.8-6.4
		c0-0.1-0.1-0.1-0.2-0.1C53.8,40.4,53.8,43,54.4,44.9 M55,46.3c0.7,0.1,1.2,0.2,1.9,0.2c0-0.5-0.3-0.6-0.5-0.9h-1.7
		C54.7,46,55,46.1,55,46.3 M12.6,46.7c0.7,0,1.2-0.2,1.9-0.2v-0.6C13.6,45.9,12.7,45.9,12.6,46.7 M23.1,47.2c-0.3,0.1-0.7-0.2-0.9,0
		C22.6,47.2,23,47.6,23.1,47.2"/>
	<path class="st0" d="M11.4,54.8v-0.7h1.8v1.6c-0.2,0.2-0.5,0.3-0.8,0.5c-0.3,0.1-0.7,0.2-1,0.2c-0.5,0-0.8-0.1-1.1-0.2
		c-0.3-0.2-0.6-0.5-0.7-0.8c-0.2-0.3-0.2-0.7-0.2-1.1s0.1-0.8,0.2-1.1c0.2-0.3,0.5-0.6,0.8-0.8c0.2-0.2,0.6-0.2,1-0.2
		c0.6,0,0.9,0.1,1.2,0.3c0.2,0.2,0.6,0.6,0.6,0.9l-0.9,0.2c-0.1-0.2-0.2-0.3-0.3-0.6c-0.2-0.1-0.3-0.2-0.6-0.2
		c-0.3,0-0.7,0.1-0.9,0.3c-0.2,0.2-0.3,0.6-0.3,1c0,0.6,0.1,0.9,0.3,1.1c0.2,0.2,0.6,0.3,0.9,0.3c0.2,0,0.3,0,0.6-0.1
		c0.2-0.1,0.3-0.2,0.5-0.2v-0.5C12.3,54.8,11.4,54.8,11.4,54.8z"/>
	<path class="st0" d="M13.8,54.4c0-0.5,0.1-0.8,0.2-1c0.1-0.2,0.2-0.5,0.3-0.6c0.2-0.2,0.3-0.2,0.6-0.3c0.2-0.1,0.6-0.2,0.9-0.2
		c0.6,0,1.1,0.2,1.5,0.6c0.3,0.3,0.6,0.9,0.6,1.6c0,0.7-0.2,1.2-0.6,1.6c-0.3,0.3-0.9,0.6-1.5,0.6s-1.1-0.2-1.5-0.6
		C14,55.5,13.8,55,13.8,54.4 M14.7,54.4c0,0.5,0.1,0.9,0.3,1c0.2,0.2,0.6,0.3,0.9,0.3c0.3,0,0.6-0.1,0.9-0.3
		c0.2-0.2,0.3-0.6,0.3-1.1c0-0.6-0.1-0.9-0.3-1c-0.2-0.2-0.6-0.3-0.9-0.3c-0.3,0-0.6,0.1-0.9,0.3C14.7,53.4,14.7,53.8,14.7,54.4"/>
	<polygon class="st0" points="19.6,56.4 18,52.3 18.9,52.3 19.9,55.4 20.9,52.3 21.8,52.3 20.4,56.4 	"/>
	<polygon class="st0" points="22.3,56.4 22.3,52.3 25.3,52.3 25.3,53 23.1,53 23.1,53.9 25.1,53.9 25.1,54.6 23.1,54.6 23.1,55.7 
		25.3,55.7 25.3,56.4 	"/>
	<path class="st0" d="M26,56.4v-4.1h1.8c0.5,0,0.8,0,0.9,0.1c0.2,0.1,0.3,0.2,0.6,0.5c0.1,0.2,0.2,0.5,0.2,0.7
		c0,0.3-0.1,0.6-0.2,0.8c-0.2,0.2-0.5,0.3-0.9,0.3c0.2,0.1,0.3,0.2,0.5,0.3c0.1,0.1,0.2,0.3,0.6,0.7l0.6,0.8h-1l-0.6-0.9
		c-0.2-0.3-0.3-0.6-0.5-0.6c-0.1-0.1-0.2-0.2-0.2-0.2c-0.1,0-0.2-0.1-0.5-0.1h-0.3v1.7H26L26,56.4z M26.9,54h0.6
		c0.5,0,0.7,0,0.8-0.1c0.1,0,0.2-0.1,0.2-0.2c0.1-0.1,0.1-0.2,0.1-0.3c0-0.2,0-0.2-0.1-0.3c-0.1-0.1-0.2-0.2-0.3-0.2s-0.2,0-0.6,0
		h-0.7V54z"/>
	<polygon class="st0" points="30.2,56.4 30.2,52.3 31.1,52.3 32.7,55 32.7,52.3 33.5,52.3 33.5,56.4 32.7,56.4 31,53.7 31,56.4 	"/>
	<polygon class="st0" points="34.4,56.4 34.4,52.3 35.6,52.3 36.4,55.1 37.1,52.3 38.3,52.3 38.3,56.4 37.6,56.4 37.6,53.1 
		36.8,56.4 36,56.4 35.2,53.1 35.2,56.4 	"/>
	<polygon class="st0" points="39.1,56.4 39.1,52.3 42.3,52.3 42.3,53 40,53 40,53.9 42.1,53.9 42.1,54.6 40,54.6 40,55.7 42.3,55.7 
		42.3,56.4 	"/>
	<polygon class="st0" points="43,56.4 43,52.3 43.9,52.3 45.5,55 45.5,52.3 46.3,52.3 46.3,56.4 45.5,56.4 43.8,53.7 43.8,56.4 	"/>
	<polygon class="st0" points="48.1,56.4 48.1,53 46.8,53 46.8,52.3 50.2,52.3 50.2,53 48.9,53 48.9,56.4 	"/>
	<path class="st0" d="M52.1,54.4c0-0.5,0.1-0.8,0.2-1c0.1-0.2,0.2-0.5,0.3-0.6c0.2-0.2,0.3-0.2,0.6-0.3c0.2-0.1,0.6-0.2,0.9-0.2
		c0.6,0,1.1,0.2,1.5,0.6s0.6,0.9,0.6,1.6c0,0.7-0.2,1.2-0.6,1.6s-0.9,0.6-1.5,0.6c-0.6,0-1.1-0.2-1.5-0.6
		C52.3,55.5,52.1,55,52.1,54.4 M52.9,54.4c0,0.5,0.1,0.9,0.3,1c0.2,0.2,0.6,0.3,0.9,0.3s0.6-0.1,0.9-0.3c0.2-0.2,0.3-0.6,0.3-1.1
		c0-0.6-0.1-0.9-0.3-1c-0.2-0.2-0.6-0.3-0.9-0.3s-0.6,0.1-0.9,0.3C53,53.4,52.9,53.8,52.9,54.4"/>
	<polygon class="st0" points="56.8,56.4 56.8,52.3 59.5,52.3 59.5,53 57.6,53 57.6,53.9 59.3,53.9 59.3,54.7 57.6,54.7 57.6,56.4 	
		"/>
	<polygon class="st0" points="4,63.3 3,59.2 3.8,59.2 4.4,62 5.1,59.2 6.1,59.2 6.9,62 7.5,59.2 8.4,59.2 7.4,63.3 6.5,63.3 
		5.7,60.2 4.8,63.3 	"/>
	<polygon class="st0" points="8.8,63.3 8.8,59.2 11.9,59.2 11.9,59.9 9.5,59.9 9.5,60.8 11.7,60.8 11.7,61.5 9.5,61.5 9.5,62.6 
		11.9,62.6 11.9,63.3 	"/>
	<path class="st0" d="M12.3,61.9l0.8-0.1c0.1,0.2,0.2,0.6,0.2,0.6c0.2,0.1,0.3,0.2,0.6,0.2c0.2,0,0.6-0.1,0.6-0.2
		c0.2-0.1,0.2-0.2,0.2-0.5c0-0.1,0-0.2-0.1-0.2c-0.1-0.1-0.2-0.1-0.3-0.2c-0.1,0-0.3-0.1-0.7-0.2c-0.5-0.1-0.8-0.2-0.9-0.5
		c-0.2-0.2-0.3-0.6-0.3-0.9c0-0.2,0.1-0.5,0.2-0.6s0.2-0.3,0.6-0.5c0.2-0.1,0.6-0.2,0.8-0.2c0.6,0,0.9,0.1,1.2,0.3
		c0.2,0.2,0.5,0.6,0.5,0.9h-0.9c0-0.2-0.1-0.3-0.2-0.5c-0.1-0.1-0.2-0.2-0.6-0.2c-0.2,0-0.5,0.1-0.6,0.2c-0.1,0.1-0.2,0.2-0.2,0.2
		c0,0.1,0,0.2,0.1,0.2c0.1,0.1,0.3,0.2,0.8,0.2c0.5,0.1,0.7,0.2,0.9,0.2c0.2,0.1,0.3,0.2,0.5,0.5c0.1,0.2,0.2,0.5,0.2,0.7
		s-0.1,0.5-0.2,0.7c-0.2,0.2-0.3,0.3-0.6,0.5c-0.2,0.1-0.6,0.2-0.9,0.2c-0.6,0-0.9-0.1-1.2-0.3C12.7,62.7,12.5,62.4,12.3,61.9"/>
	<polygon class="st0" points="17.4,63.3 17.4,59.9 16.1,59.9 16.1,59.2 19.5,59.2 19.5,59.9 18.1,59.9 18.1,63.3 	"/>
	<polygon class="st0" points="19.9,63.3 19.9,59.2 23,59.2 23,59.9 20.8,59.9 20.8,60.8 22.9,60.8 22.9,61.5 20.8,61.5 20.8,62.6 
		23.1,62.6 23.1,63.3 	"/>
	<path class="st0" d="M23.8,63.3v-4.1h1.8c0.5,0,0.8,0,0.9,0.1c0.2,0.1,0.3,0.2,0.6,0.5c0.1,0.2,0.2,0.5,0.2,0.7
		c0,0.3-0.1,0.6-0.2,0.8c-0.2,0.2-0.5,0.3-0.9,0.3c0.2,0.1,0.3,0.2,0.5,0.3c0.1,0.1,0.2,0.3,0.6,0.7l0.6,0.8h-1l-0.6-0.9
		c-0.2-0.3-0.3-0.6-0.5-0.6c-0.1-0.1-0.2-0.2-0.2-0.2c-0.1,0-0.2-0.1-0.5-0.1h-0.3v1.7H23.8z M24.7,60.9h0.6c0.5,0,0.7,0,0.8-0.1
		c0.1,0,0.2-0.1,0.2-0.2c0.1-0.1,0.1-0.2,0.1-0.3s0-0.2-0.1-0.3s-0.2-0.2-0.3-0.2s-0.2,0-0.6,0h-0.7V60.9z"/>
	<polygon class="st0" points="27.9,63.3 27.9,59.2 28.7,59.2 30.4,61.9 30.4,59.2 31.2,59.2 31.2,63.3 30.3,63.3 28.7,60.6 
		28.7,63.3 	"/>
	<path class="st0" d="M37.1,63.3h-0.9l-0.3-0.9h-1.6l-0.3,0.9H33l1.6-4.1h0.9L37.1,63.3z M35.6,61.7l-0.6-1.6l-0.6,1.6H35.6z"/>
	<path class="st0" d="M37.6,59.2h0.9v2.3c0,0.3,0,0.6,0,0.7c0,0.2,0.1,0.3,0.2,0.5c0.2,0.1,0.3,0.2,0.6,0.2c0.2,0,0.5-0.1,0.6-0.2
		c0.1-0.1,0.2-0.2,0.2-0.3c0-0.2,0-0.3,0-0.7v-2.3h0.9v2.1c0,0.6,0,0.9-0.1,1c-0.1,0.2-0.1,0.3-0.2,0.6c-0.1,0.2-0.2,0.2-0.6,0.3
		c-0.2,0.1-0.5,0.1-0.8,0.1c-0.5,0-0.7-0.1-0.9-0.2c-0.2-0.1-0.3-0.2-0.6-0.3c-0.1-0.2-0.2-0.2-0.2-0.5c-0.1-0.2-0.1-0.6-0.1-1
		L37.6,59.2L37.6,59.2z"/>
	<path class="st0" d="M41.5,61.9l0.8-0.1c0.1,0.2,0.2,0.6,0.2,0.6c0.2,0.1,0.3,0.2,0.6,0.2c0.2,0,0.6-0.1,0.6-0.2
		c0.2-0.1,0.2-0.2,0.2-0.5c0-0.1,0-0.2-0.1-0.2c-0.1-0.1-0.2-0.1-0.2-0.2c-0.1,0-0.3-0.1-0.7-0.2c-0.5-0.1-0.8-0.2-0.9-0.5
		c-0.3-0.1-0.3-0.3-0.3-0.7c0-0.2,0.1-0.5,0.2-0.6c0.1-0.1,0.2-0.3,0.6-0.5c0.2-0.1,0.6-0.2,0.8-0.2c0.6,0,0.9,0.1,1.2,0.3
		c0.2,0.2,0.5,0.6,0.5,0.9H44c0-0.2-0.1-0.3-0.2-0.5c-0.1-0.1-0.2-0.2-0.6-0.2c-0.2,0-0.5,0.1-0.6,0.2c-0.1,0.1-0.2,0.2-0.2,0.2
		c0,0.1,0,0.2,0.1,0.2c0.1,0.1,0.3,0.2,0.8,0.2c0.5,0.1,0.7,0.2,0.9,0.2c0.2,0.1,0.3,0.2,0.5,0.5c0.1,0.2,0.2,0.5,0.2,0.7
		s-0.1,0.5-0.2,0.7c-0.2,0.2-0.3,0.3-0.6,0.5c-0.2,0.1-0.6,0.2-0.9,0.2c-0.6,0-0.9-0.1-1.2-0.3C41.7,62.7,41.6,62.4,41.5,61.9"/>
	<polygon class="st0" points="46.5,63.3 46.5,59.9 45.2,59.9 45.2,59.2 48.5,59.2 48.5,59.9 47.4,59.9 47.4,63.3 	"/>
	<path class="st0" d="M49.1,63.3v-4.1h1.8c0.5,0,0.8,0,0.9,0.1c0.1,0.1,0.3,0.2,0.6,0.5c0.1,0.2,0.2,0.5,0.2,0.7
		c0,0.3-0.1,0.6-0.2,0.8c-0.2,0.2-0.5,0.3-0.9,0.3c0.2,0.1,0.3,0.2,0.5,0.3c0.1,0.1,0.2,0.3,0.6,0.7l0.6,0.8h-1.2l-0.6-0.9
		c-0.2-0.3-0.3-0.6-0.5-0.6c-0.1-0.1-0.2-0.2-0.2-0.2s-0.3-0.1-0.5-0.1h-0.2v1.7H49.1z M49.9,60.9h0.6c0.5,0,0.7,0,0.8-0.1
		c0.1,0,0.2-0.1,0.2-0.2c0.1-0.1,0.1-0.2,0.1-0.3s0-0.2-0.1-0.3s-0.2-0.2-0.3-0.2s-0.2,0-0.6,0h-0.7C49.9,59.7,49.9,60.9,49.9,60.9z
		"/>
	<path class="st0" d="M56.9,63.3H56l-0.3-0.9h-1.6l-0.3,0.9h-0.9l1.6-4.1h0.9L56.9,63.3z M55.3,61.7l-0.6-1.6l-0.6,1.6H55.3z"/>
	<polygon class="st0" points="57.5,63.3 57.5,59.2 58.2,59.2 58.2,62.6 60.3,62.6 60.3,63.3 	"/>
	<rect x="60.8" y="59.2" class="st0" width="0.9" height="4.1"/>
	<path class="st0" d="M66.2,63.3h-0.9l-0.3-0.9h-1.6L63,63.3h-0.9l1.6-4.1h0.9L66.2,63.3z M64.7,61.7l-0.6-1.6l-0.6,1.6H64.7z"/>
	<path class="st0" d="M71.6,16.6V7.9h2.9c0.7,0,1.2,0,1.6,0.1c0.6,0.1,0.9,0.3,1.2,0.6c0.5,0.5,0.8,0.9,1,1.5c0.2,0.6,0.3,1.2,0.3,2
		c0,0.7-0.1,1.2-0.2,1.8c-0.1,0.6-0.3,0.9-0.6,1.2c-0.2,0.3-0.6,0.6-0.8,0.8c-0.2,0.2-0.6,0.3-1,0.5c-0.5,0.1-0.9,0.2-1.4,0.2H71.6
		C71.6,16.5,71.6,16.6,71.6,16.6z M72.7,15.6h1.9c0.6,0,1-0.1,1.4-0.2s0.6-0.2,0.8-0.5c0.2-0.2,0.6-0.7,0.6-1.1
		c0.2-0.5,0.2-1,0.2-1.7c0-0.9-0.2-1.6-0.5-2.1c-0.3-0.6-0.7-0.9-1.1-1c-0.3-0.1-0.8-0.2-1.5-0.2h-1.8L72.7,15.6L72.7,15.6z"/>
	<path class="st0" d="M84.6,14.6l1.1,0.2c-0.2,0.7-0.6,1.1-0.9,1.6c-0.6,0.3-1.1,0.6-1.8,0.6c-0.9,0-1.6-0.2-2.3-0.9
		c-0.6-0.6-0.9-1.4-0.9-2.4s0.2-1.9,0.9-2.5c0.6-0.6,1.2-0.9,2.1-0.9c0.9,0,1.6,0.2,2,0.9c0.6,0.6,0.8,1.4,0.8,2.4
		c0,0.1,0,0.2,0,0.2h-4.6c0,0.7,0.2,1.2,0.6,1.6s0.8,0.6,1.2,0.6c0.5,0,0.8-0.1,1-0.3C84.1,15.3,84.4,15,84.6,14.6 M81.1,12.9h3.5
		c-0.1-0.6-0.2-0.9-0.5-1.2c-0.3-0.5-0.8-0.6-1.4-0.6s-0.9,0.2-1.2,0.6C81.2,11.8,81.1,12.3,81.1,12.9"/>
	<path class="st0" d="M87,19v-8.7h0.9v0.9c0.2-0.3,0.6-0.6,0.8-0.7c0.2-0.2,0.6-0.2,1-0.2c0.6,0,1,0.2,1.5,0.5
		c0.5,0.2,0.7,0.7,0.9,1.2s0.3,1,0.3,1.6c0,0.7-0.1,1.2-0.3,1.7c-0.2,0.5-0.6,0.9-1,1.2c-0.5,0.2-0.9,0.5-1.4,0.5
		c-0.3,0-0.7-0.1-0.9-0.2c-0.2-0.2-0.6-0.3-0.7-0.6v3.1H87V19z M88,13.4c0,0.9,0.2,1.5,0.6,1.8c0.3,0.5,0.8,0.6,1.2,0.6
		c0.6,0,0.9-0.2,1.2-0.6c0.3-0.5,0.6-1,0.6-1.9c0-0.8-0.2-1.4-0.6-1.8c-0.3-0.5-0.7-0.6-1.2-0.6c-0.5,0-0.9,0.2-1.2,0.6
		C88.1,12.1,88,12.7,88,13.4"/>
	<path class="st0" d="M97.8,15.8c-0.5,0.3-0.8,0.6-1.1,0.7c-0.3,0.2-0.8,0.2-1.2,0.2c-0.7,0-1.2-0.2-1.6-0.6
		c-0.3-0.3-0.6-0.8-0.6-1.2c0-0.3,0.1-0.6,0.2-0.9c0.2-0.2,0.3-0.5,0.6-0.6c0.2-0.2,0.6-0.2,0.8-0.3c0.2-0.1,0.6-0.1,0.9-0.2
		c0.9-0.1,1.6-0.2,1.9-0.3c0-0.2,0-0.2,0-0.2c0-0.5-0.1-0.8-0.3-0.9c-0.2-0.2-0.7-0.3-1.2-0.3c-0.6,0-0.9,0.1-1.1,0.2
		c-0.2,0.2-0.5,0.6-0.6,0.9l-1-0.2c0.1-0.5,0.2-0.8,0.5-1.1c0.2-0.1,0.5-0.5,0.9-0.6c0.5-0.2,0.9-0.2,1.5-0.2c0.6,0,0.9,0.1,1.2,0.2
		c0.3,0.1,0.6,0.2,0.8,0.6c0.2,0.2,0.2,0.5,0.3,0.8c0,0.2,0.1,0.6,0.1,1v1.5c0,1,0,1.6,0.1,1.9c0.1,0.2,0.2,0.6,0.2,0.8h-1.1
		C97.9,16.4,97.8,16.1,97.8,15.8 M97.7,13.4c-0.5,0.2-0.9,0.2-1.7,0.5c-0.5,0.1-0.8,0.2-0.9,0.2s-0.3,0.2-0.5,0.3
		c-0.1,0.2-0.2,0.3-0.2,0.6c0,0.2,0.1,0.6,0.3,0.7c0.2,0.2,0.6,0.2,0.9,0.2s0.8-0.1,1.1-0.2c0.3-0.2,0.6-0.5,0.7-0.8
		c0.1-0.2,0.2-0.6,0.2-1.1V13.4z"/>
	<path class="st0" d="M100.5,16.6v-6.3h0.9v0.9c0.2-0.5,0.6-0.8,0.7-0.9c0.2-0.2,0.5-0.2,0.7-0.2c0.3,0,0.8,0.1,1.1,0.3l-0.3,1
		c-0.2-0.2-0.6-0.2-0.8-0.2s-0.5,0.1-0.6,0.2c-0.2,0.2-0.3,0.3-0.5,0.6c-0.1,0.3-0.2,0.8-0.2,1.2v3.3
		C101.5,16.6,100.5,16.6,100.5,16.6z"/>
	<path class="st0" d="M106.9,15.6l0.2,0.9c-0.3,0.1-0.6,0.1-0.8,0.1c-0.5,0-0.7-0.1-0.9-0.2c-0.3,0-0.5-0.2-0.5-0.5
		c-0.1-0.2-0.2-0.6-0.2-1.2v-3.6h-0.8v-0.9h0.8V8.6l1-0.7v2.3h1.1v0.9h-1.1v3.6c0,0.3,0,0.6,0.1,0.6c0,0.1,0.1,0.2,0.2,0.2
		c0.1,0.1,0.2,0.1,0.3,0.1C106.5,15.7,106.7,15.7,106.9,15.6"/>
	<path class="st0" d="M107.9,16.6v-6.3h0.9v0.9c0.2-0.3,0.5-0.6,0.8-0.8c0.3-0.2,0.7-0.2,1.1-0.2c0.5,0,0.9,0.1,1.1,0.2
		c0.3,0.2,0.6,0.5,0.6,0.9c0.6-0.8,1.1-1.1,1.9-1.1c0.6,0,1.1,0.2,1.5,0.6c0.3,0.3,0.6,0.9,0.6,1.6v4.3h-1v-4c0-0.5,0-0.8-0.1-0.9
		c-0.1-0.2-0.2-0.3-0.3-0.5c-0.2-0.1-0.5-0.2-0.7-0.2c-0.5,0-0.9,0.2-1.1,0.5c-0.2,0.2-0.5,0.8-0.5,1.5v3.6h-1.1v-4.1
		c0-0.6-0.1-0.9-0.2-1.1c-0.2-0.2-0.5-0.3-0.9-0.3c-0.3,0-0.6,0.1-0.9,0.2s-0.5,0.5-0.6,0.7c-0.1,0.3-0.2,0.8-0.2,1.2v3.3
		L107.9,16.6L107.9,16.6z"/>
	<path class="st0" d="M122.2,14.6l1.1,0.2c-0.2,0.7-0.6,1.1-0.9,1.6c-0.6,0.3-1.1,0.6-1.8,0.6c-0.9,0-1.6-0.2-2.3-0.9
		c-0.6-0.6-0.8-1.4-0.8-2.4s0.2-1.9,0.9-2.5c0.6-0.6,1.2-0.9,2.1-0.9s1.6,0.2,2,0.9c0.6,0.6,0.8,1.4,0.8,2.4c0,0.1,0,0.2,0,0.2h-4.6
		c0,0.7,0.2,1.2,0.6,1.6s0.8,0.6,1.2,0.6s0.8-0.1,1-0.3C121.9,15.3,122.1,15,122.2,14.6 M118.7,12.9h3.5c-0.1-0.6-0.2-0.9-0.5-1.2
		c-0.3-0.5-0.8-0.6-1.4-0.6c-0.6,0-0.9,0.2-1.2,0.6C119.1,11.8,118.8,12.3,118.7,12.9"/>
	<path class="st0" d="M124.7,16.6v-6.3h0.9v0.9c0.5-0.7,1.1-1,2-1c0.3,0,0.8,0.1,1,0.2c0.3,0.2,0.6,0.3,0.7,0.6
		c0.2,0.2,0.2,0.6,0.3,0.8c0,0.2,0.1,0.6,0.1,1v3.8h-1.1v-3.8c0-0.5,0-0.8-0.1-0.9c-0.1-0.2-0.2-0.5-0.5-0.6
		c-0.2-0.1-0.5-0.2-0.8-0.2c-0.5,0-0.9,0.2-1.2,0.5c-0.3,0.2-0.6,0.9-0.6,1.6v3.4L124.7,16.6L124.7,16.6z"/>
	<path class="st0" d="M133.9,15.6l0.2,0.9c-0.3,0.1-0.6,0.1-0.8,0.1c-0.5,0-0.7-0.1-0.9-0.2c-0.2-0.1-0.3-0.2-0.5-0.6
		c-0.1-0.2-0.2-0.6-0.2-1.2v-3.5h-0.9v-0.9h0.8V8.6l1-0.7v2.3h1.1v0.9h-1.1v3.6c0,0.3,0,0.6,0.1,0.6c0,0.1,0.1,0.2,0.2,0.2
		c0.1,0.1,0.2,0.1,0.3,0.1C133.4,15.7,133.5,15.7,133.9,15.6"/>
	<path class="st0" d="M137.8,13.4c0-1.2,0.3-2,0.9-2.6c0.6-0.5,1.2-0.7,1.9-0.7c0.9,0,1.6,0.2,2.1,0.9c0.6,0.6,0.9,1.4,0.9,2.4
		c0,0.9-0.1,1.5-0.3,1.9c-0.2,0.5-0.6,0.9-1,1.1c-0.5,0.2-0.9,0.5-1.6,0.5c-0.9,0-1.6-0.2-2.1-0.9C138.1,15.3,137.8,14.4,137.8,13.4
		 M139,13.4c0,0.8,0.2,1.5,0.6,1.8c0.3,0.5,0.8,0.6,1.4,0.6c0.6,0,0.9-0.2,1.4-0.6c0.3-0.5,0.6-1,0.6-1.9c0-0.8-0.2-1.4-0.6-1.8
		c-0.3-0.5-0.8-0.6-1.2-0.6c-0.6,0-0.9,0.2-1.4,0.6C139.1,12.1,139,12.6,139,13.4"/>
	<path class="st0" d="M145.3,16.6v-5.4h-0.9v-0.9h0.9V9.6c0-0.5,0-0.8,0.1-0.9c0.1-0.2,0.2-0.6,0.6-0.7c0.2-0.2,0.6-0.2,1.1-0.2
		c0.3,0,0.6,0,1,0.1l-0.2,0.9c-0.2,0-0.5-0.1-0.6-0.1c-0.3,0-0.6,0.1-0.7,0.2c-0.2,0.2-0.2,0.5-0.2,0.8v0.6h1.2v0.9h-1.2v5.4
		L145.3,16.6L145.3,16.6L145.3,16.6z"/>
	<polygon class="st0" points="71.6,31.2 71.6,22.5 78,22.5 78,23.9 73.3,23.9 73.3,25.9 77.7,25.9 77.7,27.3 73.3,27.3 73.3,29.6 
		78.1,29.6 78.1,31.2 	"/>
	<path class="st0" d="M85.4,31.2h-1.6v-0.9c-0.2,0.3-0.6,0.6-0.9,0.8c-0.3,0.2-0.7,0.2-1,0.2c-0.7,0-1.4-0.2-1.9-0.9
		c-0.6-0.6-0.8-1.4-0.8-2.5s0.2-1.9,0.8-2.5c0.6-0.6,1.1-0.9,1.9-0.9c0.7,0,1.2,0.2,1.8,0.9v-3.2h1.7C85.4,22.2,85.4,31.2,85.4,31.2
		z M81,27.9c0,0.7,0.1,1.2,0.2,1.5c0.2,0.5,0.7,0.7,1.1,0.7c0.5,0,0.7-0.2,0.9-0.6c0.2-0.3,0.5-0.9,0.5-1.5c0-0.7-0.2-1.2-0.5-1.6
		s-0.6-0.6-1-0.6c-0.5,0-0.8,0.2-1,0.6C81.1,26.8,81,27.2,81,27.9"/>
	<path class="st0" d="M91.1,31.2v-0.9c-0.2,0.3-0.6,0.6-0.9,0.8c-0.3,0.2-0.8,0.2-1.2,0.2c-0.5,0-0.8-0.1-1.1-0.2
		c-0.3-0.1-0.6-0.5-0.8-0.8c-0.2-0.3-0.2-0.8-0.2-1.4v-4h1.7v2.9c0,0.9,0,1.5,0.1,1.6s0.2,0.3,0.3,0.6c0.2,0.1,0.3,0.2,0.6,0.2
		s0.6-0.1,0.8-0.2c0.2-0.1,0.3-0.3,0.5-0.6c0.1-0.2,0.1-0.8,0.1-1.7v-2.6h1.7v6.3C92.6,31.2,91.1,31.2,91.1,31.2z"/>
	<path class="st0" d="M100,26.8L98.4,27c-0.1-0.3-0.2-0.6-0.3-0.8C97.9,26,97.6,26,97.3,26c-0.5,0-0.8,0.2-1,0.5
		c-0.2,0.2-0.3,0.8-0.3,1.5c0,0.8,0.1,1.2,0.3,1.6s0.6,0.5,1,0.5c0.3,0,0.6-0.1,0.8-0.2c0.2-0.2,0.3-0.6,0.5-0.9l1.6,0.2
		c-0.2,0.8-0.6,1.2-0.9,1.7c-0.6,0.5-1.1,0.6-1.9,0.6c-0.9,0-1.6-0.2-2.3-0.9c-0.6-0.6-0.9-1.4-0.9-2.4c0-1,0.2-1.9,0.9-2.4
		c0.6-0.6,1.2-0.9,2.3-0.9c0.8,0,1.4,0.2,1.8,0.6C99.5,25.5,99.7,26.1,100,26.8"/>
	<path class="st0" d="M102.5,26.8l-1.6-0.2c0.2-0.6,0.5-1,0.9-1.4c0.5-0.2,1-0.5,1.9-0.5c0.8,0,1.2,0.1,1.6,0.2s0.6,0.5,0.8,0.7
		c0.2,0.2,0.2,0.8,0.2,1.6v1.9c0,0.6,0,0.9,0.1,1.2c0.1,0.2,0.2,0.6,0.3,0.9h-1.6c-0.2-0.2-0.2-0.3-0.2-0.7c0-0.1-0.1-0.2-0.1-0.2
		c-0.2,0.2-0.6,0.6-0.9,0.6c-0.3,0.2-0.7,0.2-1,0.2c-0.7,0-1.2-0.2-1.6-0.6s-0.6-0.8-0.6-1.4c0-0.3,0.1-0.7,0.2-0.9
		c0.2-0.2,0.5-0.6,0.7-0.7c0.3-0.2,0.8-0.2,1.4-0.5c0.8-0.2,1.2-0.2,1.6-0.5v-0.2c0-0.3-0.1-0.6-0.2-0.7c-0.1-0.1-0.5-0.2-0.9-0.2
		c-0.2,0-0.6,0.1-0.7,0.2C102.7,26.2,102.6,26.5,102.5,26.8 M104.6,28.1c-0.2,0.1-0.6,0.2-1,0.2c-0.5,0.1-0.8,0.2-0.9,0.2
		c-0.2,0.2-0.3,0.3-0.3,0.6c0,0.2,0.1,0.5,0.2,0.6c0.1,0.1,0.5,0.2,0.7,0.2c0.3,0,0.6-0.1,0.9-0.2c0.2-0.2,0.3-0.3,0.5-0.6
		c0.1-0.2,0.1-0.5,0.1-0.9C104.6,28.5,104.6,28.1,104.6,28.1z"/>
	<path class="st0" d="M110.8,24.8v1.4h-1.1v2.6c0,0.6,0,0.9,0,0.9c0,0.1,0.1,0.2,0.2,0.2c0.1,0.1,0.2,0.1,0.2,0.1
		c0.2,0,0.3-0.1,0.7-0.2l0.2,1.2c-0.5,0.2-0.9,0.2-1.2,0.2c-0.3,0-0.6-0.1-0.9-0.2c-0.2-0.1-0.5-0.2-0.6-0.5
		c-0.1-0.2-0.2-0.3-0.2-0.7c0-0.2-0.1-0.6-0.1-1.2V26h-0.8v-1.4h0.8v-1.2l1.7-0.9v2.3L110.8,24.8L110.8,24.8L110.8,24.8z"/>
	<path class="st0" d="M111.9,22.5h1.7v1.6h-1.7V22.5z M111.9,24.8h1.7v6.3h-1.7V24.8z"/>
	<path class="st0" d="M115,27.9c0-0.6,0.2-1.1,0.5-1.6c0.2-0.6,0.7-0.9,1.2-1.2c0.6-0.2,1-0.5,1.7-0.5c0.9,0,1.7,0.3,2.4,0.9
		c0.6,0.6,0.9,1.4,0.9,2.4c0,0.9-0.3,1.7-0.9,2.4c-0.6,0.6-1.4,0.9-2.3,0.9c-0.6,0-1.1-0.2-1.6-0.5c-0.6-0.2-0.9-0.7-1.2-1.1
		C115.1,29.3,115,28.6,115,27.9 M116.7,28c0,0.6,0.2,1.1,0.5,1.5c0.2,0.3,0.7,0.6,1.1,0.6c0.5,0,0.8-0.2,1.1-0.6
		c0.2-0.3,0.5-0.9,0.5-1.5s-0.2-1.1-0.5-1.5c-0.2-0.3-0.7-0.6-1.1-0.6c-0.5,0-0.8,0.2-1.1,0.6C116.8,26.9,116.7,27.3,116.7,28"/>
	<path class="st0" d="M128.5,31.2h-1.7v-3.3c0-0.7,0-1.1-0.1-1.2c-0.1-0.2-0.2-0.3-0.3-0.5c-0.2-0.1-0.3-0.2-0.6-0.2
		s-0.6,0.1-0.8,0.2c-0.2,0.2-0.5,0.3-0.6,0.6c-0.1,0.2-0.2,0.8-0.2,1.5v2.8h-1.7v-6.3h1.6v0.9c0.6-0.7,1.2-1.1,2-1.1
		c0.3,0,0.7,0.1,1,0.2c0.3,0.2,0.6,0.3,0.7,0.6c0.2,0.2,0.2,0.5,0.3,0.7c0.1,0.2,0.1,0.6,0.1,1.1v4h0.2V31.2z"/>
</g>
</svg>
