<?xml version="1.0" encoding="utf-8"?>
<!-- Generator: Adobe Illustrator 27.9.0, SVG Export Plug-In . SVG Version: 6.00 Build 0)  -->
<svg version="1.1" id="Layer_1" xmlns="http://www.w3.org/2000/svg" xmlns:xlink="http://www.w3.org/1999/xlink" x="0px" y="0px"
	 viewBox="0 0 154.5 64" style="enable-background:new 0 0 154.5 64;" xml:space="preserve">
<style type="text/css">
	.st0{fill-rule:evenodd;clip-rule:evenodd;fill:#231F20;}
	.st1{fill-rule:evenodd;clip-rule:evenodd;fill:#FDD400;}
	.st2{fill:#231F20;}
	.st3{fill-rule:evenodd;clip-rule:evenodd;fill:#F7BAC3;}
	.st4{fill:#FFFFFF;}
</style>
<g>
	<path class="st0" d="M24.6,62.8c0,0-12.3-1.7-16.8-7.1s-6-13.9-6-13.9s13.3-7.3,20.7,1.4C30,52.2,24.6,62.8,24.6,62.8z"/>
	<g>
		<path class="st1" d="M12.4,5.6c1.3-0.6,2.5-1.3,3.7-2.2c2.7-1.6,15.8-2.3,21.6-2.3c6,0.4,12.9,2,17.1,4.8c-0.7-0.5,1,0.7,1.5,1
			c11.5,9.8,13.3,27.6,7.8,41.6c-0.6,1.3-1.4,4.5-1.6,4.5c-4.5,11.6-29.6,9.9-39.9,9c-2.6-1.6,1.2-1.9,1.1-3.2
			c4-5.4,0.4-14.9-5.8-17.9c-5.8-2.8-13.6,3.1-15.7,1.6C1,33.1,1,23.5,4.5,14.4C5.5,11.8,12.1,6.2,12.4,5.6
			C12.7,5.3,12,6.4,12.4,5.6z"/>
		<path class="st2" d="M35.7,63.4c-3.9,0-8.2-0.2-13-0.7l-0.1,0l-0.1-0.1c-0.5-0.3-1.2-0.8-1.2-1.5c0-0.7,0.6-1.1,1.2-1.5
			c0.3-0.2,0.8-0.5,0.8-0.7l0-0.2l0.1-0.2c1.6-2.1,2-5,1.2-8.1c-0.9-3.9-3.6-7.4-6.8-9c-1-0.5-2.1-0.7-3.4-0.7c-2.4,0-4.9,0.8-7,1.6
			c-1.6,0.5-3,1-4.1,1c-0.5,0-1-0.1-1.3-0.4l-0.2-0.1l0-0.2C0.2,31.2,0.9,22.2,4,14.2c0.7-1.8,3.6-4.7,6.5-7.4
			c0.7-0.6,1.3-1.3,1.5-1.5L12,5.2l0.1,0C12.1,5.1,12.2,5,12.4,5c1.2-0.5,2.3-1.2,3.3-2l0.1,0c3-1.8,16.9-2.3,21.7-2.3l0.2,0
			C42.9,1,50,2.4,54.9,5.4c0,0,0.1,0,0.1,0.1l0,0c0,0,0.1,0.1,0.1,0.1l0,0c0.4,0.3,1.2,0.8,1.5,1l0.1,0.1c12.7,10.8,13,29.5,8,42.3
			c-0.3,0.6-0.6,1.7-0.9,2.6c-0.4,1.2-0.6,1.8-0.8,2.1C60.4,60,51.1,63.4,35.7,63.4z M22.9,61.6c4.7,0.4,8.9,0.6,12.8,0.6
			c14.9,0,24-3.2,26.4-9.3l0.1-0.3l0.1,0c0.1-0.3,0.3-1,0.5-1.5c0.3-1,0.6-2,0.9-2.7C68.5,36,68.2,17.9,56,7.5c-0.5-0.3-1.5-1-1.6-1
			C50.6,4,44.1,2.2,37.6,1.8l-0.2,0c-6.2,0-18.6,0.7-21.1,2.2c-1.1,0.8-2.2,1.5-3.5,2.1l0,0c-0.1,0.3-0.3,0.4-0.5,0.4
			c-0.2,0.3-0.6,0.6-1.2,1.2c-1.9,1.8-5.5,5.3-6.2,7c-3,7.7-3.7,16.5-2.1,27.6c0.1,0,0.3,0.1,0.5,0.1c0.9,0,2.2-0.4,3.7-1
			c2.1-0.7,4.8-1.6,7.4-1.6c1.4,0,2.7,0.3,3.8,0.8c3.5,1.7,6.4,5.5,7.4,9.7c0.8,3.4,0.3,6.5-1.3,8.9c-0.1,0.7-0.7,1.2-1.3,1.5
			c-0.2,0.2-0.6,0.4-0.7,0.5C22.3,61.1,22.4,61.3,22.9,61.6z"/>
	</g>
	<path class="st3" d="M20.4,58.9c-0.7,0.2-4.1,1.2-4.8,0.9c-0.3-0.2-4.4-2.1-6.2-3.7c-1.8-1.6-4.1-5.6-4.5-6.3
		c-0.2-0.9,0.7-1.6,0.9-2.4c1.2-2.7-1.1,1.6-1.4,0.8c-1.4-3.4-1.3-3.7-0.6-4.9C4,43.1,7.3,41.7,8,41.4c1.1-0.3,6.9-2.2,10.5,0.1
		c3.6,2.3,6.3,6.5,6.3,11.7s-3.5,8.2-3.8,8.4c-0.9-0.1-2.1-0.5-3.6-1 M16,55.3c0.6,0.1,1,0.1,1.3-0.3c0.1-0.9-0.2-1.4-1.2-1.2
		C15.7,54.1,15.6,54.6,16,55.3C16.5,55.4,15.6,54.6,16,55.3z M9.8,48.3c-0.4,0.5-0.3,1,0.1,1.5C11.7,49.1,11.6,48.6,9.8,48.3
		C9.5,48.8,10.5,48.1,9.8,48.3z"/>
	<g>
		<path class="st4" d="M73.8,15.9L77,6h1.2l3.5,9.9h-1.3l-1-3h-3.5l-0.9,3H73.8z M76.2,11.8h2.9l-0.9-2.7c-0.3-0.8-0.5-1.5-0.6-2.1
			c-0.1,0.6-0.3,1.3-0.5,1.9L76.2,11.8z"/>
		<path class="st4" d="M87.9,6H89v5.7c0,1-0.1,1.8-0.3,2.4c-0.2,0.6-0.5,1.1-1,1.4c-0.5,0.4-1.2,0.6-2,0.6c-0.8,0-1.4-0.2-1.9-0.5
			c-0.5-0.3-0.9-0.8-1.1-1.4c-0.2-0.6-0.3-1.4-0.3-2.5V6h1.1v5.7c0,0.9,0.1,1.5,0.2,1.9c0.1,0.4,0.4,0.7,0.7,0.9
			c0.3,0.2,0.7,0.3,1.2,0.3c0.8,0,1.4-0.2,1.8-0.7c0.3-0.4,0.5-1.3,0.5-2.5V6z"/>
		<path class="st4" d="M90.3,12.7l1.1-0.1c0,0.5,0.2,0.9,0.3,1.2c0.2,0.3,0.5,0.6,0.8,0.8c0.4,0.2,0.8,0.3,1.3,0.3
			c0.4,0,0.8-0.1,1.1-0.2c0.3-0.1,0.6-0.4,0.7-0.6c0.2-0.3,0.2-0.5,0.2-0.8c0-0.3-0.1-0.6-0.2-0.8c-0.2-0.2-0.4-0.4-0.8-0.6
			c-0.2-0.1-0.7-0.3-1.5-0.5c-0.8-0.2-1.3-0.4-1.6-0.6c-0.4-0.2-0.7-0.6-0.9-0.9c-0.2-0.4-0.3-0.8-0.3-1.2c0-0.5,0.1-1,0.4-1.4
			c0.2-0.4,0.6-0.8,1.1-1c0.5-0.2,1-0.3,1.5-0.3c0.6,0,1.2,0.1,1.7,0.4c0.5,0.2,0.8,0.6,1.1,1c0.3,0.5,0.4,1,0.4,1.6l-1.1,0.1
			c-0.1-0.6-0.3-1.1-0.6-1.4C94.8,7.2,94.3,7,93.7,7c-0.7,0-1.2,0.1-1.5,0.4c-0.3,0.3-0.5,0.6-0.5,1.1c0,0.4,0.1,0.6,0.3,0.9
			c0.2,0.2,0.8,0.5,1.7,0.7c0.9,0.2,1.5,0.5,1.9,0.6c0.5,0.3,0.9,0.6,1.1,1c0.2,0.4,0.4,0.9,0.4,1.4c0,0.5-0.1,1-0.4,1.5
			c-0.3,0.5-0.6,0.8-1.1,1.1c-0.5,0.3-1,0.4-1.6,0.4c-0.8,0-1.4-0.1-1.9-0.4c-0.5-0.3-0.9-0.7-1.2-1.2S90.3,13.4,90.3,12.7z"/>
		<path class="st4" d="M100.5,15.9V7.2h-2.8V6h6.7v1.2h-2.8v8.8H100.5z"/>
		<path class="st4" d="M105.4,15.9V6h3.7c0.8,0,1.3,0.1,1.7,0.3c0.4,0.2,0.7,0.5,0.9,0.9c0.2,0.5,0.4,0.9,0.4,1.5
			c0,0.7-0.2,1.3-0.6,1.8c-0.4,0.5-1,0.8-1.8,0.9c0.3,0.2,0.5,0.3,0.7,0.5c0.3,0.4,0.6,0.8,0.9,1.3l1.5,2.7h-1.4l-1.1-2.1
			c-0.3-0.6-0.6-1.1-0.8-1.4c-0.2-0.3-0.4-0.5-0.6-0.7c-0.2-0.1-0.3-0.2-0.5-0.3c-0.1,0-0.3,0-0.6,0h-1.3v4.4H105.4z M106.5,10.4
			h2.4c0.5,0,0.9-0.1,1.2-0.2c0.3-0.1,0.5-0.3,0.7-0.6c0.1-0.3,0.2-0.6,0.2-0.9c0-0.5-0.1-0.9-0.4-1.2c-0.3-0.3-0.7-0.5-1.4-0.5
			h-2.7C106.5,7.1,106.5,10.4,106.5,10.4z"/>
		<path class="st4" d="M112.8,15.9L116,6h1.2l3.5,9.9h-1.3l-1-3h-3.5l-0.9,3H112.8z M115.2,11.8h2.9l-0.9-2.7
			c-0.3-0.8-0.5-1.5-0.6-2.1c-0.1,0.6-0.3,1.3-0.5,1.9L115.2,11.8z"/>
		<path class="st4" d="M121.4,15.9V6h1.1v8.8h4.2v1.2H121.4z"/>
		<path class="st4" d="M128,15.9V6h1.1v9.9H128z"/>
		<path class="st4" d="M130,15.9l3.2-9.9h1.2l3.5,9.9h-1.3l-1-3h-3.5l-0.9,3H130z M132.4,11.8h2.9l-0.9-2.7
			c-0.3-0.8-0.5-1.5-0.6-2.1c-0.1,0.6-0.3,1.3-0.5,1.9L132.4,11.8z"/>
		<path class="st4" d="M138.6,15.9V6h1.1l4.4,7.8V6h1.1v9.9h-1.1l-4.4-7.8v7.8H138.6z"/>
		<path class="st4" d="M81.9,26.9l1.3,0.3c-0.3,1.1-0.8,1.9-1.5,2.5c-0.7,0.6-1.6,0.8-2.6,0.8c-1.1,0-1.9-0.2-2.6-0.7
			c-0.7-0.4-1.2-1.1-1.5-1.9c-0.3-0.8-0.5-1.7-0.5-2.7c0-1,0.2-1.9,0.6-2.7c0.4-0.8,1-1.4,1.7-1.8c0.7-0.4,1.5-0.6,2.4-0.6
			c1,0,1.8,0.3,2.5,0.8c0.7,0.5,1.1,1.2,1.4,2.1l-1.3,0.3c-0.2-0.7-0.6-1.2-1-1.6c-0.4-0.3-1-0.5-1.7-0.5c-0.8,0-1.4,0.2-1.9,0.5
			c-0.5,0.4-0.9,0.9-1.1,1.5c-0.2,0.6-0.3,1.3-0.3,1.9c0,0.8,0.1,1.6,0.4,2.2c0.2,0.6,0.6,1.1,1.1,1.4s1.1,0.5,1.7,0.5
			c0.7,0,1.4-0.2,1.9-0.6C81.4,28.3,81.8,27.7,81.9,26.9z"/>
		<path class="st4" d="M84.5,30.3v-9.9h1.1v4.1H90v-4.1h1.1v9.9H90v-4.7h-4.4v4.7H84.5z"/>
		<path class="st4" d="M93,30.3v-9.9h1.1v9.9H93z"/>
		<path class="st4" d="M95.9,30.3v-9.9H97v8.8h4.2v1.2H95.9z"/>
		<path class="st4" d="M102.4,30.3v-9.9h3.1c0.7,0,1.2,0,1.6,0.1c0.5,0.1,0.9,0.4,1.3,0.7c0.5,0.4,0.8,1,1.1,1.7
			c0.2,0.7,0.3,1.5,0.3,2.4c0,0.8-0.1,1.4-0.2,2c-0.2,0.6-0.4,1.1-0.6,1.4c-0.2,0.4-0.5,0.7-0.8,0.9c-0.3,0.2-0.6,0.4-1.1,0.5
			c-0.4,0.1-0.9,0.2-1.4,0.2L102.4,30.3L102.4,30.3z M103.5,29.2h1.9c0.6,0,1.1-0.1,1.4-0.2s0.6-0.3,0.8-0.5
			c0.3-0.3,0.5-0.7,0.7-1.3c0.2-0.5,0.2-1.2,0.2-1.9c0-1-0.2-1.8-0.5-2.4s-0.7-0.9-1.1-1.1c-0.3-0.1-0.8-0.2-1.5-0.2h-1.9
			L103.5,29.2L103.5,29.2z"/>
		<path class="st4" d="M111.2,30.3v-9.9h4c0.8,0,1.4,0.1,1.8,0.3c0.4,0.2,0.7,0.5,1,0.9c0.2,0.5,0.4,1,0.4,1.5
			c0,0.7-0.2,1.3-0.6,1.8c-0.4,0.5-1,0.8-1.9,0.9c0.3,0.2,0.5,0.3,0.7,0.5c0.3,0.4,0.7,0.8,1,1.3l1.6,2.7h-1.5l-1.2-2.1
			c-0.3-0.6-0.6-1.1-0.9-1.4c-0.2-0.3-0.4-0.5-0.6-0.7c-0.2-0.1-0.4-0.2-0.5-0.3c-0.1,0-0.4,0-0.7,0h-1.4v4.4H111.2z M112.4,24.8
			h2.5c0.5,0,1-0.1,1.3-0.2c0.3-0.1,0.5-0.3,0.7-0.6c0.2-0.3,0.2-0.6,0.2-0.9c0-0.5-0.2-0.9-0.5-1.2s-0.8-0.5-1.5-0.5h-2.8V24.8z"/>
		<path class="st4" d="M120,30.3v-9.9h6.1v1.2h-5v3h4.7v1.2h-4.7v3.4h5.2v1.2H120z"/>
		<path class="st4" d="M127.6,30.3v-9.9h1.1l4.4,7.8v-7.8h1.1v9.9h-1.1l-4.4-7.8v7.8H127.6z"/>
		<path class="st4" d="M135.8,21.7v-1.4h1.1v1.1c0,0.6-0.1,1-0.2,1.3c-0.2,0.4-0.4,0.6-0.8,0.8l-0.3-0.5c0.2-0.1,0.4-0.3,0.5-0.5
			c0.1-0.2,0.2-0.5,0.2-0.9L135.8,21.7L135.8,21.7z"/>
		<path class="st4" d="M138,27.1l1.1-0.1c0,0.5,0.2,0.9,0.3,1.2c0.2,0.3,0.5,0.6,0.8,0.8c0.4,0.2,0.8,0.3,1.3,0.3
			c0.4,0,0.8-0.1,1.1-0.2c0.3-0.1,0.6-0.4,0.7-0.6c0.2-0.3,0.2-0.5,0.2-0.8c0-0.3-0.1-0.6-0.2-0.8c-0.2-0.2-0.4-0.4-0.8-0.6
			c-0.2-0.1-0.7-0.3-1.5-0.5c-0.8-0.2-1.3-0.4-1.6-0.6c-0.4-0.2-0.7-0.6-0.9-0.9c-0.2-0.4-0.3-0.8-0.3-1.2c0-0.5,0.1-1,0.4-1.4
			c0.2-0.4,0.6-0.8,1.1-1c0.5-0.2,1-0.3,1.5-0.3c0.6,0,1.2,0.1,1.7,0.4c0.5,0.2,0.8,0.6,1.1,1c0.3,0.5,0.4,1,0.4,1.6l-1.1,0.1
			c-0.1-0.6-0.3-1.1-0.6-1.4c-0.3-0.3-0.8-0.5-1.5-0.5c-0.7,0-1.2,0.1-1.5,0.4c-0.3,0.3-0.5,0.6-0.5,1.1c0,0.4,0.1,0.6,0.3,0.9
			c0.2,0.2,0.8,0.5,1.7,0.7c0.9,0.2,1.5,0.5,1.9,0.6c0.5,0.3,0.9,0.6,1.1,1c0.2,0.4,0.4,0.9,0.4,1.4c0,0.5-0.1,1-0.4,1.5
			c-0.3,0.5-0.6,0.8-1.1,1.1c-0.5,0.3-1,0.4-1.6,0.4c-0.8,0-1.4-0.1-1.9-0.4c-0.5-0.3-0.9-0.7-1.2-1.2C138.2,28.4,138,27.8,138,27.1
			z"/>
		<path class="st4" d="M76.5,44.8V36H74v-1.2h5.9V36h-2.5v8.7H76.5z"/>
		<path class="st4" d="M80.8,44.8v-9.9h5.4V36h-4.4v3h4.1v1.2h-4.1v3.4h4.6v1.2H80.8z"/>
		<path class="st4" d="M87.5,44.8v-9.9h1v8.8h3.7v1.2H87.5z"/>
		<path class="st4" d="M93.2,44.8v-9.9h5.4V36h-4.4v3h4.1v1.2h-4.1v3.4h4.6v1.2H93.2z"/>
		<path class="st4" d="M102.5,44.8l-3.3-9.9h1.2l2.2,7.2c0.2,0.6,0.3,1.1,0.4,1.6c0.1-0.5,0.3-1.1,0.5-1.6l2.3-7.2h1.1l-3.3,9.9
			H102.5z"/>
		<path class="st4" d="M107.9,44.8v-9.9h1.1v9.9H107.9z"/>
		<path class="st4" d="M110.5,41.6l1.1-0.1c0,0.5,0.2,0.9,0.3,1.2c0.2,0.3,0.5,0.6,0.8,0.8c0.4,0.2,0.8,0.3,1.3,0.3
			c0.4,0,0.8-0.1,1.1-0.2c0.3-0.1,0.6-0.4,0.7-0.6c0.2-0.3,0.2-0.5,0.2-0.8c0-0.3-0.1-0.6-0.2-0.8c-0.2-0.2-0.4-0.4-0.8-0.6
			c-0.2-0.1-0.7-0.3-1.5-0.5c-0.8-0.2-1.3-0.4-1.6-0.6c-0.4-0.2-0.7-0.6-0.9-0.9c-0.2-0.4-0.3-0.8-0.3-1.2c0-0.5,0.1-1,0.4-1.4
			c0.2-0.4,0.6-0.8,1.1-1c0.5-0.2,1-0.3,1.5-0.3c0.6,0,1.2,0.1,1.7,0.4c0.5,0.2,0.8,0.6,1.1,1c0.3,0.5,0.4,1,0.4,1.6l-1.1,0.1
			c-0.1-0.6-0.3-1.1-0.6-1.4c-0.3-0.3-0.8-0.5-1.5-0.5c-0.7,0-1.2,0.1-1.5,0.4c-0.3,0.3-0.5,0.6-0.5,1.1c0,0.4,0.1,0.6,0.3,0.9
			c0.2,0.2,0.8,0.5,1.7,0.7c0.9,0.2,1.5,0.5,1.9,0.6c0.5,0.3,0.9,0.6,1.1,1c0.2,0.4,0.4,0.9,0.4,1.4c0,0.5-0.1,1-0.4,1.5
			c-0.3,0.5-0.6,0.8-1.1,1.1c-0.5,0.3-1,0.4-1.6,0.4c-0.8,0-1.4-0.1-1.9-0.4c-0.5-0.3-0.9-0.7-1.2-1.2
			C110.6,42.8,110.5,42.2,110.5,41.6z"/>
		<path class="st4" d="M118.7,44.8v-9.9h1.1v9.9H118.7z"/>
		<path class="st4" d="M121.4,39.9c0-1.6,0.4-2.9,1.3-3.9c0.9-0.9,2-1.4,3.4-1.4c0.9,0,1.7,0.2,2.5,0.7c0.7,0.4,1.3,1,1.7,1.8
			c0.4,0.8,0.6,1.7,0.6,2.7c0,1-0.2,1.9-0.6,2.7c-0.4,0.8-1,1.4-1.7,1.8c-0.7,0.4-1.5,0.6-2.4,0.6c-0.9,0-1.8-0.2-2.5-0.7
			c-0.7-0.5-1.3-1.1-1.7-1.8C121.6,41.6,121.4,40.8,121.4,39.9z M122.7,39.9c0,1.2,0.3,2.1,1,2.8c0.6,0.7,1.4,1,2.4,1
			c1,0,1.8-0.3,2.4-1c0.6-0.7,1-1.7,1-3c0-0.8-0.1-1.5-0.4-2.1c-0.3-0.6-0.7-1.1-1.2-1.4c-0.5-0.3-1.1-0.5-1.8-0.5
			c-0.9,0-1.7,0.3-2.4,1C123.1,37.4,122.7,38.4,122.7,39.9z"/>
		<path class="st4" d="M132.2,44.8v-9.9h1.1l4.4,7.8v-7.8h1.1v9.9h-1.1l-4.4-7.8v7.8H132.2z"/>
		<path class="st4" d="M74.8,59.2v-9.9h5.7v1.2h-4.6v3.1h4v1.2h-4v4.5L74.8,59.2L74.8,59.2z"/>
		<path class="st4" d="M81.5,54.3c0-1.6,0.4-2.9,1.3-3.9c0.9-0.9,2-1.4,3.4-1.4c0.9,0,1.7,0.2,2.5,0.7c0.7,0.4,1.3,1,1.7,1.8
			s0.6,1.7,0.6,2.7c0,1-0.2,1.9-0.6,2.7c-0.4,0.8-1,1.4-1.7,1.8c-0.7,0.4-1.5,0.6-2.4,0.6c-0.9,0-1.8-0.2-2.5-0.7
			c-0.7-0.5-1.3-1.1-1.7-1.8C81.7,56,81.5,55.2,81.5,54.3z M82.8,54.4c0,1.2,0.3,2.1,1,2.8c0.6,0.7,1.4,1,2.4,1c1,0,1.8-0.3,2.4-1
			c0.6-0.7,1-1.7,1-3c0-0.8-0.1-1.5-0.4-2.1c-0.3-0.6-0.7-1.1-1.2-1.4c-0.5-0.3-1.1-0.5-1.8-0.5c-0.9,0-1.7,0.3-2.4,1
			C83.2,51.8,82.8,52.9,82.8,54.4z"/>
		<path class="st4" d="M97.8,49.2h1.1V55c0,1-0.1,1.8-0.3,2.4c-0.2,0.6-0.5,1.1-1,1.4c-0.5,0.4-1.2,0.6-2,0.6
			c-0.8,0-1.4-0.2-1.9-0.5c-0.5-0.3-0.9-0.8-1.1-1.4c-0.2-0.6-0.3-1.4-0.3-2.5v-5.7h1.1V55c0,0.9,0.1,1.5,0.2,1.9
			c0.1,0.4,0.4,0.7,0.7,0.9c0.3,0.2,0.7,0.3,1.2,0.3c0.8,0,1.4-0.2,1.8-0.7c0.3-0.4,0.5-1.3,0.5-2.5C97.8,55,97.8,49.2,97.8,49.2z"
			/>
		<path class="st4" d="M100.7,59.2v-9.9h1.3l5,7.8v-7.8h1.2v9.9h-1.3l-5-7.8v7.8H100.7z"/>
		<path class="st4" d="M110,59.2v-9.9h3.2c0.7,0,1.3,0,1.7,0.1c0.5,0.1,1,0.4,1.4,0.7c0.5,0.4,0.9,1,1.1,1.7s0.4,1.5,0.4,2.4
			c0,0.8-0.1,1.4-0.3,2c-0.2,0.6-0.4,1.1-0.6,1.4c-0.3,0.4-0.5,0.7-0.9,0.9c-0.3,0.2-0.7,0.4-1.1,0.5c-0.4,0.1-0.9,0.2-1.5,0.2
			L110,59.2L110,59.2z M111.3,58h2c0.6,0,1.1-0.1,1.5-0.2c0.4-0.1,0.6-0.3,0.8-0.5c0.3-0.3,0.5-0.7,0.7-1.3c0.2-0.5,0.2-1.2,0.2-1.9
			c0-1-0.2-1.8-0.5-2.4s-0.7-0.9-1.2-1.1c-0.3-0.1-0.9-0.2-1.6-0.2h-2L111.3,58L111.3,58z"/>
		<path class="st4" d="M118.3,59.2l3.2-9.9h1.2l3.5,9.9h-1.3l-1-3h-3.5l-0.9,3H118.3z M120.7,55.1h2.9l-0.9-2.7
			c-0.3-0.8-0.5-1.5-0.6-2.1c-0.1,0.6-0.3,1.3-0.5,1.9L120.7,55.1z"/>
		<path class="st4" d="M128.2,59.2v-8.7h-2.8v-1.2h6.7v1.2h-2.8v8.7H128.2z"/>
		<path class="st4" d="M133.3,59.2v-9.9h1.1v9.9H133.3z"/>
		<path class="st4" d="M135.9,54.3c0-1.6,0.4-2.9,1.3-3.9c0.9-0.9,2-1.4,3.4-1.4c0.9,0,1.7,0.2,2.5,0.7c0.7,0.4,1.3,1,1.7,1.8
			c0.4,0.8,0.6,1.7,0.6,2.7c0,1-0.2,1.9-0.6,2.7c-0.4,0.8-1,1.4-1.7,1.8c-0.7,0.4-1.5,0.6-2.4,0.6c-0.9,0-1.8-0.2-2.5-0.7
			c-0.7-0.5-1.3-1.1-1.7-1.8C136.1,56,135.9,55.2,135.9,54.3z M137.3,54.4c0,1.2,0.3,2.1,1,2.8c0.6,0.7,1.4,1,2.4,1
			c1,0,1.8-0.3,2.4-1c0.6-0.7,1-1.7,1-3c0-0.8-0.1-1.5-0.4-2.1c-0.3-0.6-0.7-1.1-1.2-1.4c-0.5-0.3-1.1-0.5-1.8-0.5
			c-0.9,0-1.7,0.3-2.4,1C137.6,51.8,137.3,52.9,137.3,54.4z"/>
		<path class="st4" d="M146.7,59.2v-9.9h1.1l4.4,7.8v-7.8h1.1v9.9h-1.1l-4.4-7.8v7.8H146.7z"/>
	</g>
</g>
</svg>
