<?xml version="1.0" encoding="UTF-8"?>
<svg id="Layer_1" data-name="Layer 1" xmlns="http://www.w3.org/2000/svg" viewBox="0 0 20 20">
  <path d="m5.1.97s.06.06.1.08c.29.14.44.45.39.77-.07.42-.44.64-.79.64-.75-.02-1.5,0-2.25-.01-.13,0-.15.04-.15.15,0,.73,0,1.46,0,2.19,0,.26-.09.5-.27.69-.19.21-.44.26-.72.15-.2-.08-.35-.21-.45-.39-.02-.03-.01-.1-.08-.07,0-.02,0-.04,0-.06,0,0,.02,0,.03,0,0,0-.02-.01-.03-.02,0-1.23,0-2.46,0-3.69.04.03.06,0,.08-.03.07-.15.19-.24.32-.33.04,0,.07,0,.1,0,.21-.07.43-.09.65-.08,1.02.01,2.05-.03,3.07.02Z"/>
  <path d="m19.12,5.02s-.05,0-.06.03c-.09.34-.31.56-.67.62-.26.04-.45-.1-.61-.28-.14-.16-.19-.35-.19-.56,0-.74,0-1.49,0-2.23,0-.1-.02-.13-.13-.14-.71-.06-1.41,0-2.12-.03-.13,0-.27,0-.39-.02-.36-.07-.51-.37-.57-.68-.05-.26.11-.47.31-.64.06-.05.17,0,.19-.11,1.24-.05,2.47-.06,3.71,0,.2.11.38.25.47.47,0,.02.02.03.04,0v.06c-.05.02-.02.04,0,.06v3.44Z"/>
  <path d="m14.96,19.07c.02-.07-.04-.06-.07-.08-.35-.21-.5-.57-.38-.93.09-.29.42-.5.77-.5.71,0,1.43,0,2.14,0,.14,0,.19-.04.19-.19,0-.78,0-1.56,0-2.34,0-.27.14-.46.35-.58.24-.14.49-.15.74,0,.17.1.32.22.38.41,0,.02.03.03.05,0v3.47s-.01.02-.02.03c0,0,.01,0,.02,0v.06s-.05,0-.05.02c-.07.28-.22.48-.51.56-.02,0-.05.03-.02.05h-.15c-.02-.05-.04-.02-.06,0h-3.28s-.02-.01-.03-.02c0,0,0,.01,0,.02h-.06Z"/>
  <path d="m.88,14.81c.1-.01.1-.12.16-.18.29-.35.84-.38,1.16-.01.14.17.21.37.21.59,0,.74.01,1.48,0,2.22,0,.14.04.17.17.17.69,0,1.39,0,2.08,0,.19,0,.38.04.56.14.27.15.36.38.35.66-.01.27-.15.48-.39.62-.03.02-.07.03-.1.06H1.46s-.02-.01-.03-.02c0,0,0,.01,0,.02h-.06s0-.04,0-.04c-.18-.09-.31-.22-.4-.4-.01-.03-.03-.07-.08-.04,0-1.26,0-2.52,0-3.78Z"/>
  <path d="m.88,5.08s.02.01.03.02c0,0-.02,0-.03,0,0-.01,0-.02,0-.03Z"/>
  <path d="m1.43,19.07s0-.01,0-.02c0,0,.02.01.03.02h-.03Z"/>
  <path d="m15.02,19.07s0-.01,0-.02c0,0,.02.01.03.02h-.03Z"/>
  <path d="m9.94,16.04c-1.77,0-3.54,0-5.3,0-.35,0-.69-.34-.69-.69,0-.96,0-1.91,0-2.87,0-2.41,0-4.81,0-7.22,0-.21-.04-.42,0-.64.04-.26.18-.45.41-.56.15-.07.32-.1.49-.1,3.42,0,6.85,0,10.27,0,.27,0,.53.05.72.26.14.15.2.34.2.54,0,.25,0,.5,0,.76,0,3.18,0,6.36,0,9.55,0,.15,0,.29-.05.43-.14.4-.33.55-.76.55-1.77,0-3.54,0-5.3,0h0Zm-4.47-6.08h0c0,1.47,0,2.93,0,4.4,0,.14.06.15.17.15,1.46,0,2.93,0,4.39,0,1.44,0,2.88,0,4.32,0,.14,0,.19-.05.18-.18,0-.04,0-.07,0-.11,0-2.84,0-5.68,0-8.52,0-.07-.02-.14-.03-.21,0-.03-.01-.05-.06-.05-.13,0-.26-.01-.39-.01-2.82,0-5.63,0-8.45,0-.13,0-.14.04-.14.15,0,1.46,0,2.92,0,4.38Z"/>
</svg>