<?xml version="1.0" encoding="utf-8"?><svg id="rr-banner" image-rendering="optimizeSpeed" baseProfile="basic" version="1.1" x="0px" y="0px" width="230" height="230" xmlns="http://www.w3.org/2000/svg" xmlns:xlink="http://www.w3.org/1999/xlink"><g id="Scene-1" overflow="visible"><g id="Layer216_0_FILL"><path fill="#94C34A" stroke="none" d="M67.05 95.6Q41.2 46.1 10.8 13.4 2.1 4 -4.95 -2.1L-4.95 233.6 114.4 233.6Q112.95 223.55 110.3 211.15 98.3 155.3 67.05 95.6Z"/><animate attributeName="display" repeatCount="indefinite" dur="3s" keyTimes="0;.9861;1" values="none;inline;inline"/></g><g display="none" id="Layer213_0_FILL"><path fill="#94C34A" stroke="none" d="M27.15 32.55Q19.2 22.35 10.8 13.4 2.15 4.05 -4.95 -2.1L-4.95 233.6 113.3 233.6Q113.85 233.6 114.4 233.6 113 223.9 110.6 212.45 110.45 211.8 110.3 211.1 107.1 196.15 102.55 180.9 90.4 140.7 68.75 98.7 67.95 97.1 67.1 95.5 48.35 59.6 27.15 32.55Z"/><animate attributeName="display" repeatCount="indefinite" dur="3s" keyTimes="0;.9444;.9583;1" values="none;inline;none;none"/></g><g display="none" id="Layer212_0_FILL"><path fill="#94C34A" stroke="none" d="M27.2 32.5Q19.25 22.35 10.8 13.35 2.15 4.05 -4.95 -2.1L-4.95 233.6 113.35 233.6Q113.85 233.6 114.4 233.55 113 223.75 110.6 212.4 110.45 211.75 110.3 211.05 107.15 196.1 102.55 180.85 90.45 140.6 68.8 98.65 68 97.05 67.15 95.45 48.45 59.55 27.2 32.5Z"/><animate attributeName="display" repeatCount="indefinite" dur="3s" keyTimes="0;.9306;.9444;1" values="none;inline;none;none"/></g><g display="none" id="Layer211_0_FILL"><path fill="#94C34A" stroke="none" d="M27.2 32.5Q19.25 22.35 10.8 13.35 2.2 4.05 -4.95 -2.1L-4.95 232.85 -4.9 233.6 113.35 233.6Q113.85 233.6 114.4 233.55 112.95 223.5 110.6 212.4 110.45 211.7 110.3 211 107.15 196 102.6 180.8 90.5 140.5 68.9 98.6 68.1 97 67.25 95.4 48.5 59.55 27.2 32.5Z"/><animate attributeName="display" repeatCount="indefinite" dur="3s" keyTimes="0;.9167;.9306;1" values="none;inline;none;none"/></g><g display="none" id="Layer210_0_FILL"><path fill="#94C34A" stroke="none" d="M27.25 32.45Q19.35 22.35 10.8 13.35 2.2 4.1 -4.95 -2.1L-4.95 232.85 -4.9 233.6 113.35 233.6Q113.9 233.55 114.4 233.55 112.95 223.25 110.6 212.3 110.5 211.65 110.35 210.95 107.15 195.95 102.65 180.75 90.55 140.4 68.95 98.5 68.15 96.9 67.3 95.3 48.6 59.45 27.25 32.45Z"/><animate attributeName="display" repeatCount="indefinite" dur="3s" keyTimes="0;.9028;.9167;1" values="none;inline;none;none"/></g><g display="none" id="Layer209_0_FILL"><path fill="#94C34A" stroke="none" d="M27.25 32.35Q19.4 22.4 10.8 13.3 2.25 4.15 -4.95 -2.1L-4.95 232.85 -4.9 233.6 113.4 233.6Q113.9 233.55 114.4 233.5 112.9 222.95 110.65 212.25 110.5 211.6 110.35 210.9 107.2 195.85 102.65 180.65 90.65 140.25 69.05 98.4 68.25 96.8 67.4 95.2 48.7 59.4 27.25 32.35Z"/><animate attributeName="display" repeatCount="indefinite" dur="3s" keyTimes="0;.8889;.9028;1" values="none;inline;none;none"/></g><g display="none" id="Layer208_0_FILL"><path fill="#94C34A" stroke="none" d="M27.3 32.3Q19.45 22.4 10.85 13.3 2.3 4.2 -4.95 -2.1L-4.95 232.9 -4.85 233.6 113.4 233.6Q113.9 233.55 114.4 233.45 112.85 222.6 110.65 212.2 110.5 211.55 110.35 210.85 107.2 195.75 102.7 180.55 90.75 140.1 69.15 98.25 68.35 96.65 67.5 95.05 48.8 59.35 27.3 32.3Z"/><animate attributeName="display" repeatCount="indefinite" dur="3s" keyTimes="0;.875;.8889;1" values="none;inline;none;none"/></g><g display="none" id="Layer207_0_FILL"><path fill="#94C34A" stroke="none" d="M27.35 32.2Q19.55 22.4 10.85 13.25 2.35 4.25 -4.95 -2.1L-4.95 232.9 -4.85 233.6 113.45 233.6Q113.9 233.5 114.35 233.45 112.8 222.2 110.65 212.1 110.5 211.45 110.35 210.75 107.25 195.65 102.8 180.45 90.85 139.9 69.3 98.1 68.45 96.5 67.6 94.9 48.95 59.25 27.35 32.2Z"/><animate attributeName="display" repeatCount="indefinite" dur="3s" keyTimes="0;.8611;.875;1" values="none;inline;none;none"/></g><g display="none" id="Layer206_0_FILL"><path fill="#94C34A" stroke="none" d="M27.4 32.1Q19.65 22.4 10.85 13.25 2.4 4.3 -4.95 -2.1L-4.95 232.95 -4.8 233.6 113.5 233.6Q113.9 233.5 114.35 233.4 112.7 221.75 110.65 212 110.5 211.35 110.4 210.65 107.25 195.5 102.85 180.35 90.95 139.7 69.4 97.95 68.6 96.35 67.75 94.75 49.1 59.15 27.4 32.1Z"/><animate attributeName="display" repeatCount="indefinite" dur="3s" keyTimes="0;.8472;.8611;1" values="none;inline;none;none"/></g><g display="none" id="Layer205_0_FILL"><path fill="#94C34A" stroke="none" d="M27.45 32Q19.75 22.4 10.85 13.2 2.5 4.35 -4.95 -2.1L-4.95 232.95 -4.8 233.6 113.5 233.6Q113.95 233.5 114.35 233.35 112.65 221.3 110.7 211.9 110.55 211.25 110.4 210.55 107.3 195.35 102.9 180.2 91.1 139.45 69.55 97.75 68.75 96.15 67.9 94.55 49.3 59.05 27.45 32Z"/><animate attributeName="display" repeatCount="indefinite" dur="3s" keyTimes="0;.8333;.8472;1" values="none;inline;none;none"/></g><g display="none" id="Layer204_0_FILL"><path fill="#94C34A" stroke="none" d="M27.5 31.9Q19.85 22.45 10.85 13.15 2.55 4.4 -4.95 -2.1L-4.95 233 -4.75 233.6 113.55 233.6Q113.95 233.45 114.35 233.3 112.6 220.75 110.7 211.8 110.55 211.1 110.4 210.4 107.35 195.2 103 180.1 91.25 139.2 69.7 97.6 68.9 96 68.05 94.4 49.45 58.95 27.5 31.9Z"/><animate attributeName="display" repeatCount="indefinite" dur="3s" keyTimes="0;.8194;.8333;1" values="none;inline;none;none"/></g><g display="none" id="Layer203_0_FILL"><path fill="#94C34A" stroke="none" d="M27.55 31.8Q20 22.45 10.85 13.1 2.6 4.5 -4.95 -2.1L-4.95 233 -4.75 233.6 113.6 233.6Q113.95 233.45 114.35 233.25 112.5 220.15 110.7 211.65 110.55 211 110.45 210.3 107.4 195 103.1 179.95 91.4 138.9 69.9 97.35 69.1 95.75 68.25 94.15 49.65 58.8 27.55 31.8Z"/><animate attributeName="display" repeatCount="indefinite" dur="3s" keyTimes="0;.8056;.8194;1" values="none;inline;none;none"/></g><g display="none" id="Layer202_0_FILL"><path fill="#94C34A" stroke="none" d="M27.6 31.65Q20.15 22.45 10.9 13.05 2.7 4.6 -4.95 -2.1L-4.95 233.05 -4.7 233.6 113.65 233.6Q114 233.4 114.35 233.2 112.4 219.55 110.75 211.5 110.6 210.85 110.45 210.15 107.45 194.8 103.2 179.75 91.55 138.6 70.1 97.15 69.3 95.55 68.45 93.95 49.9 58.7 27.6 31.65Z"/><animate attributeName="display" repeatCount="indefinite" dur="3s" keyTimes="0;.7917;.8056;1" values="none;inline;none;none"/></g><g display="none" id="Layer201_0_FILL"><path fill="#94C34A" stroke="none" d="M27.65 31.5Q20.25 22.5 10.9 13 2.8 4.65 -4.95 -2.1L-4.95 233.1 -4.65 233.6 113.7 233.6Q114 233.4 114.35 233.15 112.3 218.85 110.75 211.4 110.6 210.7 110.5 210 107.5 194.6 103.3 179.6 91.75 138.3 70.3 96.9 69.5 95.3 68.65 93.7 50.1 58.55 27.65 31.5Z"/><animate attributeName="display" repeatCount="indefinite" dur="3s" keyTimes="0;.7778;.7917;1" values="none;inline;none;none"/></g><g display="none" id="Layer200_0_FILL"><path fill="#94C34A" stroke="none" d="M27.75 31.35Q20.4 22.5 10.9 12.95 2.9 4.75 -4.95 -2.1L-4.95 233.15 -4.6 233.6 113.75 233.6Q114.05 233.35 114.3 233.1 112.2 218.15 110.75 211.25 110.65 210.55 110.5 209.85 107.55 194.4 103.4 179.4 91.95 137.95 70.5 96.65 69.7 95.05 68.85 93.45 50.35 58.4 27.75 31.35Z"/><animate attributeName="display" repeatCount="indefinite" dur="3s" keyTimes="0;.7639;.7778;1" values="none;inline;none;none"/></g><g display="none" id="Layer199_0_FILL"><path fill="#94C34A" stroke="none" d="M27.8 31.2Q20.6 22.5 10.9 12.9 3 4.85 -4.95 -2.1L-4.95 233.2 -4.55 233.6 113.8 233.6Q114.05 233.3 114.3 233.05 112.1 217.4 110.8 211.05 110.65 210.4 110.55 209.7 107.6 194.15 103.5 179.2 92.15 137.55 70.75 96.35 69.95 94.75 69.1 93.15 50.65 58.25 27.8 31.2Z"/><animate attributeName="display" repeatCount="indefinite" dur="3s" keyTimes="0;.75;.7639;1" values="none;inline;none;none"/></g><g display="none" id="Layer198_0_FILL"><path fill="#94C34A" stroke="none" d="M27.9 31.05Q20.75 22.55 10.95 12.85 3.1 4.95 -4.95 -2.1L-4.95 233.2 -4.55 233.6 113.9 233.6Q114.1 233.3 114.3 232.95 112 216.55 110.8 210.9 110.7 210.2 110.55 209.5 107.65 193.95 103.65 179 92.35 137.2 71 96.05 70.15 94.45 69.3 92.85 50.9 58.05 27.9 31.05Z"/><animate attributeName="display" repeatCount="indefinite" dur="3s" keyTimes="0;.7361;.75;1" values="none;inline;none;none"/></g><g display="none" id="Layer197_0_FILL"><path fill="#94C34A" stroke="none" d="M27.95 30.9Q20.95 22.55 10.95 12.8 3.2 5.05 -4.95 -2.1L-4.95 233.25 -4.5 233.6 113.95 233.6Q114.1 233.25 114.3 232.9 111.9 215.8 110.85 210.7 110.7 210.05 110.6 209.35 107.7 193.7 103.75 178.8 92.55 136.8 71.25 95.75 70.4 94.15 69.55 92.55 51.2 57.9 27.95 30.9Z"/><animate attributeName="display" repeatCount="indefinite" dur="3s" keyTimes="0;.7222;.7361;1" values="none;inline;none;none"/></g><g display="none" id="Layer196_0_FILL"><path fill="#94C34A" stroke="none" d="M28.05 30.75Q21.1 22.55 10.95 12.75 3.3 5.15 -4.95 -2.1L-4.95 233.3 -4.45 233.6 114 233.6Q114.15 233.2 114.25 232.85 111.8 215.1 110.85 210.55 110.75 209.9 110.6 209.2 107.75 193.5 103.85 178.6 92.75 136.45 71.45 95.5 70.6 93.9 69.75 92.3 51.45 57.75 28.05 30.75Z"/><animate attributeName="display" repeatCount="indefinite" dur="3s" keyTimes="0;.7083;.7222;1" values="none;inline;none;none"/></g><g display="none" id="Layer195_0_FILL"><path fill="#94C34A" stroke="none" d="M28.1 30.6Q21.2 22.6 10.95 12.7 3.4 5.2 -4.95 -2.1L-4.95 233.35 -4.4 233.6 114.05 233.6Q114.15 233.2 114.25 232.8 111.7 214.4 110.85 210.45 110.75 209.75 110.65 209.05 107.8 193.3 103.95 178.45 92.95 136.15 71.65 95.25 70.8 93.65 69.95 92.05 51.65 57.6 28.1 30.6Z"/><animate attributeName="display" repeatCount="indefinite" dur="3s" keyTimes="0;.6944;.7083;1" values="none;inline;none;none"/></g><g display="none" id="Layer194_0_FILL"><path fill="#94C34A" stroke="none" d="M28.15 30.45Q21.35 22.6 11 12.65 3.5 5.3 -4.95 -2.1L-4.95 233.4 -4.35 233.6 114.1 233.6Q114.2 233.15 114.25 232.75 111.6 213.8 110.9 210.3 110.8 209.6 110.65 208.9 107.85 193.1 104.05 178.25 93.1 135.85 71.85 95.05 71 93.45 70.15 91.85 51.9 57.5 28.15 30.45Z"/><animate attributeName="display" repeatCount="indefinite" dur="3s" keyTimes="0;.6806;.6944;1" values="none;inline;none;none"/></g><g display="none" id="Layer193_0_FILL"><path fill="#94C34A" stroke="none" d="M28.2 30.35Q21.5 22.6 11 12.6 3.55 5.4 -4.95 -2.1L-4.95 233.4 -4.35 233.6 114.15 233.6Q114.2 233.15 114.25 232.7 111.5 213.2 110.9 210.15 110.8 209.5 110.7 208.8 107.9 192.9 104.15 178.1 93.25 135.55 72.05 94.8 71.2 93.2 70.35 91.6 52.1 57.35 28.2 30.35Z"/><animate attributeName="display" repeatCount="indefinite" dur="3s" keyTimes="0;.6667;.6806;1" values="none;inline;none;none"/></g><g display="none" id="Layer192_0_FILL"><path fill="#94C34A" stroke="none" d="M28.25 30.25Q21.6 22.65 11 12.55 3.6 5.45 -4.95 -2.1L-4.95 233.45 -4.3 233.6 114.2 233.6Q114.2 233.1 114.25 232.65 111.45 212.65 110.9 210.05 110.8 209.35 110.7 208.65 107.95 192.75 104.25 178 93.4 135.3 72.2 94.65 71.35 93.05 70.5 91.45 52.25 57.25 28.25 30.25Z"/><animate attributeName="display" repeatCount="indefinite" dur="3s" keyTimes="0;.6528;.6667;1" values="none;inline;none;none"/></g><g display="none" id="Layer191_0_FILL"><path fill="#94C34A" stroke="none" d="M28.3 30.15Q21.7 22.65 11 12.5 3.7 5.5 -4.95 -2.1L-4.95 233.45 -4.3 233.6 114.2 233.6Q114.25 233.1 114.25 232.6 111.4 212.2 110.95 209.95 110.85 209.25 110.7 208.55 108 192.6 104.3 177.85 93.55 135.05 72.35 94.45 71.5 92.85 70.65 91.25 52.45 57.15 28.3 30.15Z"/><animate attributeName="display" repeatCount="indefinite" dur="3s" keyTimes="0;.6389;.6528;1" values="none;inline;none;none"/></g><g display="none" id="Layer190_0_FILL"><path fill="#94C34A" stroke="none" d="M28.35 30.05Q21.8 22.65 11 12.5 3.75 5.55 -4.95 -2.1L-4.95 233.5 -4.25 233.6 114.25 233.6Q114.25 233.1 114.25 232.55 111.3 211.75 110.95 209.85 110.85 209.15 110.75 208.45 108 192.45 104.35 177.75 93.65 134.85 72.45 94.3 71.65 92.7 70.8 91.1 52.6 57.05 28.35 30.05Z"/><animate attributeName="display" repeatCount="indefinite" dur="3s" keyTimes="0;.625;.6389;1" values="none;inline;none;none"/></g><g display="none" id="Layer189_0_FILL"><path fill="#94C34A" stroke="none" d="M28.4 29.95Q21.9 22.65 11 12.45 3.8 5.6 -4.95 -2.1L-4.95 233.5 -4.25 233.6 114.3 233.6Q114.25 233.05 114.2 232.55 111.25 211.35 110.95 209.75 110.85 209.05 110.75 208.35 108.05 192.35 104.45 177.65 93.75 134.65 72.6 94.15 71.75 92.55 70.9 90.95 52.75 56.95 28.4 29.95Z"/><animate attributeName="display" repeatCount="indefinite" dur="3s" keyTimes="0;.6111;.625;1" values="none;inline;none;none"/></g><g display="none" id="Layer188_0_FILL"><path fill="#94C34A" stroke="none" d="M28.45 29.9Q21.95 22.65 11.05 12.45 3.85 5.65 -4.95 -2.1L-4.95 233.55 -4.2 233.6 114.3 233.6Q114.25 233.05 114.2 232.5 111.2 211 110.95 209.7 110.85 209 110.75 208.3 108.05 192.25 104.5 177.55 93.85 134.5 72.7 94 71.85 92.4 71 90.8 52.85 56.9 28.45 29.9Z"/><animate attributeName="display" repeatCount="indefinite" dur="3s" keyTimes="0;.5972;.6111;1" values="none;inline;none;none"/></g><g display="none" id="Layer187_0_FILL"><path fill="#94C34A" stroke="none" d="M28.45 29.8Q22 22.7 11.05 12.4 3.9 5.7 -4.95 -2.1L-4.95 233.55 -4.2 233.6 114.35 233.6Q114.25 233.05 114.2 232.45 111.15 210.7 111 209.65 110.85 208.95 110.75 208.25 108.1 192.15 104.5 177.45 93.95 134.35 72.8 93.9 71.95 92.3 71.1 90.7 52.95 56.85 28.45 29.8Z"/><animate attributeName="display" repeatCount="indefinite" dur="3s" keyTimes="0;.5833;.5972;1" values="none;inline;none;none"/></g><g display="none" id="Layer186_0_FILL"><path fill="#94C34A" stroke="none" d="M28.5 29.75Q22.1 22.7 11.05 12.4 3.9 5.75 -4.95 -2.1L-4.95 233.55 -4.2 233.6 114.35 233.6Q114.3 233 114.2 232.45 111.15 210.45 111 209.55 110.9 208.9 110.8 208.2 108.1 192.1 104.55 177.4 94 134.25 72.85 93.8 72 92.2 71.15 90.6 53.05 56.75 28.5 29.75Z"/><animate attributeName="display" repeatCount="indefinite" dur="3s" keyTimes="0;.5694;.5833;1" values="none;inline;none;none"/></g><g display="none" id="Layer185_0_FILL"><path fill="#94C34A" stroke="none" d="M28.5 29.75Q22.1 22.7 11.05 12.4 3.95 5.75 -4.95 -2.1L-4.95 233.6 114.35 233.6Q114.3 233 114.2 232.45 111.1 210.2 111 209.55 110.9 208.85 110.8 208.15 108.1 192 104.6 177.35 94.05 134.15 72.95 93.75 72.1 92.15 71.25 90.55 53.1 56.75 28.5 29.75Z"/><animate attributeName="display" repeatCount="indefinite" dur="3s" keyTimes="0;.5556;.5694;1" values="none;inline;none;none"/></g><g display="none" id="Layer184_0_FILL"><path fill="#94C34A" stroke="none" d="M28.55 29.7Q22.15 22.7 11.05 12.35 3.95 5.75 -4.95 -2.1L-4.95 233.6 114.4 233.6Q114.3 233 114.2 232.4 111.1 210.05 111 209.5 110.9 208.8 110.8 208.1 108.15 191.95 104.6 177.3 94.1 134.05 73 93.7 72.15 92.1 71.3 90.5 53.2 56.7 28.55 29.7Z"/><animate attributeName="display" repeatCount="indefinite" dur="3s" keyTimes="0;.5417;.5556;1" values="none;inline;none;none"/></g><g display="none" id="Layer181_0_FILL"><path fill="#94C34A" stroke="none" d="M73.05 93.6Q54.4 57.9 28.55 29.65 18.2 18.3 -4.95 -2.1L-4.95 233.6 114.4 233.6Q111.05 209.85 111 209.45 108.3 192.5 104.65 177.25 94.15 133.95 73.05 93.6Z"/><animate attributeName="display" repeatCount="indefinite" dur="3s" keyTimes="0;.5;.5139;1" values="none;inline;none;none"/></g><g display="none" id="Layer180_0_FILL"><path fill="#94C34A" stroke="none" d="M28.55 29.65Q22.2 22.7 11.05 12.35 4 5.8 -4.95 -2.1L-4.95 233.6 114.4 233.6Q114.3 233 114.2 232.4 111.05 209.85 111 209.45 110.9 208.75 110.8 208.05 108.15 191.9 104.65 177.25 94.15 133.95 73.05 93.6 72.2 92 71.35 90.4 53.25 56.65 28.55 29.65Z"/><animate attributeName="display" repeatCount="indefinite" dur="3s" keyTimes="0;.4861;.5;.5139;.5278;1" values="none;inline;none;inline;none;none"/></g><g display="none" id="Layer179_0_FILL"><path fill="#94C34A" stroke="none" d="M28.55 29.65Q22.2 22.7 11.05 12.35 4 5.8 -4.95 -2.1L-4.95 233.6 114.4 233.6Q114.3 233 114.2 232.4 111.05 209.95 111 209.45 110.9 208.75 110.8 208.05 108.15 191.95 104.65 177.25 94.15 134 73 93.65 72.15 92.05 71.3 90.45 53.2 56.65 28.55 29.65Z"/><animate attributeName="display" repeatCount="indefinite" dur="3s" keyTimes="0;.4722;.4861;.5278;.5417;1" values="none;inline;none;inline;none;none"/></g><g display="none" id="Layer178_0_FILL"><path fill="#94C34A" stroke="none" d="M28.55 29.7Q22.15 22.7 11.05 12.35 3.95 5.75 -4.95 -2.1L-4.95 233.6 114.4 233.6Q114.3 233 114.2 232.4 111.1 210.05 111 209.5 110.9 208.8 110.8 208.1 108.15 191.95 104.6 177.3 94.1 134.05 73 93.65 72.15 92.05 71.3 90.45 53.2 56.7 28.55 29.7Z"/><animate attributeName="display" repeatCount="indefinite" dur="3s" keyTimes="0;.4583;.4722;1" values="none;inline;none;none"/></g><g display="none" id="Layer177_0_FILL"><path fill="#94C34A" stroke="none" d="M28.5 29.7Q22.1 22.7 11.05 12.4 3.95 5.75 -4.95 -2.1L-4.95 233.6 114.35 233.6Q114.3 233 114.2 232.45 111.1 210.2 111 209.55 110.9 208.85 110.8 208.15 108.1 192 104.6 177.35 94.05 134.1 72.95 93.75 72.1 92.15 71.25 90.55 53.15 56.7 28.5 29.7Z"/><animate attributeName="display" repeatCount="indefinite" dur="3s" keyTimes="0;.4444;.4583;1" values="none;inline;none;none"/></g><g display="none" id="Layer176_0_FILL"><path fill="#94C34A" stroke="none" d="M28.5 29.75Q22.1 22.7 11.05 12.4 3.95 5.75 -4.95 -2.1L-4.95 233.55 -4.2 233.6 114.35 233.6Q114.3 233 114.2 232.45 111.15 210.4 111 209.55 110.9 208.85 110.8 208.15 108.1 192.05 104.55 177.4 94 134.2 72.9 93.8 72.05 92.2 71.2 90.6 53.05 56.75 28.5 29.75Z"/><animate attributeName="display" repeatCount="indefinite" dur="3s" keyTimes="0;.4306;.4444;1" values="none;inline;none;none"/></g><g display="none" id="Layer175_0_FILL"><path fill="#94C34A" stroke="none" d="M28.45 29.8Q22.05 22.7 11.05 12.4 3.9 5.7 -4.95 -2.1L-4.95 233.55 -4.2 233.6 114.35 233.6Q114.25 233.05 114.2 232.45 111.15 210.65 111 209.6 110.85 208.9 110.75 208.2 108.1 192.15 104.55 177.45 93.95 134.35 72.8 93.9 71.95 92.3 71.1 90.7 52.95 56.8 28.45 29.8Z"/><animate attributeName="display" repeatCount="indefinite" dur="3s" keyTimes="0;.4167;.4306;1" values="none;inline;none;none"/></g><g display="none" id="Layer174_0_FILL"><path fill="#94C34A" stroke="none" d="M28.45 29.85Q21.95 22.65 11.05 12.45 3.85 5.65 -4.95 -2.1L-4.95 233.55 -4.2 233.6 114.3 233.6Q114.25 233.05 114.2 232.5 111.2 210.95 110.95 209.7 110.85 209 110.75 208.3 108.05 192.25 104.5 177.55 93.85 134.45 72.7 94 71.85 92.4 71 90.8 52.9 56.9 28.45 29.85Z"/><animate attributeName="display" repeatCount="indefinite" dur="3s" keyTimes="0;.4028;.4167;1" values="none;inline;none;none"/></g><g display="none" id="Layer173_0_FILL"><path fill="#94C34A" stroke="none" d="M28.4 29.95Q21.9 22.65 11.05 12.45 3.8 5.6 -4.95 -2.1L-4.95 233.5 -4.25 233.6 114.3 233.6Q114.25 233.05 114.2 232.5 111.25 211.25 110.95 209.75 110.85 209.05 110.75 208.35 108.05 192.3 104.45 177.6 93.75 134.65 72.6 94.1 71.8 92.5 70.95 90.9 52.75 56.95 28.4 29.95Z"/><animate attributeName="display" repeatCount="indefinite" dur="3s" keyTimes="0;.3889;.4028;1" values="none;inline;none;none"/></g><g display="none" id="Layer172_0_FILL"><path fill="#94C34A" stroke="none" d="M28.4 30Q21.8 22.65 11 12.5 3.75 5.6 -4.95 -2.1L-4.95 233.5 -4.25 233.6 114.25 233.6Q114.25 233.1 114.25 232.55 111.3 211.65 110.95 209.85 110.85 209.15 110.75 208.45 108 192.45 104.4 177.7 93.7 134.8 72.5 94.25 71.65 92.65 70.8 91.05 52.65 57.05 28.4 30Z"/><animate attributeName="display" repeatCount="indefinite" dur="3s" keyTimes="0;.375;.3889;1" values="none;inline;none;none"/></g><g display="none" id="Layer171_0_FILL"><path fill="#94C34A" stroke="none" d="M28.35 30.1Q21.75 22.65 11 12.5 3.7 5.5 -4.95 -2.1L-4.95 233.5 -4.25 233.6 114.25 233.6Q114.25 233.1 114.25 232.6 111.35 212.05 110.95 209.9 110.85 209.25 110.7 208.55 108 192.55 104.3 177.8 93.55 135 72.4 94.4 71.55 92.8 70.7 91.2 52.5 57.1 28.35 30.1Z"/><animate attributeName="display" repeatCount="indefinite" dur="3s" keyTimes="0;.3611;.375;1" values="none;inline;none;none"/></g><g display="none" id="Layer170_0_FILL"><path fill="#94C34A" stroke="none" d="M28.3 30.2Q21.65 22.65 11 12.55 3.65 5.45 -4.95 -2.1L-4.95 233.45 -4.3 233.6 114.2 233.6Q114.2 233.1 114.25 232.6 111.4 212.5 110.95 210 110.8 209.35 110.7 208.65 107.95 192.7 104.25 177.95 93.45 135.25 72.25 94.55 71.4 92.95 70.55 91.35 52.35 57.2 28.3 30.2Z"/><animate attributeName="display" repeatCount="indefinite" dur="3s" keyTimes="0;.3472;.3611;1" values="none;inline;none;none"/></g><g display="none" id="Layer169_0_FILL"><path fill="#94C34A" stroke="none" d="M28.25 30.3Q21.5 22.6 11 12.6 3.6 5.4 -4.95 -2.1L-4.95 233.4 -4.35 233.6 114.15 233.6Q114.2 233.15 114.25 232.65 111.5 213 110.9 210.15 110.8 209.45 110.7 208.75 107.9 192.85 104.15 178.05 93.3 135.45 72.1 94.75 71.25 93.15 70.4 91.55 52.15 57.3 28.25 30.3Z"/><animate attributeName="display" repeatCount="indefinite" dur="3s" keyTimes="0;.3333;.3472;1" values="none;inline;none;none"/></g><g display="none" id="Layer168_0_FILL"><path fill="#94C34A" stroke="none" d="M28.2 30.4Q21.4 22.6 11 12.6 3.5 5.35 -4.95 -2.1L-4.95 233.4 -4.35 233.6 114.1 233.6Q114.2 233.15 114.25 232.7 111.55 213.55 110.9 210.25 110.8 209.55 110.65 208.85 107.9 193 104.1 178.2 93.15 135.75 71.9 94.95 71.1 93.35 70.25 91.75 51.95 57.45 28.2 30.4Z"/><animate attributeName="display" repeatCount="indefinite" dur="3s" keyTimes="0;.3194;.3333;1" values="none;inline;none;none"/></g><g display="none" id="Layer167_0_FILL"><path fill="#94C34A" stroke="none" d="M28.15 30.55Q21.3 22.6 10.95 12.65 3.45 5.25 -4.95 -2.1L-4.95 233.35 -4.4 233.6 114.05 233.6Q114.15 233.2 114.25 232.75 111.65 214.15 110.9 210.35 110.75 209.7 110.65 209 107.85 193.2 104 178.35 93 136 71.75 95.15 70.9 93.55 70.05 91.95 51.75 57.55 28.15 30.55Z"/><animate attributeName="display" repeatCount="indefinite" dur="3s" keyTimes="0;.3056;.3194;1" values="none;inline;none;none"/></g><g display="none" id="Layer166_0_FILL"><path fill="#94C34A" stroke="none" d="M28.05 30.65Q21.15 22.6 10.95 12.7 3.35 5.15 -4.95 -2.1L-4.95 233.3 -4.45 233.6 114 233.6Q114.15 233.2 114.25 232.8 111.75 214.8 110.85 210.5 110.75 209.85 110.65 209.15 107.8 193.4 103.9 178.55 92.85 136.35 71.55 95.4 70.7 93.8 69.85 92.2 51.55 57.7 28.05 30.65Z"/><animate attributeName="display" repeatCount="indefinite" dur="3s" keyTimes="0;.2917;.3056;1" values="none;inline;none;none"/></g><g display="none" id="Layer165_0_FILL"><path fill="#94C34A" stroke="none" d="M28 30.8Q21 22.55 10.95 12.75 3.25 5.1 -4.95 -2.1L-4.95 233.3 -4.45 233.6 113.95 233.6Q114.1 233.25 114.3 232.85 111.85 215.5 110.85 210.65 110.7 209.95 110.6 209.25 107.75 193.6 103.8 178.7 92.65 136.65 71.35 95.65 70.5 94.05 69.65 92.45 51.3 57.85 28 30.8Z"/><animate attributeName="display" repeatCount="indefinite" dur="3s" keyTimes="0;.2778;.2917;1" values="none;inline;none;none"/></g><g display="none" id="Layer164_0_FILL"><path fill="#94C34A" stroke="none" d="M27.95 30.95Q20.85 22.55 10.95 12.8 3.15 5 -4.95 -2.1L-4.95 233.25 -4.5 233.6 113.9 233.6Q114.1 233.25 114.3 232.95 111.95 216.2 110.8 210.8 110.7 210.15 110.6 209.45 107.7 193.8 103.7 178.9 92.45 137 71.1 95.9 70.3 94.3 69.45 92.7 51.05 58 27.95 30.95Z"/><animate attributeName="display" repeatCount="indefinite" dur="3s" keyTimes="0;.2639;.2778;1" values="none;inline;none;none"/></g><g display="none" id="Layer163_0_FILL"><path fill="#94C34A" stroke="none" d="M27.85 31.15Q20.7 22.55 10.95 12.9 3.05 4.9 -4.95 -2.1L-4.95 233.2 -4.55 233.6 113.85 233.6Q114.1 233.3 114.3 233 112.05 217 110.8 211 110.7 210.3 110.55 209.6 107.65 194.05 103.6 179.1 92.25 137.4 70.9 96.2 70.05 94.6 69.2 93 50.8 58.15 27.85 31.15Z"/><animate attributeName="display" repeatCount="indefinite" dur="3s" keyTimes="0;.25;.2639;1" values="none;inline;none;none"/></g><g display="none" id="Layer162_0_FILL"><path fill="#94C34A" stroke="none" d="M27.75 31.3Q20.5 22.5 10.9 12.95 2.95 4.8 -4.95 -2.1L-4.95 233.15 -4.6 233.6 113.8 233.6Q114.05 233.35 114.3 233.05 112.15 217.75 110.8 211.15 110.65 210.45 110.5 209.75 107.55 194.3 103.45 179.3 92.05 137.75 70.65 96.5 69.8 94.9 68.95 93.3 50.5 58.3 27.75 31.3Z"/><animate attributeName="display" repeatCount="indefinite" dur="3s" keyTimes="0;.2361;.25;1" values="none;inline;none;none"/></g><g display="none" id="Layer161_0_FILL"><path fill="#94C34A" stroke="none" d="M27.7 31.45Q20.35 22.5 10.9 13 2.85 4.7 -4.95 -2.1L-4.95 233.1 -4.65 233.6 113.75 233.6Q114.05 233.35 114.3 233.15 112.25 218.45 110.75 211.3 110.65 210.65 110.5 209.95 107.5 194.5 103.35 179.5 91.85 138.1 70.4 96.75 69.6 95.15 68.75 93.55 50.25 58.45 27.7 31.45Z"/><animate attributeName="display" repeatCount="indefinite" dur="3s" keyTimes="0;.2222;.2361;1" values="none;inline;none;none"/></g><g display="none" id="Layer160_0_FILL"><path fill="#94C34A" stroke="none" d="M27.65 31.6Q20.2 22.45 10.9 13.05 2.75 4.6 -4.95 -2.1L-4.95 233.1 -4.65 233.6 113.7 233.6Q114 233.4 114.35 233.2 112.35 219.15 110.75 211.45 110.6 210.75 110.45 210.05 107.45 194.7 103.25 179.65 91.65 138.4 70.2 97 69.4 95.4 68.55 93.8 50 58.6 27.65 31.6Z"/><animate attributeName="display" repeatCount="indefinite" dur="3s" keyTimes="0;.2083;.2222;1" values="none;inline;none;none"/></g><g display="none" id="Layer159_0_FILL"><path fill="#94C34A" stroke="none" d="M27.55 31.7Q20.05 22.45 10.9 13.1 2.65 4.55 -4.95 -2.1L-4.95 233.05 -4.7 233.6 113.65 233.6Q114 233.4 114.35 233.25 112.45 219.8 110.7 211.6 110.6 210.9 110.45 210.2 107.4 194.9 103.15 179.85 91.5 138.75 70 97.25 69.2 95.65 68.35 94.05 49.8 58.75 27.55 31.7Z"/><animate attributeName="display" repeatCount="indefinite" dur="3s" keyTimes="0;.1944;.2083;1" values="none;inline;none;none"/></g><g display="none" id="Layer158_0_FILL"><path fill="#94C34A" stroke="none" d="M27.5 31.85Q19.95 22.45 10.85 13.15 2.6 4.45 -4.95 -2.1L-4.95 233 -4.75 233.6 113.6 233.6Q113.95 233.45 114.35 233.3 112.55 220.4 110.7 211.7 110.55 211.05 110.45 210.35 107.35 195.1 103.05 180 91.35 139 69.85 97.45 69 95.85 68.15 94.25 49.6 58.85 27.5 31.85Z"/><animate attributeName="display" repeatCount="indefinite" dur="3s" keyTimes="0;.1806;.1944;1" values="none;inline;none;none"/></g><g display="none" id="Layer157_0_FILL"><path fill="#94C34A" stroke="none" d="M27.45 31.95Q19.85 22.45 10.85 13.15 2.5 4.4 -4.95 -2.1L-4.95 233 -4.75 233.6 113.55 233.6Q113.95 233.45 114.35 233.35 112.6 220.95 110.7 211.8 110.55 211.15 110.4 210.45 107.35 195.25 103 180.15 91.2 139.3 69.65 97.65 68.85 96.05 68 94.45 49.4 59 27.45 31.95Z"/><animate attributeName="display" repeatCount="indefinite" dur="3s" keyTimes="0;.1667;.1806;1" values="none;inline;none;none"/></g><g display="none" id="Layer156_0_FILL"><path fill="#94C34A" stroke="none" d="M27.4 32.05Q19.7 22.4 10.85 13.2 2.45 4.35 -4.95 -2.1L-4.95 232.95 -4.8 233.6 113.5 233.6Q113.95 233.5 114.35 233.4 112.7 221.45 110.65 211.95 110.55 211.25 110.4 210.55 107.3 195.4 102.9 180.25 91.05 139.5 69.5 97.85 68.7 96.25 67.85 94.65 49.2 59.1 27.4 32.05Z"/><animate attributeName="display" repeatCount="indefinite" dur="3s" keyTimes="0;.1528;.1667;1" values="none;inline;none;none"/></g><g display="none" id="Layer155_0_FILL"><path fill="#94C34A" stroke="none" d="M27.35 32.15Q19.6 22.4 10.85 13.25 2.4 4.3 -4.95 -2.1L-4.95 232.9 -4.85 233.6 113.45 233.6Q113.9 233.5 114.35 233.4 112.75 221.9 110.65 212.05 110.5 211.35 110.4 210.65 107.25 195.55 102.85 180.4 90.95 139.75 69.35 98 68.55 96.4 67.7 94.8 49.05 59.2 27.35 32.15Z"/><animate attributeName="display" repeatCount="indefinite" dur="3s" keyTimes="0;.1389;.1528;1" values="none;inline;none;none"/></g><g display="none" id="Layer154_0_FILL"><path fill="#94C34A" stroke="none" d="M27.35 32.25Q19.55 22.4 10.85 13.25 2.35 4.25 -4.95 -2.1L-4.95 232.9 -4.85 233.6 113.45 233.6Q113.9 233.55 114.4 233.45 112.8 222.3 110.65 212.1 110.5 211.45 110.35 210.75 107.25 195.65 102.75 180.5 90.85 139.95 69.25 98.15 68.45 96.55 67.6 94.95 48.9 59.3 27.35 32.25Z"/><animate attributeName="display" repeatCount="indefinite" dur="3s" keyTimes="0;.125;.1389;1" values="none;inline;none;none"/></g><g display="none" id="Layer153_0_FILL"><path fill="#94C34A" stroke="none" d="M27.3 32.3Q19.45 22.4 10.8 13.3 2.3 4.2 -4.95 -2.1L-4.95 232.9 -4.85 233.6 113.4 233.6Q113.9 233.55 114.4 233.5 112.85 222.7 110.65 212.2 110.5 211.55 110.35 210.85 107.2 195.8 102.7 180.6 90.75 140.1 69.15 98.3 68.3 96.7 67.45 95.1 48.8 59.35 27.3 32.3Z"/><animate attributeName="display" repeatCount="indefinite" dur="3s" keyTimes="0;.1111;.125;1" values="none;inline;none;none"/></g><g display="none" id="Layer152_0_FILL"><path fill="#94C34A" stroke="none" d="M27.25 32.4Q19.4 22.4 10.8 13.3 2.25 4.15 -4.95 -2.1L-4.95 232.85 -4.9 233.6 113.4 233.6Q113.9 233.55 114.4 233.5 112.9 223 110.65 212.25 110.5 211.6 110.35 210.9 107.2 195.85 102.65 180.65 90.65 140.3 69.05 98.4 68.25 96.8 67.4 95.2 48.65 59.4 27.25 32.4Z"/><animate attributeName="display" repeatCount="indefinite" dur="3s" keyTimes="0;.0972;.1111;1" values="none;inline;none;none"/></g><g display="none" id="Layer151_0_FILL"><path fill="#94C34A" stroke="none" d="M27.25 32.45Q19.3 22.35 10.8 13.35 2.2 4.1 -4.95 -2.1L-4.95 232.85 -4.9 233.6 113.35 233.6Q113.85 233.55 114.4 233.55 112.95 223.3 110.6 212.35 110.45 211.7 110.35 211 107.15 195.95 102.6 180.75 90.55 140.4 68.95 98.5 68.15 96.9 67.3 95.3 48.55 59.5 27.25 32.45Z"/><animate attributeName="display" repeatCount="indefinite" dur="3s" keyTimes="0;.0833;.0972;1" values="none;inline;none;none"/></g><g display="none" id="Layer150_0_FILL"><path fill="#94C34A" stroke="none" d="M27.2 32.5Q19.25 22.35 10.8 13.35 2.15 4.05 -4.95 -2.1L-4.95 232.85 -4.9 233.6 113.35 233.6Q113.85 233.6 114.4 233.55 112.95 223.55 110.6 212.4 110.45 211.75 110.3 211.05 107.15 196.05 102.6 180.8 90.5 140.55 68.85 98.6 68.05 97 67.2 95.4 48.5 59.55 27.2 32.5Z"/><animate attributeName="display" repeatCount="indefinite" dur="3s" keyTimes="0;.0694;.0833;1" values="none;inline;none;none"/></g><g display="none" id="Layer149_0_FILL"><path fill="#94C34A" stroke="none" d="M27.2 32.55Q19.25 22.35 10.8 13.35 2.15 4.05 -4.95 -2.1L-4.95 233.6 113.35 233.6Q113.85 233.6 114.4 233.55 113 223.75 110.6 212.4 110.45 211.75 110.3 211.05 107.15 196.1 102.55 180.85 90.45 140.65 68.8 98.65 68 97.05 67.15 95.45 48.4 59.6 27.2 32.55Z"/><animate attributeName="display" repeatCount="indefinite" dur="3s" keyTimes="0;.0556;.0694;1" values="none;inline;none;none"/></g><g display="none" id="Layer148_0_FILL"><path fill="#94C34A" stroke="none" d="M27.15 32.55Q19.2 22.35 10.8 13.4 2.15 4 -4.95 -2.1L-4.95 233.6 113.3 233.6Q113.85 233.6 114.4 233.6 113 223.9 110.6 212.45 110.45 211.8 110.3 211.1 107.1 196.15 102.55 180.9 90.4 140.7 68.75 98.75 67.95 97.15 67.1 95.55 48.35 59.6 27.15 32.55Z"/><animate attributeName="display" repeatCount="indefinite" dur="3s" keyTimes="0;.0417;.0556;1" values="none;inline;none;none"/></g><g display="none" id="Layer147_0_FILL"><path fill="#94C34A" stroke="none" d="M27.15 32.6Q19.15 22.35 10.8 13.4 2.1 4 -4.95 -2.1L-4.95 233.6 113.3 233.6Q113.85 233.6 114.4 233.6 113.05 224 110.6 212.5 110.45 211.85 110.3 211.15 107.1 196.15 102.5 180.95 90.35 140.75 68.75 98.75 67.95 97.15 67.1 95.55 48.35 59.65 27.15 32.6Z"/><animate attributeName="display" repeatCount="indefinite" dur="3s" keyTimes="0;.0278;.0417;.9583;.9722;1" values="none;inline;none;inline;none;none"/></g><g display="none" id="Layer146_0_FILL"><path fill="#94C34A" stroke="none" d="M27.15 32.6Q19.15 22.35 10.8 13.4 2.1 4 -4.95 -2.1L-4.95 233.6 113.3 233.6Q113.85 233.6 114.4 233.6 113.05 224.1 110.6 212.5 110.45 211.85 110.3 211.15 107.1 196.2 102.5 180.95 90.35 140.8 68.7 98.8 67.9 97.2 67.05 95.6 48.3 59.65 27.15 32.6Z"/><animate attributeName="display" repeatCount="indefinite" dur="3s" keyTimes="0;.0139;.0278;.9722;.9861;1" values="none;inline;none;inline;none;none"/></g><g display="none" id="Layer145_0_FILL"><path fill="#94C34A" stroke="none" d="M67.05 95.55Q41.2 46.05 10.8 13.35 2.1 3.95 -4.95 -2.15L-4.95 233.55 114.4 233.55Q112.95 223.5 110.3 211.1 98.3 155.25 67.05 95.55Z"/><animate attributeName="display" repeatCount="indefinite" dur="3s" keyTimes="0;.0139;1" values="inline;none;none"/></g><g id="Layer144_0_FILL"><path fill="#5CC5E9" stroke="none" d="M240.8 233.55Q219.65 227.7 194.25 220.35 134.65 203.25 105.6 193.55 64.25 179.75 -4.9 155.25L-4.9 233.55 240.8 233.55Z"/><animate attributeName="display" repeatCount="indefinite" dur="3s" keyTimes="0;.9861;1" values="none;inline;inline"/></g><g display="none" id="Layer142_0_FILL"><path fill="#5CC5E9" stroke="none" d="M105.65 193.5Q103.45 192.75 101.15 192 77.15 183.9 44.3 172.55 21.65 164.65 -4.9 155.25L-4.9 233.55 240.6 233.55Q240.7 233.55 240.8 233.55 219.75 227.7 194.25 220.35 184.2 217.45 174.95 214.75 129.7 201.55 105.65 193.5Z"/><animate attributeName="display" repeatCount="indefinite" dur="3s" keyTimes="0;.9583;.9722;1" values="none;inline;none;none"/></g><g display="none" id="Layer140_0_FILL"><path fill="#5CC5E9" stroke="none" d="M105.75 193.35Q103.5 192.6 101.2 191.85 77.35 183.8 44.4 172.45 21.4 164.6 -4.9 155.25L-4.9 233.55 240.6 233.55Q240.7 233.55 240.8 233.55 219.95 227.8 194.35 220.3 184.3 217.4 175 214.65 129.75 201.35 105.75 193.35Z"/><animate attributeName="display" repeatCount="indefinite" dur="3s" keyTimes="0;.9306;.9444;1" values="none;inline;none;none"/></g><g display="none" id="Layer139_0_FILL"><path fill="#5CC5E9" stroke="none" d="M105.8 193.2Q103.6 192.45 101.3 191.7 77.55 183.7 44.45 172.4 21.2 164.5 -4.9 155.25L-4.9 233.55 240.6 233.55Q240.7 233.55 240.8 233.55 220.1 227.85 194.35 220.25 184.35 217.35 175.1 214.6 129.75 201.25 105.8 193.2Z"/><animate attributeName="display" repeatCount="indefinite" dur="3s" keyTimes="0;.9167;.9306;1" values="none;inline;none;none"/></g><g display="none" id="Layer138_0_FILL"><path fill="#5CC5E9" stroke="none" d="M105.9 193.05Q103.65 192.3 101.35 191.55 77.75 183.6 44.5 172.35 20.95 164.4 -4.9 155.25L-4.9 233.55 240.6 233.55Q240.7 233.55 240.8 233.55 220.35 227.9 194.45 220.2 184.45 217.3 175.15 214.55 129.8 201.05 105.9 193.05Z"/><animate attributeName="display" repeatCount="indefinite" dur="3s" keyTimes="0;.9028;.9167;1" values="none;inline;none;none"/></g><g display="none" id="Layer137_0_FILL"><path fill="#5CC5E9" stroke="none" d="M106.05 192.9Q103.75 192.1 101.45 191.35 78 183.45 44.6 172.25 20.65 164.3 -4.9 155.25L-4.9 233.55 240.6 233.55Q240.7 233.55 240.8 233.55 220.6 227.95 194.5 220.15 184.55 217.25 175.25 214.45 129.8 200.85 106.05 192.9Z"/><animate attributeName="display" repeatCount="indefinite" dur="3s" keyTimes="0;.8889;.9028;1" values="none;inline;none;none"/></g><g display="none" id="Layer136_0_FILL"><path fill="#5CC5E9" stroke="none" d="M106.15 192.7Q103.9 191.9 101.55 191.15 78.3 183.35 44.7 172.15 20.35 164.2 -4.9 155.25L-4.9 233.55 240.6 233.55Q240.7 233.55 240.8 233.55 220.85 228.05 194.55 220.1 184.65 217.15 175.35 214.35 129.85 200.65 106.15 192.7Z"/><animate attributeName="display" repeatCount="indefinite" dur="3s" keyTimes="0;.875;.8889;1" values="none;inline;none;none"/></g><g display="none" id="Layer135_0_FILL"><path fill="#5CC5E9" stroke="none" d="M106.3 192.45Q104 191.7 101.7 190.95 78.6 183.15 44.8 172.05 19.95 164.05 -4.9 155.25L-4.9 233.55 240.65 233.55Q240.7 233.55 240.8 233.55 221.2 228.1 194.65 220.05 184.8 217.1 175.45 214.25 129.9 200.4 106.3 192.45Z"/><animate attributeName="display" repeatCount="indefinite" dur="3s" keyTimes="0;.8611;.875;1" values="none;inline;none;none"/></g><g display="none" id="Layer134_0_FILL"><path fill="#5CC5E9" stroke="none" d="M106.5 192.2Q104.15 191.4 101.85 190.65 79 183 44.9 171.95 19.55 163.9 -4.9 155.25L-4.9 233.55 240.65 233.55Q240.7 233.55 240.8 233.55 221.55 228.2 194.75 219.95 184.95 217 175.6 214.15 129.95 200.1 106.5 192.2Z"/><animate attributeName="display" repeatCount="indefinite" dur="3s" keyTimes="0;.8472;.8611;1" values="none;inline;none;none"/></g><g display="none" id="Layer133_0_FILL"><path fill="#5CC5E9" stroke="none" d="M106.7 191.95Q104.3 191.15 102 190.35 79.4 182.75 45.05 171.8 19.1 163.75 -4.9 155.25L-4.9 233.55 240.65 233.55Q240.7 233.55 240.8 233.55 221.95 228.35 194.85 219.9 185.1 216.95 175.75 214 130 199.8 106.7 191.95Z"/><animate attributeName="display" repeatCount="indefinite" dur="3s" keyTimes="0;.8333;.8472;1" values="none;inline;none;none"/></g><g display="none" id="Layer132_0_FILL"><path fill="#5CC5E9" stroke="none" d="M106.9 191.65Q104.5 190.8 102.15 190.05 79.85 182.55 45.15 171.65 18.6 163.6 -4.9 155.25L-4.9 233.55 240.65 233.55Q240.7 233.55 240.8 233.55 222.4 228.45 194.95 219.8 185.3 216.85 175.9 213.85 130.05 199.45 106.9 191.65Z"/><animate attributeName="display" repeatCount="indefinite" dur="3s" keyTimes="0;.8194;.8333;1" values="none;inline;none;none"/></g><g display="none" id="Layer131_0_FILL"><path fill="#5CC5E9" stroke="none" d="M107.1 191.3Q104.65 190.45 102.35 189.7 80.35 182.3 45.3 171.5 18.05 163.4 -4.9 155.25L-4.9 233.5 -4.85 233.55 240.65 233.55Q240.75 233.55 240.8 233.55 222.85 228.6 195.1 219.7 185.45 216.7 176.1 213.7 130.15 199.1 107.1 191.3Z"/><animate attributeName="display" repeatCount="indefinite" dur="3s" keyTimes="0;.8056;.8194;1" values="none;inline;none;none"/></g><g display="none" id="Layer130_0_FILL"><path fill="#5CC5E9" stroke="none" d="M107.35 190.95Q104.85 190.1 102.55 189.35 80.85 182.05 45.5 171.35 17.45 163.2 -4.9 155.25L-4.9 233.5 -4.85 233.55 240.65 233.55Q240.75 233.55 240.8 233.55 223.35 228.7 195.2 219.6 185.7 216.6 176.3 213.55 130.2 198.65 107.35 190.95Z"/><animate attributeName="display" repeatCount="indefinite" dur="3s" keyTimes="0;.7917;.8056;1" values="none;inline;none;none"/></g><g display="none" id="Layer129_0_FILL"><path fill="#5CC5E9" stroke="none" d="M107.6 190.55Q105.1 189.7 102.75 188.95 81.4 181.75 45.65 171.15 16.8 162.95 -4.9 155.25L-4.9 233.5 -4.85 233.55 240.65 233.55Q240.75 233.55 240.8 233.55 223.9 228.9 195.35 219.45 185.9 216.5 176.5 213.35 130.25 198.25 107.6 190.55Z"/><animate attributeName="display" repeatCount="indefinite" dur="3s" keyTimes="0;.7778;.7917;1" values="none;inline;none;none"/></g><g display="none" id="Layer128_0_FILL"><path fill="#5CC5E9" stroke="none" d="M107.9 190.15Q105.3 189.25 103 188.5 82 181.45 45.85 171 16.15 162.7 -4.9 155.25L-4.9 233.5 -4.85 233.55 240.7 233.55Q240.75 233.55 240.8 233.55 224.5 229.05 195.5 219.35 186.15 216.35 176.7 213.2 130.35 197.8 107.9 190.15Z"/><animate attributeName="display" repeatCount="indefinite" dur="3s" keyTimes="0;.7639;.7778;1" values="none;inline;none;none"/></g><g display="none" id="Layer127_0_FILL"><path fill="#5CC5E9" stroke="none" d="M108.15 189.7Q105.55 188.8 103.2 188.05 82.65 181.15 46.05 170.8 15.4 162.45 -4.9 155.25L-4.9 233.5 -4.85 233.55 240.7 233.55Q240.75 233.55 240.8 233.55 225.1 229.2 195.65 219.2 186.4 216.2 176.95 213 130.45 197.3 108.15 189.7Z"/><animate attributeName="display" repeatCount="indefinite" dur="3s" keyTimes="0;.75;.7639;1" values="none;inline;none;none"/></g><g display="none" id="Layer126_0_FILL"><path fill="#5CC5E9" stroke="none" d="M108.5 189.25Q105.85 188.35 103.5 187.55 83.35 180.8 46.25 170.55 14.65 162.2 -4.9 155.25L-4.9 233.5 -4.85 233.55 240.7 233.55Q240.75 233.55 240.8 233.55 225.8 229.4 195.85 219.1 186.7 216.05 177.15 212.75 130.5 196.75 108.5 189.25Z"/><animate attributeName="display" repeatCount="indefinite" dur="3s" keyTimes="0;.7361;.75;1" values="none;inline;none;none"/></g><g display="none" id="Layer125_0_FILL"><path fill="#5CC5E9" stroke="none" d="M108.75 188.8Q106.1 187.9 103.7 187.1 84 180.5 46.45 170.35 13.9 161.95 -4.9 155.25L-4.9 233.5 -4.85 233.55 240.7 233.55Q240.75 233.55 240.8 233.55 226.4 229.55 196 218.95 186.95 215.9 177.4 212.55 130.6 196.25 108.75 188.8Z"/><animate attributeName="display" repeatCount="indefinite" dur="3s" keyTimes="0;.7222;.7361;1" values="none;inline;none;none"/></g><g display="none" id="Layer124_0_FILL"><path fill="#5CC5E9" stroke="none" d="M109.05 188.4Q106.3 187.45 103.95 186.65 84.6 180.2 46.65 170.2 13.25 161.7 -4.9 155.25L-4.9 233.5 -4.85 233.55 240.8 233.55Q227 229.7 196.15 218.85 187.2 215.75 177.6 212.4 130.7 195.8 109.05 188.4Z"/><animate attributeName="display" repeatCount="indefinite" dur="3s" keyTimes="0;.7083;.7222;1" values="none;inline;none;none"/></g><g display="none" id="Layer123_0_FILL"><path fill="#5CC5E9" stroke="none" d="M109.3 188Q106.55 187.05 104.15 186.25 85.15 179.9 46.8 170 12.6 161.45 -4.9 155.25L-4.9 233.5 -4.85 233.55 240.8 233.55Q227.55 229.9 196.3 218.7 187.4 215.65 177.8 212.2 130.75 195.4 109.3 188Z"/><animate attributeName="display" repeatCount="indefinite" dur="3s" keyTimes="0;.6944;.7083;1" values="none;inline;none;none"/></g><g display="none" id="Layer122_0_FILL"><path fill="#5CC5E9" stroke="none" d="M109.55 187.65Q106.75 186.7 104.35 185.9 85.65 179.65 47 169.85 12 161.25 -4.9 155.25L-4.9 233.5 -4.85 233.55 240.8 233.55Q228.05 230 196.4 218.6 187.65 215.55 178 212.05 130.8 194.95 109.55 187.65Z"/><animate attributeName="display" repeatCount="indefinite" dur="3s" keyTimes="0;.6806;.6944;1" values="none;inline;none;none"/></g><g display="none" id="Layer121_0_FILL"><path fill="#5CC5E9" stroke="none" d="M109.75 187.3Q106.9 186.35 104.55 185.55 86.15 179.4 47.15 169.7 11.45 161.05 -4.9 155.25L-4.9 233.55 240.8 233.55Q228.5 230.15 196.55 218.5 187.8 215.4 178.2 211.9 130.9 194.6 109.75 187.3Z"/><animate attributeName="display" repeatCount="indefinite" dur="3s" keyTimes="0;.6667;.6806;1" values="none;inline;none;none"/></g><g display="none" id="Layer120_0_FILL"><path fill="#5CC5E9" stroke="none" d="M109.95 187Q107.1 186 104.7 185.25 86.6 179.2 47.25 169.55 10.95 160.9 -4.9 155.25L-4.9 233.55 240.8 233.55Q228.95 230.25 196.65 218.4 188 215.3 178.35 211.75 130.95 194.25 109.95 187Z"/><animate attributeName="display" repeatCount="indefinite" dur="3s" keyTimes="0;.6528;.6667;1" values="none;inline;none;none"/></g><g display="none" id="Layer119_0_FILL"><path fill="#5CC5E9" stroke="none" d="M110.15 186.75Q107.25 185.75 104.85 184.95 87 178.95 47.4 169.4 10.5 160.75 -4.9 155.25L-4.9 233.55 240.8 233.55Q229.35 230.4 196.75 218.35 188.15 215.25 178.5 211.6 131 193.95 110.15 186.75Z"/><animate attributeName="display" repeatCount="indefinite" dur="3s" keyTimes="0;.6389;.6528;1" values="none;inline;none;none"/></g><g display="none" id="Layer118_0_FILL"><path fill="#5CC5E9" stroke="none" d="M110.35 186.5Q107.4 185.45 105 184.65 87.4 178.8 47.5 169.3 10.1 160.6 -4.9 155.25L-4.9 233.55 240.8 233.55Q229.7 230.5 196.85 218.25 188.3 215.15 178.65 211.5 131.05 193.65 110.35 186.5Z"/><animate attributeName="display" repeatCount="indefinite" dur="3s" keyTimes="0;.625;.6389;1" values="none;inline;none;none"/></g><g display="none" id="Layer117_0_FILL"><path fill="#5CC5E9" stroke="none" d="M110.5 186.25Q107.5 185.25 105.15 184.45 87.7 178.6 47.6 169.2 9.7 160.45 -4.9 155.25L-4.9 233.55 240.8 233.55Q230.05 230.55 196.95 218.2 188.45 215.1 178.75 211.4 131.1 193.4 110.5 186.25Z"/><animate attributeName="display" repeatCount="indefinite" dur="3s" keyTimes="0;.6111;.625;1" values="none;inline;none;none"/></g><g display="none" id="Layer116_0_FILL"><path fill="#5CC5E9" stroke="none" d="M110.6 186.05Q107.65 185.05 105.25 184.25 88 178.5 47.7 169.1 9.4 160.35 -4.9 155.25L-4.9 233.55 240.8 233.55Q230.3 230.65 197 218.15 188.55 215 178.85 211.3 131.15 193.2 110.6 186.05Z"/><animate attributeName="display" repeatCount="indefinite" dur="3s" keyTimes="0;.5972;.6111;1" values="none;inline;none;none"/></g><g display="none" id="Layer115_0_FILL"><path fill="#5CC5E9" stroke="none" d="M110.75 185.9Q107.75 184.85 105.35 184.05 88.25 178.35 47.8 169 9.1 160.25 -4.9 155.25L-4.9 233.55 240.8 233.55Q230.55 230.7 197.05 218.1 188.65 214.95 178.95 211.2 131.15 193 110.75 185.9Z"/><animate attributeName="display" repeatCount="indefinite" dur="3s" keyTimes="0;.5833;.5972;1" values="none;inline;none;none"/></g><g display="none" id="Layer114_0_FILL"><path fill="#5CC5E9" stroke="none" d="M110.85 185.75Q107.8 184.7 105.4 183.9 88.45 178.25 47.85 168.95 8.85 160.15 -4.9 155.25L-4.9 233.55 240.8 233.55Q230.8 230.75 197.15 218.05 188.75 214.9 179 211.15 131.2 192.8 110.85 185.75Z"/><animate attributeName="display" repeatCount="indefinite" dur="3s" keyTimes="0;.5694;.5833;1" values="none;inline;none;none"/></g><g display="none" id="Layer113_0_FILL"><path fill="#5CC5E9" stroke="none" d="M110.9 185.6Q107.9 184.55 105.5 183.75 88.65 178.15 47.9 168.9 8.65 160.05 -4.9 155.25L-4.9 233.55 240.8 233.55Q230.95 230.8 197.15 218 188.8 214.85 179.1 211.1 131.2 192.7 110.9 185.6Z"/><animate attributeName="display" repeatCount="indefinite" dur="3s" keyTimes="0;.5556;.5694;1" values="none;inline;none;none"/></g><g display="none" id="Layer111_0_FILL"><path fill="#5CC5E9" stroke="none" d="M111 185.45Q107.95 184.4 105.55 183.6 88.85 178.05 48 168.8 8.4 160 -4.9 155.25L-4.9 233.55 240.8 233.55Q231.15 230.9 197.25 217.95 188.9 214.8 179.15 211 131.25 192.5 111 185.45Z"/><animate attributeName="display" repeatCount="indefinite" dur="3s" keyTimes="0;.5278;.5417;1" values="none;inline;none;none"/></g><g display="none" id="Layer109_0_FILL"><path fill="#5CC5E9" stroke="none" d="M105.6 183.55Q88.95 178 48 168.8 8.3 159.95 -4.9 155.25L-4.9 233.55 240.8 233.55Q228.9 230.25 179.2 211 124.1 189.7 105.6 183.55Z"/><animate attributeName="display" repeatCount="indefinite" dur="3s" keyTimes="0;.5;.5139;1" values="none;inline;none;none"/></g><g display="none" id="Layer108_0_FILL"><path fill="#5CC5E9" stroke="none" d="M111.05 185.4Q108 184.35 105.6 183.55 88.95 178 48 168.8 8.3 159.95 -4.9 155.25L-4.9 233.55 240.8 233.55Q231.25 230.9 197.25 217.95 188.95 214.8 179.2 211 131.25 192.45 111.05 185.4Z"/><animate attributeName="display" repeatCount="indefinite" dur="3s" keyTimes="0;.4861;.5;.5139;.5278;1" values="none;inline;none;inline;none;none"/></g><g display="none" id="Layer107_0_FILL"><path fill="#5CC5E9" stroke="none" d="M111 185.45Q107.95 184.4 105.55 183.6 88.9 178.05 48 168.8 8.4 160 -4.9 155.25L-4.9 233.55 240.8 233.55Q231.2 230.9 197.25 217.95 188.9 214.8 179.15 211 131.25 192.5 111 185.45Z"/><animate attributeName="display" repeatCount="indefinite" dur="3s" keyTimes="0;.4722;.4861;1" values="none;inline;none;none"/></g><g display="none" id="Layer106_0_FILL"><path fill="#5CC5E9" stroke="none" d="M110.95 185.5Q107.95 184.45 105.55 183.65 88.8 178.1 47.95 168.85 8.5 160 -4.9 155.25L-4.9 233.55 240.8 233.55Q231.1 230.85 197.2 218 188.9 214.85 179.15 211.05 131.25 192.6 110.95 185.5Z"/><animate attributeName="display" repeatCount="indefinite" dur="3s" keyTimes="0;.4583;.4722;.5417;.5556;1" values="none;inline;none;inline;none;none"/></g><g display="none" id="Layer105_0_FILL"><path fill="#5CC5E9" stroke="none" d="M110.9 185.6Q107.9 184.55 105.5 183.75 88.65 178.15 47.9 168.9 8.65 160.05 -4.9 155.25L-4.9 233.55 240.8 233.55Q230.95 230.8 197.2 218 188.85 214.85 179.1 211.1 131.2 192.7 110.9 185.6Z"/><animate attributeName="display" repeatCount="indefinite" dur="3s" keyTimes="0;.4444;.4583;1" values="none;inline;none;none"/></g><g display="none" id="Layer104_0_FILL"><path fill="#5CC5E9" stroke="none" d="M110.85 185.7Q107.8 184.7 105.45 183.9 88.5 178.25 47.85 168.95 8.8 160.15 -4.9 155.25L-4.9 233.55 240.8 233.55Q230.8 230.8 197.15 218.05 188.75 214.9 179.05 211.15 131.2 192.8 110.85 185.7Z"/><animate attributeName="display" repeatCount="indefinite" dur="3s" keyTimes="0;.4306;.4444;1" values="none;inline;none;none"/></g><g display="none" id="Layer103_0_FILL"><path fill="#5CC5E9" stroke="none" d="M110.75 185.85Q107.75 184.8 105.35 184 88.3 178.35 47.8 169 9.05 160.2 -4.9 155.25L-4.9 233.55 240.8 233.55Q230.6 230.7 197.1 218.1 188.7 214.95 178.95 211.2 131.15 192.95 110.75 185.85Z"/><animate attributeName="display" repeatCount="indefinite" dur="3s" keyTimes="0;.4167;.4306;1" values="none;inline;none;none"/></g><g display="none" id="Layer102_0_FILL"><path fill="#5CC5E9" stroke="none" d="M110.65 186Q107.65 185 105.25 184.2 88.05 178.45 47.7 169.1 9.3 160.3 -4.9 155.25L-4.9 233.55 240.8 233.55Q230.35 230.65 197 218.15 188.6 215 178.85 211.3 131.15 193.15 110.65 186Z"/><animate attributeName="display" repeatCount="indefinite" dur="3s" keyTimes="0;.4028;.4167;1" values="none;inline;none;none"/></g><g display="none" id="Layer101_0_FILL"><path fill="#5CC5E9" stroke="none" d="M110.5 186.2Q107.55 185.2 105.15 184.4 87.75 178.6 47.65 169.15 9.65 160.4 -4.9 155.25L-4.9 233.55 240.8 233.55Q230.1 230.6 196.95 218.2 188.5 215.05 178.8 211.35 131.1 193.35 110.5 186.2Z"/><animate attributeName="display" repeatCount="indefinite" dur="3s" keyTimes="0;.3889;.4028;1" values="none;inline;none;none"/></g><g display="none" id="Layer100_0_FILL"><path fill="#5CC5E9" stroke="none" d="M110.35 186.4Q107.45 185.4 105.05 184.6 87.45 178.75 47.55 169.25 10 160.55 -4.9 155.25L-4.9 233.55 240.8 233.55Q229.8 230.5 196.9 218.25 188.35 215.15 178.65 211.45 131.05 193.6 110.35 186.4Z"/><animate attributeName="display" repeatCount="indefinite" dur="3s" keyTimes="0;.375;.3889;1" values="none;inline;none;none"/></g><g display="none" id="Layer99_0_FILL"><path fill="#5CC5E9" stroke="none" d="M110.2 186.65Q107.3 185.65 104.9 184.85 87.1 178.9 47.45 169.4 10.4 160.7 -4.9 155.25L-4.9 233.55 240.8 233.55Q229.45 230.4 196.8 218.3 188.2 215.2 178.55 211.6 131 193.85 110.2 186.65Z"/><animate attributeName="display" repeatCount="indefinite" dur="3s" keyTimes="0;.3611;.375;1" values="none;inline;none;none"/></g><g display="none" id="Layer98_0_FILL"><path fill="#5CC5E9" stroke="none" d="M110.05 186.9Q107.15 185.95 104.75 185.15 86.75 179.1 47.3 169.5 10.8 160.85 -4.9 155.25L-4.9 233.55 240.8 233.55Q229.1 230.3 196.7 218.4 188.05 215.3 178.4 211.7 130.95 194.15 110.05 186.9Z"/><animate attributeName="display" repeatCount="indefinite" dur="3s" keyTimes="0;.3472;.3611;1" values="none;inline;none;none"/></g><g display="none" id="Layer97_0_FILL"><path fill="#5CC5E9" stroke="none" d="M109.85 187.2Q107 186.25 104.6 185.45 86.3 179.3 47.2 169.65 11.3 161 -4.9 155.25L-4.9 233.55 240.8 233.55Q228.65 230.2 196.6 218.5 187.9 215.4 178.25 211.85 130.9 194.5 109.85 187.2Z"/><animate attributeName="display" repeatCount="indefinite" dur="3s" keyTimes="0;.3333;.3472;1" values="none;inline;none;none"/></g><g display="none" id="Layer96_0_FILL"><path fill="#5CC5E9" stroke="none" d="M109.65 187.55Q106.8 186.55 104.45 185.75 85.85 179.55 47.05 169.8 11.8 161.2 -4.9 155.25L-4.9 233.5 -4.85 233.55 240.8 233.55Q228.2 230.05 196.45 218.6 187.7 215.5 178.1 212 130.85 194.85 109.65 187.55Z"/><animate attributeName="display" repeatCount="indefinite" dur="3s" keyTimes="0;.3194;.3333;1" values="none;inline;none;none"/></g><g display="none" id="Layer95_0_FILL"><path fill="#5CC5E9" stroke="none" d="M109.4 187.85Q106.6 186.9 104.25 186.1 85.35 179.8 46.9 169.95 12.35 161.4 -4.9 155.25L-4.9 233.5 -4.85 233.55 240.8 233.55Q227.75 229.95 196.35 218.7 187.5 215.6 177.9 212.15 130.8 195.2 109.4 187.85Z"/><animate attributeName="display" repeatCount="indefinite" dur="3s" keyTimes="0;.3056;.3194;1" values="none;inline;none;none"/></g><g display="none" id="Layer94_0_FILL"><path fill="#5CC5E9" stroke="none" d="M109.15 188.25Q106.4 187.3 104.05 186.5 84.8 180.05 46.7 170.1 12.95 161.6 -4.9 155.25L-4.9 233.5 -4.85 233.55 240.8 233.55Q227.2 229.8 196.2 218.8 187.3 215.7 177.7 212.3 130.7 195.65 109.15 188.25Z"/><animate attributeName="display" repeatCount="indefinite" dur="3s" keyTimes="0;.2917;.3056;1" values="none;inline;none;none"/></g><g display="none" id="Layer93_0_FILL"><path fill="#5CC5E9" stroke="none" d="M108.9 188.6Q106.2 187.7 103.8 186.9 84.25 180.35 46.55 170.3 13.6 161.85 -4.9 155.25L-4.9 233.5 -4.85 233.55 240.7 233.55Q240.75 233.55 240.8 233.55 226.65 229.65 196.05 218.9 187.05 215.85 177.5 212.5 130.65 196.05 108.9 188.6Z"/><animate attributeName="display" repeatCount="indefinite" dur="3s" keyTimes="0;.2778;.2917;1" values="none;inline;none;none"/></g><g display="none" id="Layer92_0_FILL"><path fill="#5CC5E9" stroke="none" d="M108.6 189.05Q105.95 188.1 103.6 187.35 83.65 180.65 46.35 170.45 14.3 162.05 -4.9 155.25L-4.9 233.5 -4.85 233.55 240.7 233.55Q240.75 233.55 240.8 233.55 226.1 229.45 195.9 219 186.8 216 177.3 212.65 130.55 196.55 108.6 189.05Z"/><animate attributeName="display" repeatCount="indefinite" dur="3s" keyTimes="0;.2639;.2778;1" values="none;inline;none;none"/></g><g display="none" id="Layer91_0_FILL"><path fill="#5CC5E9" stroke="none" d="M108.35 189.5Q105.7 188.6 103.35 187.8 83 181 46.15 170.7 15.05 162.35 -4.9 155.25L-4.9 233.5 -4.85 233.55 240.7 233.55Q240.75 233.55 240.8 233.55 225.45 229.3 195.75 219.15 186.55 216.15 177.05 212.9 130.5 197.05 108.35 189.5Z"/><animate attributeName="display" repeatCount="indefinite" dur="3s" keyTimes="0;.25;.2639;1" values="none;inline;none;none"/></g><g display="none" id="Layer90_0_FILL"><path fill="#5CC5E9" stroke="none" d="M108.05 189.9Q105.45 189.05 103.1 188.25 82.35 181.3 45.95 170.9 15.75 162.6 -4.9 155.25L-4.9 233.5 -4.85 233.55 240.7 233.55Q240.75 233.55 240.8 233.55 224.8 229.15 195.6 219.3 186.3 216.25 176.8 213.1 130.4 197.5 108.05 189.9Z"/><animate attributeName="display" repeatCount="indefinite" dur="3s" keyTimes="0;.2361;.25;1" values="none;inline;none;none"/></g><g display="none" id="Layer89_0_FILL"><path fill="#5CC5E9" stroke="none" d="M107.75 190.35Q105.2 189.45 102.9 188.7 81.75 181.6 45.75 171.05 16.45 162.8 -4.9 155.25L-4.9 233.5 -4.85 233.55 240.7 233.55Q240.75 233.55 240.8 233.55 224.25 228.95 195.45 219.4 186.05 216.4 176.6 213.25 130.3 198 107.75 190.35Z"/><animate attributeName="display" repeatCount="indefinite" dur="3s" keyTimes="0;.2222;.2361;1" values="none;inline;none;none"/></g><g display="none" id="Layer88_0_FILL"><path fill="#5CC5E9" stroke="none" d="M107.5 190.7Q105 189.85 102.65 189.1 81.2 181.9 45.6 171.25 17.1 163.05 -4.9 155.25L-4.9 233.5 -4.85 233.55 240.65 233.55Q240.75 233.55 240.8 233.55 223.7 228.8 195.3 219.5 185.8 216.55 176.4 213.45 130.25 198.4 107.5 190.7Z"/><animate attributeName="display" repeatCount="indefinite" dur="3s" keyTimes="0;.2083;.2222;1" values="none;inline;none;none"/></g><g display="none" id="Layer87_0_FILL"><path fill="#5CC5E9" stroke="none" d="M107.25 191.1Q104.8 190.25 102.45 189.5 80.65 182.15 45.4 171.4 17.7 163.25 -4.9 155.25L-4.9 233.5 -4.85 233.55 240.65 233.55Q240.75 233.55 240.8 233.55 223.15 228.65 195.15 219.6 185.6 216.65 176.2 213.6 130.15 198.85 107.25 191.1Z"/><animate attributeName="display" repeatCount="indefinite" dur="3s" keyTimes="0;.1944;.2083;1" values="none;inline;none;none"/></g><g display="none" id="Layer86_0_FILL"><path fill="#5CC5E9" stroke="none" d="M107 191.4Q104.6 190.6 102.25 189.85 80.15 182.4 45.25 171.55 18.25 163.45 -4.9 155.25L-4.9 233.5 -4.85 233.55 240.65 233.55Q240.75 233.55 240.8 233.55 222.7 228.55 195.05 219.7 185.4 216.75 176 213.75 130.1 199.2 107 191.4Z"/><animate attributeName="display" repeatCount="indefinite" dur="3s" keyTimes="0;.1806;.1944;1" values="none;inline;none;none"/></g><g display="none" id="Layer85_0_FILL"><path fill="#5CC5E9" stroke="none" d="M106.8 191.75Q104.4 190.9 102.1 190.15 79.7 182.65 45.1 171.7 18.75 163.65 -4.9 155.25L-4.9 233.55 240.65 233.55Q240.7 233.55 240.8 233.55 222.25 228.4 194.9 219.8 185.2 216.85 175.85 213.9 130.05 199.55 106.8 191.75Z"/><animate attributeName="display" repeatCount="indefinite" dur="3s" keyTimes="0;.1667;.1806;1" values="none;inline;none;none"/></g><g display="none" id="Layer84_0_FILL"><path fill="#5CC5E9" stroke="none" d="M106.6 192.05Q104.25 191.2 101.95 190.45 79.25 182.85 45 171.85 19.25 163.8 -4.9 155.25L-4.9 233.55 240.65 233.55Q240.7 233.55 240.8 233.55 221.8 228.3 194.8 219.9 185.05 216.95 175.7 214.05 130 199.9 106.6 192.05Z"/><animate attributeName="display" repeatCount="indefinite" dur="3s" keyTimes="0;.1528;.1667;1" values="none;inline;none;none"/></g><g display="none" id="Layer83_0_FILL"><path fill="#5CC5E9" stroke="none" d="M106.45 192.3Q104.1 191.5 101.8 190.75 78.9 183.05 44.85 171.95 19.65 163.95 -4.9 155.25L-4.9 233.55 240.65 233.55Q240.7 233.55 240.8 233.55 221.45 228.2 194.7 220 184.9 217.05 175.55 214.15 129.95 200.2 106.45 192.3Z"/><animate attributeName="display" repeatCount="indefinite" dur="3s" keyTimes="0;.1389;.1528;1" values="none;inline;none;none"/></g><g display="none" id="Layer82_0_FILL"><path fill="#5CC5E9" stroke="none" d="M106.3 192.55Q104 191.75 101.65 191 78.55 183.2 44.75 172.1 20.05 164.1 -4.9 155.25L-4.9 233.55 240.65 233.55Q240.7 233.55 240.8 233.55 221.1 228.1 194.65 220.05 184.75 217.1 175.45 214.3 129.9 200.45 106.3 192.55Z"/><animate attributeName="display" repeatCount="indefinite" dur="3s" keyTimes="0;.125;.1389;1" values="none;inline;none;none"/></g><g display="none" id="Layer81_0_FILL"><path fill="#5CC5E9" stroke="none" d="M106.15 192.75Q103.85 191.95 101.55 191.2 78.25 183.35 44.65 172.2 20.4 164.25 -4.9 155.25L-4.9 233.55 240.6 233.55Q240.7 233.55 240.8 233.55 220.8 228 194.55 220.1 184.6 217.2 175.3 214.4 129.85 200.7 106.15 192.75Z"/><animate attributeName="display" repeatCount="indefinite" dur="3s" keyTimes="0;.1111;.125;1" values="none;inline;none;none"/></g><g display="none" id="Layer80_0_FILL"><path fill="#5CC5E9" stroke="none" d="M106 192.95Q103.75 192.15 101.45 191.4 77.95 183.5 44.6 172.25 20.75 164.35 -4.9 155.25L-4.9 233.55 240.6 233.55Q240.7 233.55 240.8 233.55 220.55 227.95 194.5 220.15 184.5 217.25 175.25 214.45 129.8 200.9 106 192.95Z"/><animate attributeName="display" repeatCount="indefinite" dur="3s" keyTimes="0;.0972;.1111;1" values="none;inline;none;none"/></g><g display="none" id="Layer79_0_FILL"><path fill="#5CC5E9" stroke="none" d="M105.9 193.1Q103.65 192.35 101.35 191.6 77.7 183.6 44.5 172.35 21 164.45 -4.9 155.25L-4.9 233.55 240.6 233.55Q240.7 233.55 240.8 233.55 220.3 227.9 194.4 220.2 184.4 217.3 175.15 214.55 129.8 201.1 105.9 193.1Z"/><animate attributeName="display" repeatCount="indefinite" dur="3s" keyTimes="0;.0833;.0972;1" values="none;inline;none;none"/></g><g display="none" id="Layer78_0_FILL"><path fill="#5CC5E9" stroke="none" d="M105.8 193.25Q103.6 192.45 101.25 191.7 77.5 183.7 44.45 172.4 21.25 164.5 -4.9 155.25L-4.9 233.55 240.6 233.55Q240.7 233.55 240.8 233.55 220.1 227.8 194.35 220.25 184.35 217.35 175.05 214.6 129.75 201.25 105.8 193.25Z"/><animate attributeName="display" repeatCount="indefinite" dur="3s" keyTimes="0;.0694;.0833;1" values="none;inline;none;none"/></g><g display="none" id="Layer77_0_FILL"><path fill="#5CC5E9" stroke="none" d="M105.75 193.35Q103.5 192.6 101.2 191.85 77.35 183.8 44.4 172.45 21.4 164.6 -4.9 155.25L-4.9 233.55 240.6 233.55Q240.7 233.55 240.8 233.55 219.95 227.8 194.3 220.3 184.25 217.4 175 214.65 129.75 201.35 105.75 193.35Z"/><animate attributeName="display" repeatCount="indefinite" dur="3s" keyTimes="0;.0556;.0694;1" values="none;inline;none;none"/></g><g display="none" id="Layer76_0_FILL"><path fill="#5CC5E9" stroke="none" d="M105.7 193.45Q103.45 192.7 101.15 191.95 77.2 183.85 44.35 172.5 21.55 164.65 -4.9 155.25L-4.9 233.55 240.6 233.55Q240.7 233.55 240.8 233.55 219.8 227.75 194.3 220.3 184.2 217.4 174.95 214.7 129.7 201.45 105.7 193.45Z"/><animate attributeName="display" repeatCount="indefinite" dur="3s" keyTimes="0;.0417;.0556;.9444;.9583;1" values="none;inline;none;inline;none;none"/></g><g display="none" id="Layer75_0_FILL"><path fill="#5CC5E9" stroke="none" d="M105.65 193.5Q103.45 192.75 101.15 192 77.1 183.9 44.3 172.55 21.65 164.65 -4.9 155.25L-4.9 233.55 240.6 233.55Q240.7 233.55 240.8 233.55 219.7 227.7 194.25 220.35 184.2 217.45 174.95 214.75 129.7 201.55 105.65 193.5Z"/><animate attributeName="display" repeatCount="indefinite" dur="3s" keyTimes="0;.0278;.0417;1" values="none;inline;none;none"/></g><g display="none" id="Layer74_0_FILL"><path fill="#5CC5E9" stroke="none" d="M105.6 193.55Q103.4 192.8 101.1 192.05 77.05 183.95 44.3 172.55 21.75 164.7 -4.9 155.25L-4.9 233.55 240.6 233.55Q240.7 233.55 240.8 233.55 219.65 227.7 194.25 220.35 184.15 217.45 174.9 214.75 129.7 201.6 105.6 193.55Z"/><animate attributeName="display" repeatCount="indefinite" dur="3s" keyTimes="0;.0139;.0278;.9722;.9861;1" values="none;inline;none;inline;none;none"/></g><g display="none" id="Layer73_0_FILL"><path fill="#5CC5E9" stroke="none" d="M240.75 233.55Q219.6 227.7 194.2 220.35 134.6 203.25 105.55 193.55 64.2 179.75 -4.95 155.25L-4.95 233.55 240.75 233.55Z"/><animate attributeName="display" repeatCount="indefinite" dur="3s" keyTimes="0;.0139;1" values="inline;none;none"/></g><g id="Layer72_0_FILL"><path fill="#FCC332" stroke="none" d="M114.45 233.55Q113.75 228.75 110.55 213.3 107.45 198.35 106.2 193.75 23.7 165.3 -4.9 155.25L-4.9 233.55 114.45 233.55Z"/><animate attributeName="display" repeatCount="indefinite" dur="3s" keyTimes="0;.9861;1" values="none;inline;inline"/></g><g display="none" id="Layer71_0_FILL"><path fill="#FCC332" stroke="none" d="M106.2 193.75Q105.05 193.35 103.9 192.95 86.05 186.8 70.75 181.5 17.1 162.95 -4.9 155.25L-4.9 233.55 109 233.55Q111.75 233.55 114.45 233.55 113.8 228.95 110.85 214.65 110.7 214 110.55 213.3 107.45 198.35 106.2 193.75Z"/><animate attributeName="display" repeatCount="indefinite" dur="3s" keyTimes="0;.9722;.9861;1" values="none;inline;none;none"/></g><g display="none" id="Layer69_0_FILL"><path fill="#FCC332" stroke="none" d="M106.2 193.65Q105.05 193.2 103.95 192.8 86.15 186.65 70.8 181.35 17.3 162.9 -4.9 155.25L-4.85 233.55 109.1 233.55Q111.8 233.5 114.45 233.45 113.8 228.85 110.85 214.55 110.7 213.9 110.55 213.2 107.45 198.25 106.2 193.65Z"/><animate attributeName="display" repeatCount="indefinite" dur="3s" keyTimes="0;.9444;.9583;1" values="none;inline;none;none"/></g><g display="none" id="Layer68_0_FILL"><path fill="#FCC332" stroke="none" d="M106.2 193.55Q105.1 193.1 103.95 192.7 86.25 186.55 70.8 181.25 17.45 162.8 -4.9 155.25L-4.85 233.55 109.15 233.55Q111.8 233.5 114.45 233.4 113.75 228.75 110.85 214.5 110.7 213.85 110.55 213.1 107.45 198.15 106.2 193.55Z"/><animate attributeName="display" repeatCount="indefinite" dur="3s" keyTimes="0;.9306;.9444;1" values="none;inline;none;none"/></g><g display="none" id="Layer67_0_FILL"><path fill="#FCC332" stroke="none" d="M106.2 193.45Q105.1 193 104 192.55 86.35 186.45 70.85 181.1 17.7 162.75 -4.9 155.25L-4.8 233.55 109.2 233.55Q111.85 233.45 114.4 233.35 113.75 228.6 110.85 214.4 110.7 213.75 110.55 213 107.45 198.05 106.2 193.45Z"/><animate attributeName="display" repeatCount="indefinite" dur="3s" keyTimes="0;.9167;.9306;1" values="none;inline;none;none"/></g><g display="none" id="Layer66_0_FILL"><path fill="#FCC332" stroke="none" d="M106.25 193.3Q105.15 192.85 104.05 192.4 86.5 186.25 70.9 180.9 18 162.65 -4.9 155.25L-4.9 231.5 -4.75 233.55 109.3 233.55Q111.9 233.4 114.4 233.25 113.7 228.45 110.85 214.3 110.7 213.6 110.55 212.9 107.45 197.95 106.25 193.3Z"/><animate attributeName="display" repeatCount="indefinite" dur="3s" keyTimes="0;.9028;.9167;1" values="none;inline;none;none"/></g><g display="none" id="Layer65_0_FILL"><path fill="#FCC332" stroke="none" d="M106.25 193.15Q105.15 192.65 104.1 192.2 86.65 186.05 70.95 180.65 18.3 162.55 -4.9 155.25L-4.9 231.55 -4.7 233.55 109.45 233.55Q111.95 233.35 114.4 233.1 113.7 228.25 110.85 214.15 110.7 213.45 110.55 212.75 107.5 197.8 106.25 193.15Z"/><animate attributeName="display" repeatCount="indefinite" dur="3s" keyTimes="0;.8889;.9028;1" values="none;inline;none;none"/></g><g display="none" id="Layer64_0_FILL"><path fill="#FCC332" stroke="none" d="M106.2 192.95Q105.15 192.45 104.1 192 86.75 185.85 70.95 180.4 18.65 162.45 -4.95 155.25L-4.95 231.6 -4.7 233.55 109.5 233.55Q111.95 233.3 114.3 233 113.6 228.05 110.75 214 110.6 213.3 110.45 212.6 107.45 197.65 106.2 192.95Z"/><animate attributeName="display" repeatCount="indefinite" dur="3s" keyTimes="0;.875;.8889;1" values="none;inline;none;none"/></g><g display="none" id="Layer63_0_FILL"><path fill="#FCC332" stroke="none" d="M106.2 192.75Q105.2 192.2 104.15 191.75 87 185.6 71.05 180.1 19.1 162.3 -4.95 155.25L-4.95 231.65 -4.65 233.55 109.65 233.55Q112 233.25 114.3 232.85 113.6 227.85 110.75 213.8 110.6 213.15 110.45 212.4 107.45 197.45 106.2 192.75Z"/><animate attributeName="display" repeatCount="indefinite" dur="3s" keyTimes="0;.8611;.875;1" values="none;inline;none;none"/></g><g display="none" id="Layer62_0_FILL"><path fill="#FCC332" stroke="none" d="M106.25 192.5Q105.2 191.9 104.25 191.45 87.2 185.3 71.1 179.8 19.6 162.15 -4.95 155.25L-4.95 231.7 -4.6 233.55 109.85 233.55Q112.1 233.15 114.25 232.65 113.55 227.55 110.75 213.6 110.6 212.9 110.45 212.2 107.45 197.25 106.25 192.5Z"/><animate attributeName="display" repeatCount="indefinite" dur="3s" keyTimes="0;.8472;.8611;1" values="none;inline;none;none"/></g><g display="none" id="Layer61_0_FILL"><path fill="#FCC332" stroke="none" d="M106.25 192.25Q105.25 191.6 104.3 191.15 87.45 185 71.2 179.45 20.15 161.95 -4.95 155.25L-4.95 231.8 -4.5 233.55 110.05 233.55Q112.15 233.1 114.25 232.5 113.5 227.25 110.75 213.4 110.6 212.7 110.45 211.95 107.5 197 106.25 192.25Z"/><animate attributeName="display" repeatCount="indefinite" dur="3s" keyTimes="0;.8333;.8472;1" values="none;inline;none;none"/></g><g display="none" id="Layer60_0_FILL"><path fill="#FCC332" stroke="none" d="M106.3 191.95Q105.35 191.3 104.45 190.8 87.8 184.65 71.35 179.05 20.8 161.75 -4.9 155.25L-4.9 231.85 -4.35 233.55 110.3 233.55Q112.3 233 114.25 232.3 113.5 226.95 110.8 213.15 110.65 212.45 110.5 211.7 107.55 196.75 106.3 191.95Z"/><animate attributeName="display" repeatCount="indefinite" dur="3s" keyTimes="0;.8194;.8333;1" values="none;inline;none;none"/></g><g display="none" id="Layer59_0_FILL"><path fill="#FCC332" stroke="none" d="M106.35 191.65Q105.4 190.9 104.55 190.4 88.1 184.3 71.45 178.65 21.4 161.55 -4.9 155.25L-4.9 231.95 -4.3 233.55 110.5 233.55Q112.4 232.9 114.25 232.05 113.45 226.6 110.75 212.9 110.6 212.2 110.45 211.4 107.55 196.45 106.35 191.65Z"/><animate attributeName="display" repeatCount="indefinite" dur="3s" keyTimes="0;.8056;.8194;1" values="none;inline;none;none"/></g><g display="none" id="Layer58_0_FILL"><path fill="#FCC332" stroke="none" d="M106.35 191.3Q105.5 190.55 104.65 190 88.4 183.9 71.55 178.15 22.1 161.35 -4.9 155.25L-4.9 232.05 -4.2 233.55 110.75 233.55Q112.5 232.8 114.2 231.8 113.4 226.25 110.75 212.6 110.6 211.9 110.45 211.1 107.6 196.15 106.35 191.3Z"/><animate attributeName="display" repeatCount="indefinite" dur="3s" keyTimes="0;.7917;.8056;1" values="none;inline;none;none"/></g><g display="none" id="Layer57_0_FILL"><path fill="#FCC332" stroke="none" d="M106.35 190.95Q105.5 190.1 104.7 189.55 88.7 183.45 71.6 177.7 22.8 161.1 -4.95 155.25L-4.95 232.15 -4.1 233.55 110.95 233.55Q112.55 232.7 114.1 231.55 113.25 225.85 110.7 212.3 110.55 211.6 110.4 210.8 107.55 195.85 106.35 190.95Z"/><animate attributeName="display" repeatCount="indefinite" dur="3s" keyTimes="0;.7778;.7917;1" values="none;inline;none;none"/></g><g display="none" id="Layer56_0_FILL"><path fill="#FCC332" stroke="none" d="M106.35 190.55Q105.55 189.65 104.8 189.1 89.1 183 71.75 177.15 23.6 160.85 -4.95 155.25L-4.95 232.25 -4 233.55 111.25 233.55Q112.7 232.55 114.05 231.3 113.2 225.4 110.65 212 110.5 211.25 110.35 210.45 107.55 195.5 106.35 190.55Z"/><animate attributeName="display" repeatCount="indefinite" dur="3s" keyTimes="0;.7639;.7778;1" values="none;inline;none;none"/></g><g display="none" id="Layer55_0_FILL"><path fill="#FCC332" stroke="none" d="M106.4 190.15Q105.65 189.2 104.95 188.6 89.5 182.5 71.9 176.6 24.5 160.6 -4.95 155.25L-4.95 232.4 -3.9 233.55 111.5 233.55Q112.8 232.45 114 231 113.15 224.95 110.65 211.65 110.5 210.9 110.35 210.1 107.6 195.15 106.4 190.15Z"/><animate attributeName="display" repeatCount="indefinite" dur="3s" keyTimes="0;.75;.7639;1" values="none;inline;none;none"/></g><g display="none" id="Layer54_0_FILL"><path fill="#FCC332" stroke="none" d="M106.4 189.7Q105.7 188.7 105.05 188.1 89.9 182 72 176 25.35 160.3 -4.95 155.25L-4.95 232.5 -3.75 233.55 111.85 233.55Q112.95 232.3 114 230.7 113.05 224.45 110.65 211.3 110.5 210.5 110.35 209.7 107.6 194.75 106.4 189.7Z"/><animate attributeName="display" repeatCount="indefinite" dur="3s" keyTimes="0;.7361;.75;1" values="none;inline;none;none"/></g><g display="none" id="Layer53_0_FILL"><path fill="#FCC332" stroke="none" d="M106.45 189.3Q105.8 188.25 105.2 187.6 90.3 181.5 72.15 175.45 26.25 160.05 -4.95 155.25L-4.95 232.65 -3.65 233.55 112.1 233.55Q113.05 232.2 113.95 230.4 113 224 110.65 210.95 110.5 210.15 110.35 209.35 107.65 194.4 106.45 189.3Z"/><animate attributeName="display" repeatCount="indefinite" dur="3s" keyTimes="0;.7222;.7361;1" values="none;inline;none;none"/></g><g display="none" id="Layer52_0_FILL"><path fill="#FCC332" stroke="none" d="M106.5 188.9Q105.9 187.8 105.35 187.15 90.75 181.05 72.35 174.9 27.1 159.8 -4.9 155.25L-4.9 232.75 -3.5 233.55 112.45 233.55Q113.25 232.05 113.95 230.15 113 223.55 110.65 210.65 110.5 209.8 110.35 209 107.7 194.05 106.5 188.9Z"/><animate attributeName="display" repeatCount="indefinite" dur="3s" keyTimes="0;.7083;.7222;1" values="none;inline;none;none"/></g><g display="none" id="Layer51_0_FILL"><path fill="#FCC332" stroke="none" d="M106.55 188.55Q105.95 187.35 105.45 186.7 91.1 180.6 72.45 174.45 27.85 159.55 -4.9 155.25L-4.9 232.85 -3.35 233.55 112.7 233.55Q113.35 231.95 113.9 229.9 112.9 223.15 110.65 210.35 110.5 209.5 110.35 208.7 107.7 193.75 106.55 188.55Z"/><animate attributeName="display" repeatCount="indefinite" dur="3s" keyTimes="0;.6944;.7083;1" values="none;inline;none;none"/></g><g display="none" id="Layer50_0_FILL"><path fill="#FCC332" stroke="none" d="M106.5 188.2Q106 187 105.5 186.3 91.35 180.2 72.5 173.95 28.5 159.35 -4.95 155.25L-4.95 232.95 -3.3 233.55 112.9 233.55Q113.4 231.85 113.8 229.65 112.8 222.8 110.6 210.05 110.45 209.2 110.3 208.4 107.7 193.45 106.5 188.2Z"/><animate attributeName="display" repeatCount="indefinite" dur="3s" keyTimes="0;.6806;.6944;1" values="none;inline;none;none"/></g><g display="none" id="Layer49_0_FILL"><path fill="#FCC332" stroke="none" d="M106.55 187.9Q106.05 186.6 105.6 185.9 91.65 179.85 72.6 173.55 29.1 159.15 -4.95 155.25L-4.95 233.05 -3.25 233.55 113.1 233.55Q113.5 231.75 113.8 229.4 112.75 222.45 110.55 209.8 110.4 208.95 110.25 208.1 107.7 193.15 106.55 187.9Z"/><animate attributeName="display" repeatCount="indefinite" dur="3s" keyTimes="0;.6667;.6806;1" values="none;inline;none;none"/></g><g display="none" id="Layer48_0_FILL"><path fill="#FCC332" stroke="none" d="M106.55 187.6Q106.1 186.3 105.7 185.55 91.95 179.5 72.7 173.15 29.7 158.95 -4.95 155.25L-4.95 233.1 -3.15 233.55 113.3 233.55Q113.6 231.65 113.75 229.2 112.7 222.15 110.55 209.55 110.4 208.7 110.25 207.85 107.7 192.9 106.55 187.6Z"/><animate attributeName="display" repeatCount="indefinite" dur="3s" keyTimes="0;.6528;.6667;1" values="none;inline;none;none"/></g><g display="none" id="Layer47_0_FILL"><path fill="#FCC332" stroke="none" d="M106.55 187.35Q106.15 186 105.75 185.25 92.2 179.2 72.8 172.8 30.25 158.75 -4.95 155.25L-4.95 233.2 -3.05 233.55 113.5 233.55Q113.65 231.6 113.75 229.05 112.65 221.85 110.55 209.35 110.4 208.5 110.25 207.6 107.75 192.65 106.55 187.35Z"/><animate attributeName="display" repeatCount="indefinite" dur="3s" keyTimes="0;.6389;.6528;1" values="none;inline;none;none"/></g><g display="none" id="Layer46_0_FILL"><path fill="#FCC332" stroke="none" d="M106.65 187.1Q106.2 185.7 105.9 184.95 92.45 178.9 72.9 172.5 30.8 158.6 -4.9 155.25L-4.9 233.25 -2.95 233.55 113.75 233.55Q113.8 231.5 113.75 228.85 112.65 221.55 110.6 209.15 110.45 208.25 110.3 207.4 107.8 192.45 106.65 187.1Z"/><animate attributeName="display" repeatCount="indefinite" dur="3s" keyTimes="0;.625;.6389;1" values="none;inline;none;none"/></g><g display="none" id="Layer45_0_FILL"><path fill="#FCC332" stroke="none" d="M106.65 186.9Q106.25 185.45 105.95 184.7 92.7 178.65 73 172.2 31.25 158.45 -4.9 155.25L-4.9 233.3 -2.9 233.55 113.9 233.55Q113.85 231.45 113.75 228.7 112.65 221.35 110.6 208.95 110.45 208.1 110.3 207.2 107.8 192.25 106.65 186.9Z"/><animate attributeName="display" repeatCount="indefinite" dur="3s" keyTimes="0;.6111;.625;1" values="none;inline;none;none"/></g><g display="none" id="Layer44_0_FILL"><path fill="#FCC332" stroke="none" d="M106.6 186.7Q106.25 185.25 105.95 184.5 92.8 178.45 73 171.95 31.6 158.35 -4.95 155.25L-4.95 233.35 -2.9 233.55 113.95 233.55Q113.85 231.4 113.65 228.6 112.55 221.15 110.5 208.8 110.35 207.95 110.2 207.05 107.75 192.1 106.6 186.7Z"/><animate attributeName="display" repeatCount="indefinite" dur="3s" keyTimes="0;.5972;.6111;1" values="none;inline;none;none"/></g><g display="none" id="Layer43_0_FILL"><path fill="#FCC332" stroke="none" d="M106.6 186.55Q106.25 185.05 106 184.3 92.95 178.25 73.05 171.7 31.9 158.25 -4.95 155.25L-4.95 233.4 -2.85 233.55 114.1 233.55Q113.9 231.35 113.65 228.45 112.55 220.95 110.5 208.65 110.35 207.8 110.2 206.9 107.8 191.95 106.6 186.55Z"/><animate attributeName="display" repeatCount="indefinite" dur="3s" keyTimes="0;.5833;.5972;1" values="none;inline;none;none"/></g><g display="none" id="Layer42_0_FILL"><path fill="#FCC332" stroke="none" d="M106.7 186.4Q106.35 184.9 106.1 184.15 93.15 178.05 73.15 171.5 32.25 158.15 -4.9 155.25L-4.9 233.45 114.25 233.55Q114 231.3 113.7 228.35 112.55 220.8 110.55 208.55 110.4 207.65 110.25 206.8 107.85 191.85 106.7 186.4Z"/><animate attributeName="display" repeatCount="indefinite" dur="3s" keyTimes="0;.5694;.5833;1" values="none;inline;none;none"/></g><g display="none" id="Layer41_0_FILL"><path fill="#FCC332" stroke="none" d="M106.65 186.3Q106.3 184.8 106.1 184 93.2 177.95 73.15 171.35 32.45 158.1 -4.95 155.25L-4.95 233.5 114.25 233.55Q114 231.25 113.6 228.3 112.5 220.65 110.5 208.45 110.35 207.55 110.2 206.7 107.8 191.75 106.65 186.3Z"/><animate attributeName="display" repeatCount="indefinite" dur="3s" keyTimes="0;.5556;.5694;1" values="none;inline;none;none"/></g><g display="none" id="Layer40_0_FILL"><path fill="#FCC332" stroke="none" d="M106.65 186.2Q106.35 184.7 106.1 183.9 93.3 177.85 73.15 171.25 32.6 158 -4.95 155.25L-4.95 233.5 114.3 233.55Q114 231.25 113.6 228.25 112.45 220.55 110.5 208.4 110.35 207.5 110.2 206.6 107.8 191.65 106.65 186.2Z"/><animate attributeName="display" repeatCount="indefinite" dur="3s" keyTimes="0;.5417;.5556;1" values="none;inline;none;none"/></g><g display="none" id="Layer38_0_FILL"><path fill="#FCC332" stroke="none" d="M106.7 186.1Q106.4 184.55 106.2 183.75 93.45 177.7 73.25 171.1 32.85 157.95 -4.9 155.25L-4.9 233.55 114.45 233.55Q114.1 231.2 113.65 228.15 112.5 220.45 110.55 208.3 110.4 207.4 110.25 206.5 107.85 191.55 106.7 186.1Z"/><animate attributeName="display" repeatCount="indefinite" dur="3s" keyTimes="0;.5139;.5278;1" values="none;inline;none;none"/></g><g display="none" id="Layer37_0_FILL"><path fill="#FCC332" stroke="none" d="M106.2 183.75Q93.45 177.7 73.25 171.1 32.9 157.95 -4.9 155.25L-4.9 233.55 114.45 233.55Q113.3 225.3 110.55 208.3 107.2 187.55 106.2 183.75Z"/><animate attributeName="display" repeatCount="indefinite" dur="3s" keyTimes="0;.5;.5139;1" values="none;inline;none;none"/></g><g display="none" id="Layer36_0_FILL"><path fill="#FCC332" stroke="none" d="M106.7 186.1Q106.4 184.55 106.2 183.75 93.45 177.7 73.25 171.1 32.9 157.95 -4.9 155.25L-4.9 233.55 114.45 233.55Q114.1 231.2 113.65 228.15 112.5 220.45 110.55 208.3 110.4 207.4 110.25 206.5 107.85 191.55 106.7 186.1Z"/><animate attributeName="display" repeatCount="indefinite" dur="3s" keyTimes="0;.4861;.5;1" values="none;inline;none;none"/></g><g display="none" id="Layer35_0_FILL"><path fill="#FCC332" stroke="none" d="M106.7 186.15Q106.4 184.6 106.2 183.8 93.4 177.75 73.25 171.15 32.8 158 -4.9 155.25L-4.9 233.55 114.4 233.55Q114.1 231.2 113.65 228.2 112.5 220.5 110.55 208.35 110.4 207.45 110.25 206.55 107.85 191.6 106.7 186.15Z"/><animate attributeName="display" repeatCount="indefinite" dur="3s" keyTimes="0;.4722;.4861;.5278;.5417;1" values="none;inline;none;inline;none;none"/></g><g display="none" id="Layer34_0_FILL"><path fill="#FCC332" stroke="none" d="M106.65 186.2Q106.35 184.65 106.1 183.9 93.3 177.85 73.15 171.25 32.65 158 -4.95 155.25L-4.95 233.5 114.3 233.55Q114 231.25 113.6 228.25 112.45 220.55 110.5 208.4 110.35 207.5 110.2 206.6 107.8 191.65 106.65 186.2Z"/><animate attributeName="display" repeatCount="indefinite" dur="3s" keyTimes="0;.4583;.4722;1" values="none;inline;none;none"/></g><g display="none" id="Layer33_0_FILL"><path fill="#FCC332" stroke="none" d="M106.65 186.3Q106.3 184.75 106.1 184 93.2 177.9 73.15 171.35 32.45 158.05 -4.95 155.25L-4.95 233.5 114.25 233.55Q114 231.25 113.6 228.3 112.5 220.65 110.5 208.45 110.35 207.55 110.2 206.65 107.8 191.7 106.65 186.3Z"/><animate attributeName="display" repeatCount="indefinite" dur="3s" keyTimes="0;.4444;.4583;1" values="none;inline;none;none"/></g><g display="none" id="Layer32_0_FILL"><path fill="#FCC332" stroke="none" d="M106.7 186.4Q106.35 184.9 106.1 184.1 93.15 178.05 73.15 171.5 32.3 158.15 -4.9 155.25L-4.9 233.45 114.25 233.55Q114 231.3 113.7 228.35 112.55 220.8 110.55 208.55 110.4 207.65 110.25 206.75 107.85 191.8 106.7 186.4Z"/><animate attributeName="display" repeatCount="indefinite" dur="3s" keyTimes="0;.4306;.4444;1" values="none;inline;none;none"/></g><g display="none" id="Layer31_0_FILL"><path fill="#FCC332" stroke="none" d="M106.6 186.55Q106.25 185.05 106 184.25 93 178.2 73.05 171.7 31.95 158.25 -4.95 155.25L-4.95 233.45 114.1 233.55Q113.9 231.35 113.65 228.45 112.5 220.9 110.5 208.65 110.35 207.75 110.2 206.9 107.8 191.95 106.6 186.55Z"/><animate attributeName="display" repeatCount="indefinite" dur="3s" keyTimes="0;.4167;.4306;1" values="none;inline;none;none"/></g><g display="none" id="Layer30_0_FILL"><path fill="#FCC332" stroke="none" d="M106.6 186.7Q106.25 185.2 106 184.45 92.85 178.4 73 171.9 31.65 158.35 -4.95 155.25L-4.95 233.4 -2.85 233.55 114 233.55Q113.85 231.4 113.65 228.55 112.55 221.1 110.5 208.8 110.35 207.9 110.2 207 107.75 192.05 106.6 186.7Z"/><animate attributeName="display" repeatCount="indefinite" dur="3s" keyTimes="0;.4028;.4167;1" values="none;inline;none;none"/></g><g display="none" id="Layer29_0_FILL"><path fill="#FCC332" stroke="none" d="M106.65 186.85Q106.25 185.4 105.95 184.65 92.7 178.6 73 172.15 31.35 158.45 -4.9 155.25L-4.9 233.35 -2.85 233.55 113.9 233.55Q113.85 231.45 113.75 228.7 112.65 221.3 110.6 208.95 110.45 208.05 110.3 207.15 107.8 192.2 106.65 186.85Z"/><animate attributeName="display" repeatCount="indefinite" dur="3s" keyTimes="0;.3889;.4028;1" values="none;inline;none;none"/></g><g display="none" id="Layer28_0_FILL"><path fill="#FCC332" stroke="none" d="M106.65 187.05Q106.25 185.65 105.9 184.9 92.55 178.85 72.95 172.4 30.9 158.6 -4.9 155.25L-4.9 233.3 -2.95 233.55 113.75 233.55Q113.8 231.5 113.75 228.85 112.65 221.5 110.6 209.1 110.45 208.25 110.3 207.35 107.8 192.4 106.65 187.05Z"/><animate attributeName="display" repeatCount="indefinite" dur="3s" keyTimes="0;.375;.3889;1" values="none;inline;none;none"/></g><g display="none" id="Layer27_0_FILL"><path fill="#FCC332" stroke="none" d="M106.6 187.3Q106.2 185.9 105.85 185.15 92.3 179.1 72.85 172.7 30.45 158.7 -4.9 155.25L-4.9 233.2 -3 233.55 113.6 233.55Q113.75 231.55 113.75 229 112.7 221.75 110.6 209.3 110.45 208.4 110.3 207.55 107.8 192.6 106.6 187.3Z"/><animate attributeName="display" repeatCount="indefinite" dur="3s" keyTimes="0;.3611;.375;1" values="none;inline;none;none"/></g><g display="none" id="Layer26_0_FILL"><path fill="#FCC332" stroke="none" d="M106.55 187.55Q106.1 186.2 105.7 185.45 92 179.4 72.75 173.05 29.9 158.9 -4.95 155.25L-4.95 233.15 -3.1 233.55 113.4 233.55Q113.6 231.65 113.75 229.15 112.7 222.05 110.55 209.5 110.4 208.65 110.25 207.75 107.75 192.8 106.55 187.55Z"/><animate attributeName="display" repeatCount="indefinite" dur="3s" keyTimes="0;.3472;.3611;1" values="none;inline;none;none"/></g><g display="none" id="Layer25_0_FILL"><path fill="#FCC332" stroke="none" d="M106.55 187.8Q106.05 186.5 105.65 185.8 91.75 179.7 72.65 173.4 29.35 159.05 -4.95 155.25L-4.95 233.05 -3.2 233.55 113.2 233.55Q113.55 231.7 113.8 229.35 112.75 222.35 110.55 209.7 110.4 208.85 110.25 208 107.7 193.05 106.55 187.8Z"/><animate attributeName="display" repeatCount="indefinite" dur="3s" keyTimes="0;.3333;.3472;1" values="none;inline;none;none"/></g><g display="none" id="Layer24_0_FILL"><path fill="#FCC332" stroke="none" d="M106.5 188.1Q106 186.85 105.55 186.15 91.45 180.05 72.55 173.8 28.7 159.25 -4.95 155.25L-4.95 233 -3.3 233.55 113 233.55Q113.45 231.8 113.8 229.55 112.8 222.65 110.6 209.95 110.45 209.1 110.3 208.25 107.7 193.3 106.5 188.1Z"/><animate attributeName="display" repeatCount="indefinite" dur="3s" keyTimes="0;.3194;.3333;1" values="none;inline;none;none"/></g><g display="none" id="Layer23_0_FILL"><path fill="#FCC332" stroke="none" d="M106.55 188.4Q106 187.2 105.5 186.55 91.2 180.45 72.5 174.25 28.1 159.45 -4.9 155.25L-4.9 232.9 -3.35 233.55 112.8 233.55Q113.4 231.9 113.9 229.8 112.9 223 110.65 210.2 110.5 209.4 110.35 208.55 107.75 193.6 106.55 188.4Z"/><animate attributeName="display" repeatCount="indefinite" dur="3s" keyTimes="0;.3056;.3194;1" values="none;inline;none;none"/></g><g display="none" id="Layer22_0_FILL"><path fill="#FCC332" stroke="none" d="M106.55 188.75Q105.95 187.6 105.4 186.95 90.9 180.85 72.4 174.7 27.4 159.7 -4.9 155.25L-4.9 232.8 -3.45 233.55 112.55 233.55Q113.3 232 113.95 230.05 112.95 223.4 110.65 210.5 110.5 209.7 110.35 208.85 107.7 193.9 106.55 188.75Z"/><animate attributeName="display" repeatCount="indefinite" dur="3s" keyTimes="0;.2917;.3056;1" values="none;inline;none;none"/></g><g display="none" id="Layer21_0_FILL"><path fill="#FCC332" stroke="none" d="M106.5 189.1Q105.85 188.05 105.3 187.4 90.55 181.3 72.25 175.2 26.65 159.95 -4.9 155.25L-4.9 232.7 -3.55 233.55 112.3 233.55Q113.15 232.15 113.95 230.3 113 223.8 110.65 210.8 110.5 210 110.35 209.2 107.7 194.25 106.5 189.1Z"/><animate attributeName="display" repeatCount="indefinite" dur="3s" keyTimes="0;.2778;.2917;1" values="none;inline;none;none"/></g><g display="none" id="Layer20_0_FILL"><path fill="#FCC332" stroke="none" d="M106.45 189.5Q105.75 188.45 105.1 187.85 90.1 181.75 72.1 175.75 25.8 160.2 -4.95 155.25L-4.95 232.55 -3.7 233.55 111.95 233.55Q113 232.25 113.95 230.55 113.05 224.25 110.65 211.15 110.5 210.35 110.35 209.55 107.6 194.6 106.45 189.5Z"/><animate attributeName="display" repeatCount="indefinite" dur="3s" keyTimes="0;.2639;.2778;1" values="none;inline;none;none"/></g><g display="none" id="Layer19_0_FILL"><path fill="#FCC332" stroke="none" d="M106.4 189.95Q105.7 188.95 105 188.35 89.7 182.25 71.95 176.3 24.95 160.45 -4.95 155.25L-4.95 232.45 -3.8 233.55 111.7 233.55Q112.9 232.4 114 230.85 113.1 224.7 110.65 211.5 110.5 210.7 110.35 209.9 107.6 194.95 106.4 189.95Z"/><animate attributeName="display" repeatCount="indefinite" dur="3s" keyTimes="0;.25;.2639;1" values="none;inline;none;none"/></g><g display="none" id="Layer18_0_FILL"><path fill="#FCC332" stroke="none" d="M106.35 190.35Q105.6 189.45 104.9 188.85 89.3 182.75 71.8 176.85 24.05 160.7 -4.95 155.25L-4.95 232.35 -3.95 233.55 111.4 233.55Q112.75 232.5 114.05 231.15 113.15 225.15 110.65 211.8 110.5 211.05 110.35 210.25 107.6 195.3 106.35 190.35Z"/><animate attributeName="display" repeatCount="indefinite" dur="3s" keyTimes="0;.2361;.25;1" values="none;inline;none;none"/></g><g display="none" id="Layer17_0_FILL"><path fill="#FCC332" stroke="none" d="M106.35 190.75Q105.55 189.85 104.75 189.3 88.9 183.2 71.7 177.4 23.25 160.95 -4.95 155.25L-4.95 232.2 -4.05 233.55 111.1 233.55Q112.65 232.6 114.1 231.4 113.25 225.6 110.7 212.15 110.55 211.4 110.4 210.6 107.55 195.65 106.35 190.75Z"/><animate attributeName="display" repeatCount="indefinite" dur="3s" keyTimes="0;.2222;.2361;1" values="none;inline;none;none"/></g><g display="none" id="Layer16_0_FILL"><path fill="#FCC332" stroke="none" d="M106.3 191.1Q105.45 190.3 104.65 189.75 88.55 183.65 71.55 177.9 22.5 161.2 -4.95 155.25L-4.95 232.1 -4.15 233.55 110.85 233.55Q112.5 232.75 114.1 231.7 113.3 226 110.7 212.45 110.55 211.7 110.4 210.95 107.55 196 106.3 191.1Z"/><animate attributeName="display" repeatCount="indefinite" dur="3s" keyTimes="0;.2083;.2222;1" values="none;inline;none;none"/></g><g display="none" id="Layer15_0_FILL"><path fill="#FCC332" stroke="none" d="M106.35 191.45Q105.45 190.7 104.6 190.15 88.3 184.05 71.5 178.35 21.85 161.45 -4.9 155.25L-4.9 232 -4.2 233.55 110.65 233.55Q112.45 232.85 114.2 231.9 113.4 226.4 110.75 212.75 110.6 212 110.45 211.25 107.55 196.3 106.35 191.45Z"/><animate attributeName="display" repeatCount="indefinite" dur="3s" keyTimes="0;.1944;.2083;1" values="none;inline;none;none"/></g><g display="none" id="Layer14_0_FILL"><path fill="#FCC332" stroke="none" d="M106.35 191.75Q105.4 191.05 104.5 190.55 88 184.45 71.4 178.8 21.2 161.65 -4.9 155.25L-4.9 231.9 -4.3 233.55 110.4 233.55Q112.35 232.95 114.25 232.15 113.45 226.75 110.75 213 110.6 212.3 110.45 211.55 107.55 196.6 106.35 191.75Z"/><animate attributeName="display" repeatCount="indefinite" dur="3s" keyTimes="0;.1806;.1944;1" values="none;inline;none;none"/></g><g display="none" id="Layer13_0_FILL"><path fill="#FCC332" stroke="none" d="M106.3 192.05Q105.35 191.4 104.4 190.9 87.7 184.8 71.3 179.2 20.55 161.85 -4.9 155.25L-4.9 231.85 -4.4 233.55 110.2 233.55Q112.25 233.05 114.25 232.35 113.5 227.05 110.8 213.25 110.65 212.55 110.5 211.8 107.55 196.85 106.3 192.05Z"/><animate attributeName="display" repeatCount="indefinite" dur="3s" keyTimes="0;.1667;.1806;1" values="none;inline;none;none"/></g><g display="none" id="Layer12_0_FILL"><path fill="#FCC332" stroke="none" d="M106.25 192.3Q105.25 191.7 104.3 191.25 87.4 185.1 71.15 179.55 19.95 162 -4.95 155.25L-4.95 231.75 -4.55 233.55 109.95 233.55Q112.15 233.1 114.25 232.55 113.5 227.35 110.75 213.45 110.6 212.75 110.45 212.05 107.45 197.1 106.25 192.3Z"/><animate attributeName="display" repeatCount="indefinite" dur="3s" keyTimes="0;.1528;.1667;1" values="none;inline;none;none"/></g><g display="none" id="Layer11_0_FILL"><path fill="#FCC332" stroke="none" d="M106.25 192.55Q105.2 192 104.2 191.55 87.15 185.4 71.1 179.9 19.45 162.2 -4.95 155.25L-4.95 231.7 -4.6 233.55 109.8 233.55Q112.05 233.2 114.3 232.7 113.55 227.65 110.75 213.65 110.6 213 110.45 212.25 107.45 197.3 106.25 192.55Z"/><animate attributeName="display" repeatCount="indefinite" dur="3s" keyTimes="0;.1389;.1528;1" values="none;inline;none;none"/></g><g display="none" id="Layer10_0_FILL"><path fill="#FCC332" stroke="none" d="M106.2 192.8Q105.15 192.25 104.15 191.8 86.95 185.65 71 180.2 19 162.35 -4.95 155.25L-4.95 231.65 -4.65 233.55 109.65 233.55Q112 233.25 114.3 232.9 113.6 227.9 110.75 213.85 110.6 213.2 110.45 212.45 107.45 197.5 106.2 192.8Z"/><animate attributeName="display" repeatCount="indefinite" dur="3s" keyTimes="0;.125;.1389;1" values="none;inline;none;none"/></g><g display="none" id="Layer9_0_FILL"><path fill="#FCC332" stroke="none" d="M106.2 193Q105.15 192.5 104.1 192.05 86.75 185.9 70.95 180.45 18.55 162.45 -4.95 155.25L-4.95 231.55 -4.75 233.55 109.5 233.55Q111.95 233.3 114.3 233 113.6 228.1 110.75 214 110.6 213.35 110.45 212.65 107.45 197.7 106.2 193Z"/><animate attributeName="display" repeatCount="indefinite" dur="3s" keyTimes="0;.1111;.125;1" values="none;inline;none;none"/></g><g display="none" id="Layer8_0_FILL"><path fill="#FCC332" stroke="none" d="M106.25 193.15Q105.15 192.7 104.05 192.25 86.6 186.1 70.95 180.7 18.25 162.55 -4.9 155.25L-4.9 231.5 -4.75 233.55 109.4 233.55Q111.95 233.35 114.4 233.15 113.7 228.3 110.85 214.15 110.7 213.5 110.55 212.8 107.5 197.85 106.25 193.15Z"/><animate attributeName="display" repeatCount="indefinite" dur="3s" keyTimes="0;.0972;.1111;1" values="none;inline;none;none"/></g><g display="none" id="Layer7_0_FILL"><path fill="#FCC332" stroke="none" d="M106.25 193.35Q105.1 192.85 104.05 192.45 86.45 186.3 70.9 180.9 17.95 162.65 -4.9 155.25L-4.8 233.55 109.3 233.55Q111.9 233.4 114.4 233.25 113.75 228.5 110.85 214.3 110.7 213.65 110.55 212.9 107.45 197.95 106.25 193.35Z"/><animate attributeName="display" repeatCount="indefinite" dur="3s" keyTimes="0;.0833;.0972;1" values="none;inline;none;none"/></g><g display="none" id="Layer6_0_FILL"><path fill="#FCC332" stroke="none" d="M106.2 193.45Q105.1 193 104 192.6 86.35 186.45 70.85 181.1 17.65 162.75 -4.9 155.25L-4.8 233.55 109.2 233.55Q111.85 233.45 114.4 233.35 113.75 228.6 110.85 214.4 110.7 213.75 110.55 213.05 107.45 198.1 106.2 193.45Z"/><animate attributeName="display" repeatCount="indefinite" dur="3s" keyTimes="0;.0694;.0833;1" values="none;inline;none;none"/></g><g display="none" id="Layer5_0_FILL"><path fill="#FCC332" stroke="none" d="M106.2 193.55Q105.1 193.15 103.95 192.7 86.25 186.6 70.8 181.25 17.45 162.85 -4.9 155.25L-4.85 233.55 109.15 233.55Q111.8 233.5 114.45 233.4 113.75 228.75 110.85 214.5 110.7 213.85 110.55 213.15 107.45 198.2 106.2 193.55Z"/><animate attributeName="display" repeatCount="indefinite" dur="3s" keyTimes="0;.0556;.0694;1" values="none;inline;none;none"/></g><g display="none" id="Layer4_0_FILL"><path fill="#FCC332" stroke="none" d="M106.2 193.65Q105.05 193.25 103.95 192.8 86.15 186.65 70.8 181.35 17.25 162.9 -4.9 155.25L-4.85 233.55 109.1 233.55Q111.8 233.5 114.45 233.5 113.8 228.85 110.85 214.55 110.7 213.9 110.55 213.2 107.45 198.25 106.2 193.65Z"/><animate attributeName="display" repeatCount="indefinite" dur="3s" keyTimes="0;.0417;.0556;1" values="none;inline;none;none"/></g><g display="none" id="Layer3_0_FILL"><path fill="#FCC332" stroke="none" d="M106.2 193.7Q105.05 193.3 103.9 192.9 86.1 186.75 70.75 181.45 17.15 162.9 -4.9 155.25L-4.9 233.55 109.05 233.55Q111.75 233.55 114.45 233.5 113.8 228.9 110.85 214.6 110.7 213.95 110.55 213.25 107.45 198.3 106.2 193.7Z"/><animate attributeName="display" repeatCount="indefinite" dur="3s" keyTimes="0;.0278;.0417;.9583;.9722;1" values="none;inline;none;inline;none;none"/></g><g display="none" id="Layer2_0_FILL"><path fill="#FCC332" stroke="none" d="M106.2 193.75Q105.05 193.35 103.9 192.95 86.05 186.8 70.75 181.5 17.05 162.95 -4.9 155.25L-4.9 233.55 109 233.55Q111.75 233.55 114.45 233.55 113.8 228.95 110.85 214.65 110.7 214 110.55 213.3 107.45 198.35 106.2 193.75Z"/><animate attributeName="display" repeatCount="indefinite" dur="3s" keyTimes="0;.0139;.0278;1" values="none;inline;none;none"/></g><g display="none" id="Layer1_0_FILL"><path fill="#FCC332" stroke="none" d="M-4.95 155.25L-4.95 233.55 114.4 233.55Q113.7 228.75 110.5 213.3 107.4 198.35 106.15 193.75 23.65 165.3 -4.95 155.25Z"/><animate attributeName="display" repeatCount="indefinite" dur="3s" keyTimes="0;.0139;1" values="inline;none;none"/></g></g></svg>