<?xml version="1.0" encoding="utf-8"?>
<!-- Generator: Adobe Illustrator 27.5.0, SVG Export Plug-In . SVG Version: 6.00 Build 0)  -->
<svg version="1.1" id="Layer_1" xmlns="http://www.w3.org/2000/svg" xmlns:xlink="http://www.w3.org/1999/xlink" x="0px" y="0px"
	 viewBox="0 0 230 230" style="enable-background:new 0 0 230 230;" xml:space="preserve">
<style type="text/css">
	.st0{fill:#94C34A;}
	.st1{fill:#FCC332;}
	.st2{fill:#5CC5E9;}
</style>
<g id="Flourish">
	<path class="st0" d="M105,193.4c-11.6-3.3-22.2-7.1-33-10.7c-24.7-8.3-48.5-17-71.9-26c0-52.2,0-104.5,0-156.7
		c0.4,0.3,0.9,0.6,1.1,0.9c8.1,9.1,15.5,18.4,22.6,27.6c23.9,31.1,42.5,62.8,56.9,94.9c7.5,16.6,13.8,33.4,18.9,50.2
		C101.7,180.2,104,186.8,105,193.4L105,193.4z"/>
	<path class="st1" d="M105,193.4c0.2,0.2,0.3,0.4,0.5,0.6c2.2,10,4.3,20,6.5,30c0.4,2,1.2,3.9,0.5,5.9c-36,0-72.1,0-108.1,0
		c-3.6,0-4.3-0.3-4.3-1.7c0.1-23.8,0.1-47.7,0.1-71.5c23.4,8.9,47.2,17.6,71.9,26C82.8,186.3,93.5,190.1,105,193.4L105,193.4z"/>
	<path class="st2" d="M105.5,194c1.5,0.4,3,0.7,4.4,1.2c24.8,7.9,50.3,15.6,76.3,22.8c14.5,4,29.2,8,43.8,12l-117.6,0
		c0.7-2-0.1-4-0.5-5.9C109.8,214,107.6,204,105.5,194L105.5,194z"/>
</g>
</svg>
