<?xml version="1.0" encoding="UTF-8"?>
<svg id="Layer_1" data-name="Layer 1" xmlns="http://www.w3.org/2000/svg" viewBox="0 0 20 20">
  <g>
    <path d="m10,14.69c-.16,0-.32-.05-.45-.15l-5.37-3.9c-.34-.25-.42-.72-.17-1.07.25-.34.73-.42,1.07-.17l4.92,3.58,4.92-3.58c.34-.25.82-.17,1.06.17.25.34.17.82-.17,1.07l-5.37,3.9c-.13.1-.29.15-.45.15h0Z"/>
    <path d="m10,14.69c-.42,0-.76-.34-.76-.76V2.04c0-.42.34-.76.76-.76s.76.34.76.76v11.88c0,.42-.34.76-.76.76h0Z"/>
  </g>
  <path d="m16.67,18.72H3.33c-.42,0-.76-.34-.76-.76s.34-.76.76-.76h13.33c.42,0,.76.34.76.76s-.34.76-.76.76h0Z"/>
  <path d="m16.67,18.72c-.42,0-.76-.34-.76-.76v-3.37c0-.42.34-.76.76-.76s.76.34.76.76v3.37c0,.42-.34.76-.76.76h0Z"/>
  <path d="m3.33,18.72c-.42,0-.76-.34-.76-.76v-3.37c0-.42.34-.76.76-.76s.76.34.76.76v3.37c0,.42-.34.76-.76.76h0Z"/>
</svg>