<?xml version="1.0" encoding="UTF-8"?>
<svg id="Layer_1" data-name="Layer 1" xmlns="http://www.w3.org/2000/svg" viewBox="0 0 20 20">
  <path d="m3.22.94h10.92s.06.05.09.06c.37.07.54.43.54.74,0,.74,0,1.48,0,2.22,0,.13.03.16.15.16.55,0,1.09,0,1.64,0,.31,0,.56.12.72.4.06.1.06.23.14.32,0,3.22,0,6.44,0,9.67-.06-.02-.06.03-.06.06-.02.16-.1.3-.21.41-.93.91-1.83,1.86-2.75,2.77-.45.44-.85.94-1.4,1.27-.1.01-.21.03-.31.03-2.19,0-4.37,0-6.56,0-.07,0-.14,0-.2-.03-.34-.09-.55-.35-.56-.69,0-.6,0-1.21,0-1.81,0-.13-.05-.19-.19-.19-.56,0-1.11,0-1.67,0-.41.01-.7-.14-.88-.51,0-.12-.04-.23-.04-.36,0-4.62,0-9.23,0-13.85,0-.07,0-.14.03-.2.02-.02.05-.04.06-.06.08-.18.21-.31.4-.37.03,0,.07,0,.05-.06h.06s0,.01,0,.02c0,0,.02-.01.03-.02Zm3.64,10.65s0,0,0,0c0,1.92,0,3.85,0,5.77,0,.19,0,.19.2.19,1.71,0,3.42,0,5.13,0q.23,0,.23-.24c0-.93.01-1.85,0-2.78,0-.45.14-.52.53-.52.93,0,1.86,0,2.79,0,.14,0,.2-.03.19-.19-.01-.14,0-.29,0-.44,0-2.53,0-5.06,0-7.59,0-.14-.04-.19-.18-.18-.22.01-.43.02-.65.02-2.55,0-5.1,0-7.64,0-.14,0-.29.03-.42,0-.15-.03-.17.02-.17.15,0,1.93,0,3.87,0,5.8Zm-2.79-2.98h0c0,1,0,2,0,3.01,0,1.02,0,2.03,0,3.05,0,.09,0,.17.13.17.36,0,.71,0,1.07,0,.08,0,.1-.03.1-.11,0-.2,0-.4,0-.6,0-2.88,0-5.76,0-8.64,0-.07,0-.14-.01-.21-.03-.25-.02-.51.1-.74.17-.32.45-.43.79-.42,2.29,0,4.58,0,6.88,0,.14,0,.19-.04.19-.19-.01-.39,0-.79,0-1.18,0-.34.02-.3-.29-.3-2.88,0-5.76,0-8.64,0-.03,0-.07,0-.1,0-.18-.05-.19-.04-.19.15,0,2.01,0,4.02,0,6.03Zm10.11,6.16c-.35,0-.63,0-.9,0-.08,0-.11.02-.11.11,0,.62.02,1.23,0,1.85,0,.06.02.07.07.04.03-.02.06-.04.08-.07.6-.6,1.2-1.2,1.79-1.8.03-.03.07-.08.05-.11-.02-.03-.08-.05-.12-.04-.31.06-.62,0-.85.02Z"/>
  <path d="m3.22.94s-.02.01-.03.02c0,0,0-.01,0-.02.01,0,.02,0,.03,0Z"/>
  <path d="m11.48,11.69c-1.04,0-2.08,0-3.12,0-.35,0-.51-.29-.35-.6.08-.15.23-.15.37-.15.62,0,1.25,0,1.87,0,1.39,0,2.78,0,4.17,0,.15,0,.3,0,.43.08.15.1.2.23.16.4-.03.12-.21.26-.33.26-.05,0-.1,0-.15,0-1.01,0-2.03,0-3.04,0Z"/>
  <path d="m11.49,8.97c1.04,0,2.08,0,3.12,0,.23,0,.39.17.4.39.02.22-.2.38-.42.35-.11-.01-.23-.02-.34-.02-1.98,0-3.96,0-5.94,0-.24,0-.35-.11-.37-.31-.02-.27.16-.42.38-.42.57,0,1.14,0,1.7,0,.49,0,.97,0,1.46,0Z"/>
  <path d="m10.16,7.73c-.63,0-1.27,0-1.9,0-.16,0-.28-.06-.34-.21-.06-.14-.05-.28.04-.41.09-.13.24-.13.36-.13,1.23,0,2.46,0,3.69,0,.1,0,.21.02.3.07.1.05.16.13.13.24-.02.09.05.18-.02.27-.08.1-.18.18-.33.18-.64,0-1.29,0-1.93,0h0Z"/>
  <path d="m9.56,13.65c-.43,0-.86,0-1.3,0-.15,0-.27-.05-.34-.18-.07-.14-.05-.29.04-.42.08-.13.23-.12.35-.12.86,0,1.72,0,2.58,0,.32,0,.49.24.36.53-.06.14-.21.19-.37.19-.44,0-.88,0-1.33,0h0Z"/>
</svg>