<?xml version="1.0" encoding="UTF-8"?>
<svg id="Layer_2" data-name="Layer 2" xmlns="http://www.w3.org/2000/svg" viewBox="0 0 333.73 35.06">
  <defs>
    <style>
      .cls-1 {
        fill: #fff;
      }
    </style>
  </defs>
  <g id="Layer_1-2" data-name="Layer 1">
    <path class="cls-1" d="m20.08,15.84c.46.93.68,1.99.68,3.16,0,5.43-3.52,8.15-10.56,8.15-3.62,0-6.79-.7-9.51-2.12-.29-.15-.47-.46-.47-.79v-5.42c0-.66.71-1.09,1.28-.77,2.58,1.44,5.21,2.16,7.88,2.16,1.05,0,1.79-.09,2.21-.29.41-.19.62-.5.62-.93,0-.38-.3-.74-.9-1.06-.6-.32-1.35-.6-2.26-.83-.91-.23-1.89-.55-2.95-.99-1.05-.43-2.03-.92-2.94-1.47-.91-.55-1.67-1.35-2.26-2.39-.6-1.04-.9-2.24-.9-3.61,0-2.54.93-4.47,2.78-5.8,1.86-1.33,4.22-1.99,7.1-1.99,3.35,0,6.26.61,8.75,1.83.3.15.48.46.48.79v5.13c0,.65-.69,1.08-1.27.78-2.22-1.16-4.58-1.72-7.07-1.67-1.48,0-2.23.37-2.23,1.11,0,.34.23.64.68.92.45.28,1.04.52,1.74.74.71.22,1.5.45,2.37.7.88.25,1.75.58,2.62.98.87.41,1.66.89,2.37,1.44.71.55,1.29,1.29,1.74,2.22m68.26-4.41c1.34,1.77,2.01,3.95,2.01,6.54s-.67,4.76-2.01,6.54c-1.34,1.77-3.31,2.66-5.89,2.66-1.94,0-3.51-.54-4.7-1.62v8.07c0,.48-.39.88-.88.88h-5.83c-.48,0-.88-.39-.88-.88V10.21c0-.48.39-.88.88-.88h4.89c.48,0,.88.39.88.88v1.21c1.41-1.77,3.29-2.66,5.64-2.66,2.58,0,4.55.89,5.89,2.66m-5.78,6.54c0-.86-.22-1.6-.67-2.21-.44-.61-1.09-.91-1.96-.91-1,0-1.74.41-2.23,1.22v3.81c.17.33.45.62.86.86.41.24.86.36,1.36.36.87,0,1.52-.3,1.96-.92.45-.61.67-1.34.67-2.21M100.01.97c-.75-.65-1.7-.97-2.82-.97s-2.06.32-2.82.97c-.76.64-1.14,1.58-1.14,2.8s.38,2.19,1.14,2.84c.75.65,1.69.97,2.82.97s2.07-.32,2.82-.97c.75-.65,1.13-1.59,1.13-2.84s-.37-2.16-1.13-2.8m.11,8.37h-5.83c-.48,0-.88.39-.88.87v15.49c0,.48.39.88.88.88h5.83c.48,0,.88-.39.88-.88v-15.49c0-.48-.39-.87-.88-.87m16.57-.57c-1.99,0-3.74.77-5.28,2.3v-.79c0-.51-.42-.9-.93-.87l-4.84-.06c-.48,0-.88.39-.88.88v15.49c0,.48.39.88.88.88h5.83c.48,0,.88-.39.88-.88v-9.76c.53-.63,1.19-.91,2-.85.83.06,1.45.81,1.45,1.64v8.97c0,.48.39.88.88.88h5.82c.48,0,.87-.39.87-.88v-10.26c0-1.84-.55-3.42-1.67-4.72-1.11-1.3-2.78-1.96-5.01-1.96m29.79,1.45v15.25c0,3.3-1,5.73-3,7.27-2,1.55-4.51,2.32-7.52,2.32-2.65,0-5.07-.42-7.27-1.25-.34-.13-.56-.47-.56-.83v-4.26c0-.62.62-1.05,1.19-.81,1.61.67,3.36,1.01,5.27,1.01,2.9,0,4.35-.98,4.35-2.95v-.86c-1.17,1.1-2.74,1.65-4.7,1.65-2.61,0-4.59-.86-5.93-2.59-1.34-1.72-2.01-3.87-2.01-6.43s.67-4.7,2.01-6.41c1.34-1.71,3.32-2.57,5.93-2.57,2.37,0,4.24.89,5.6,2.66v-1.21c0-.48.39-.88.88-.88h4.89c.48,0,.88.39.88.88m-7.51,5.73c-.48-.81-1.22-1.22-2.22-1.22-.86,0-1.52.31-1.96.92-.45.61-.66,1.35-.66,2.21s.22,1.6.66,2.21c.44.61,1.1.92,1.96.92,1.01,0,1.74-.41,2.22-1.22v-3.81Zm46.99-7.18c-1.6,0-3.05.5-4.35,1.51V2.31c0-.48-.39-.88-.88-.88h-5.83c-.48,0-.88.39-.88.88v23.39c0,.48.39.88.88.88h5.83c.48,0,.88-.39.88-.88v-9.76c.53-.63,1.19-.92,2-.86.83.06,1.45.81,1.45,1.64v8.97c0,.48.39.88.88.88h5.83c.48,0,.87-.39.87-.88v-10.26c0-1.84-.56-3.42-1.67-4.72-1.11-1.31-2.78-1.96-5.01-1.96m-149.97,0c-1.6,0-3.05.5-4.35,1.51V2.31c0-.48-.39-.88-.88-.88h-5.83c-.48,0-.88.39-.88.88v23.39c0,.48.39.88.88.88h5.83c.48,0,.88-.39.88-.88v-9.76c.53-.63,1.19-.92,2-.86.83.06,1.45.81,1.45,1.64v8.97c0,.48.39.88.88.88h5.82c.48,0,.87-.39.87-.88v-10.26c0-1.84-.55-3.42-1.67-4.72-1.12-1.31-2.79-1.96-5.01-1.96M236.93,1.35c-1.11-.32-2.37-.48-3.77-.48-.91,0-1.78.11-2.62.34-.84.23-1.63.6-2.39,1.11-.75.52-1.35,1.25-1.8,2.21-.45.95-.66,2.08-.66,3.38v1.43h-1.57c-.48,0-.88.39-.88.88v4.29c0,.48.39.88.88.88h1.57v10.33c0,.48.39.88.88.88h5.83c.48,0,.88-.39.88-.88v-10.33h2.9c.48,0,.88-.39.88-.88v-4.29c0-.48-.39-.88-.88-.88h-2.9v-.82c0-1.17.71-1.76,2.12-1.76.39,0,.76.05,1.11.14.53.14,1.04-.31,1.04-.86v-3.85c0-.38-.24-.73-.61-.84m20.15,7.99h-5.83c-.48,0-.88.39-.88.87v9.76c-.52.62-1.18.91-1.98.85-.84-.06-1.46-.81-1.46-1.64v-8.97c0-.48-.39-.87-.88-.87h-5.83c-.48,0-.88.39-.88.87v10.26c0,1.85.56,3.42,1.67,4.72,1.12,1.31,2.77,1.96,4.98,1.96,2.01,0,3.78-.77,5.32-2.3v.79c0,.5.43.9.93.88l4.84.06c.48,0,.88-.39.88-.88v-15.49c0-.48-.39-.87-.88-.87m16.86,11.57c-.33.04-.69.07-1.09.07-1.37,0-2.05-.54-2.05-1.62v-3.99h2.97c.48,0,.88-.39.88-.88v-4.29c0-.48-.39-.87-.88-.87h-2.97v-5.29c0-.56-.52-.98-1.07-.85l-5.83,1.36c-.4.09-.68.44-.68.85v3.94h-1.53c-.48,0-.88.39-.88.87v4.29c0,.48.39.88.88.88h1.53v5.2c0,2.42.64,4.13,1.94,5.12,1.29.99,2.92,1.49,4.88,1.49,1.33,0,2.72-.17,4.17-.51.39-.09.68-.46.68-.86v-4.04c0-.52-.45-.94-.96-.87m38.76-11.99c-2.44-.08-4.32.73-5.61,2.43v-1.14c0-.48-.39-.87-.87-.87h-4.9c-.48,0-.88.39-.88.87v15.49c0,.48.39.88.88.88h5.83c.48,0,.88-.39.88-.88v-8.71c.53-.57,1.33-.94,2.42-1.11.72-.11,1.42-.12,2.08-.01.52.08.99-.33.99-.86v-5.2c0-.46-.36-.86-.82-.88m21.03,8.15c-.02.62-.07,1.24-.15,1.86-.05.43-.43.76-.87.76h-9.87c.29.7.88,1.23,1.79,1.6.91.37,1.95.56,3.12.56,1.43,0,2.73-.13,3.91-.4.54-.12,1.04.3,1.04.86v3.31c0,.39-.24.74-.61.85-1.62.47-3.51.7-5.67.7-1.94,0-3.7-.3-5.28-.9-1.58-.6-2.9-1.62-3.97-3.07-1.07-1.45-1.6-3.23-1.6-5.33,0-1.61.3-3.02.9-4.26.6-1.23,1.37-2.19,2.32-2.86.95-.67,1.93-1.17,2.97-1.49,1.03-.33,2.06-.49,3.09-.49,1.48,0,2.81.22,3.96.66,1.16.44,2.07,1.02,2.73,1.74.7.76,1.26,1.64,1.67,2.66.41,1.02.55,2.14.52,3.24m-6.76-2.54c-.33-.51-.91-.77-1.73-.77-.74,0-1.34.23-1.8.68-.45.46-.68,1.04-.68,1.76h4.56c.1-.6-.03-1.15-.36-1.67m-31.2-5.19h-5.83c-.48,0-.88.39-.88.87v9.76c-.52.62-1.18.91-1.98.85-.84-.06-1.46-.81-1.46-1.64v-8.97c0-.48-.39-.87-.88-.87h-5.83c-.48,0-.88.39-.88.87v10.26c0,1.85.55,3.42,1.67,4.72,1.11,1.31,2.77,1.96,4.98,1.96,2.01,0,3.78-.77,5.32-2.3v.79c0,.5.43.9.93.88l4.84.06c.48,0,.87-.39.87-.88v-15.49c0-.48-.39-.87-.87-.87m-82.63,4.49c.41,1.02.55,2.14.52,3.24-.02.62-.07,1.24-.15,1.86-.06.43-.44.76-.87.76h-9.87c.29.7.88,1.23,1.79,1.6.91.37,1.95.56,3.12.56,1.43,0,2.73-.13,3.91-.4.54-.12,1.05.3,1.05.86v3.31c0,.39-.24.74-.62.85-1.61.47-3.51.7-5.67.7-1.94,0-3.7-.3-5.28-.9-1.58-.6-2.9-1.62-3.97-3.07-1.07-1.45-1.6-3.23-1.6-5.33,0-1.61.3-3.02.9-4.26.59-1.23,1.37-2.19,2.32-2.86.95-.67,1.93-1.17,2.96-1.49,1.03-.33,2.06-.49,3.09-.49,1.48,0,2.81.22,3.97.66,1.16.44,2.07,1.02,2.73,1.74.7.76,1.26,1.64,1.67,2.66m-6.24.7c-.33-.51-.91-.77-1.73-.77-.74,0-1.34.23-1.79.68-.45.46-.68,1.04-.68,1.76h4.56c.1-.6-.03-1.15-.36-1.67m-37.21,6.38c-.33.04-.69.07-1.09.07-1.36,0-2.05-.54-2.05-1.62v-3.99h2.97c.48,0,.88-.39.88-.88v-4.29c0-.48-.39-.87-.88-.87h-2.97v-5.29c0-.56-.53-.98-1.07-.85l-5.83,1.36c-.4.09-.68.44-.68.85v3.94h-1.53c-.48,0-.88.39-.88.87v4.29c0,.48.39.88.88.88h1.53v5.2c0,2.42.64,4.13,1.94,5.12,1.29.99,2.92,1.49,4.89,1.49,1.33,0,2.72-.17,4.17-.51.4-.09.68-.46.68-.86v-4.04c0-.52-.45-.94-.96-.87m-102.16,2.01v2.86c0,.37-.23.71-.58.83-.91.29-1.99.43-3.23.43-1.69,0-2.97-.43-3.85-1.29-.3-.29-.76-.3-1.11-.06-1.45.97-3.15,1.46-5.1,1.46h0s-.05,0-.08,0c-5.53,0-7.94-4.45-7.94-9.2s2.41-9.2,7.94-9.2c2.59,0,4.49,1.22,5.6,2.66v-1.2c0-.49.4-.88.88-.88h4.88c.49,0,.88.4.88.88v10.9c0,.48.21.9.93.93.42.02.76.45.76.87m-9.19-6.87c-.36-.61-1.19-1.22-2.23-1.22-1.87,0-2.62,1.58-2.62,3.12s.76,3.12,2.62,3.12c1.04,0,1.87-.61,2.23-1.22v-3.81Z"/>
  </g>
</svg>